<svg xmlns="http://www.w3.org/2000/svg" xmlns:xlink="http://www.w3.org/1999/xlink" viewBox="0 0 137.43 96.63"><defs><linearGradient id="a" x1="38.98" y1="63.89" x2="38.98" y2="53.44" gradientUnits="userSpaceOnUse"><stop offset="0" stop-color="#4fa0ca"/><stop offset="1" stop-color="#68c6dc"/></linearGradient><linearGradient id="b" x1="43.9" y1="63.89" x2="43.9" y2="53.44" xlink:href="#a"/><linearGradient id="c" x1="93.15" y1="41.88" x2="93.15" y2="35.48" xlink:href="#a"/><linearGradient id="d" x1="88.75" y1="65.56" x2="88.75" y2="51.77" xlink:href="#a"/><linearGradient id="e" x1="97.51" y1="65.56" x2="97.51" y2="51.77" xlink:href="#a"/></defs><title>img-40-photo</title><g style="isolation:isolate"><rect x="2.5" y="2.5" width="132.43" height="91.63" style="fill:#91cdf0;stroke:#754d1f;stroke-miterlimit:10;stroke-width:5px"/><rect x="5.48" y="69.8" width="126.46" height="21.33" style="fill:#548e54"/><rect x="26.98" y="42.55" width="47.53" height="29.27" style="fill:#bbb7c2"/><rect x="36.2" y="52.69" width="10.57" height="11.96" style="fill:#f3f3f3"/><rect x="36.94" y="53.44" width="4.08" height="10.45" style="fill:url(#a)"/><rect x="41.86" y="53.44" width="4.08" height="10.45" style="fill:url(#b)"/><rect x="24.88" y="28.18" width="68.25" height="16.36" style="fill:#5a7399"/><polygon points="111.76 43.08 111.76 71.81 74.5 71.81 74.5 43.08 93.13 28.18 111.76 43.08" style="fill:#afacb7"/><rect x="54.42" y="44.54" width="17.51" height="1.8" style="fill:#f3f3f3"/><rect x="26.98" y="50.94" width="24.76" height="3.09" style="fill:#b6b1be;mix-blend-mode:multiply"/><polygon points="71.92 46.36 54.42 46.36 54.42 48.84 74.5 48.84 74.5 44.56 74.2 44.56 71.92 46.36" style="fill:#b6b1be;opacity:0.74;mix-blend-mode:multiply"/><polygon points="74.5 44.31 74.5 48.83 78.63 44.56 93.13 29.53 74.5 44.31" style="fill:#b6b1be;mix-blend-mode:multiply"/><polygon points="115.63 44.74 114.34 46.35 93.14 29.51 71.92 46.35 70.63 44.74 92.77 27.14 93.16 26.84 115.63 44.74" style="fill:#f3f3f3"/><rect x="24.88" y="43.05" width="29.54" height="7.88" style="fill:#5a7399"/><rect x="24.88" y="49.03" width="29.54" height="1.9" style="fill:#f3f3f3"/><rect x="49.5" y="25.39" width="8.88" height="8.83" style="fill:#e5e5e5"/><rect x="29.11" y="50.93" width="2" height="20.89" style="fill:#f3f3f3"/><rect x="50.74" y="50.93" width="2" height="20.89" style="fill:#f3f3f3"/><rect x="27.61" y="71.82" width="83.33" height="5.46" style="fill:#cbc7d0"/><rect x="75.52" y="71.82" width="35.42" height="5.46" style="fill:#cbc7d0"/><rect x="59.01" y="54.02" width="9.48" height="17.79" style="fill:#957b80"/><polygon points="55.41 71.82 55.41 73.64 53.54 73.64 53.54 75.45 51.74 75.45 51.74 77.27 75.52 77.27 75.52 75.45 75.52 73.64 75.52 71.82 55.41 71.82" style="fill:#e6e7ee"/><path d="M2872.94,253.79v-1.22h-27.86v11.92h27.86v-1.22H2870v-9.47h2.93Zm-26.56,9.47v-9.47h0.78v9.47h-0.78Zm2.08,0v-9.47h3.84v9.47h-3.84Zm5.14,0v-9.47h1v9.47h-1Zm2.34,0v-9.47h1v9.47h-1Zm2.34,0v-9.47h1v9.47h-1Zm2.35,0v-9.47h1v9.47h-1Zm2.34,0v-9.47h1v9.47h-1Zm2.35,0v-9.47h1v9.47h-1Zm3.39,0h-1v-9.47h1v9.47Z" transform="translate(-2820.2 -192.67)" style="fill:#f3f3f3"/><rect x="91.28" y="35.01" width="3.75" height="7.32" style="fill:#fff"/><rect x="91.77" y="35.48" width="2.76" height="6.41" style="fill:url(#c)"/><rect x="60.34" y="55.52" width="6.92" height="7.4" style="fill:#dcbda5;opacity:0.61;mix-blend-mode:multiply"/><rect x="60.34" y="64.42" width="6.92" height="6.17" style="fill:#dcbda5;opacity:0.61;mix-blend-mode:multiply"/><rect x="79.14" y="52.63" width="3.96" height="12.06" style="fill:#918e99"/><path d="M2898.4,244.44v13.79h5.84V244.44h-5.84Zm4.9,12.92h-4v-0.24h4v0.24Zm0-1.23h-4v-0.2h4v0.2Zm0-1.19h-4v-0.19h4v0.19Zm0-1.19h-4v-0.18h4v0.18Zm0-1.18h-4v-0.18h4v0.18Zm0-1.18h-4V251.2h4v0.19Zm0-1.18h-4V250h4v0.19Zm0-1.18h-4v-0.19h4V249Zm0-1.18h-4v-0.19h4v0.19Zm0-1.18h-4v-0.19h4v0.19Zm0-1.18h-4v-0.19h4v0.19Z" transform="translate(-2820.2 -192.67)" style="fill:#cbc7d0"/><rect x="103.16" y="52.63" width="3.96" height="12.06" style="fill:#918e99"/><path d="M2922.43,244.44v13.79h5.84V244.44h-5.84Zm4.9,12.92h-4v-0.24h4v0.24Zm0-1.23h-4v-0.2h4v0.2Zm0-1.19h-4v-0.19h4v0.19Zm0-1.19h-4v-0.18h4v0.18Zm0-1.18h-4v-0.18h4v0.18Zm0-1.18h-4V251.2h4v0.19Zm0-1.18h-4V250h4v0.19Zm0-1.18h-4v-0.19h4V249Zm0-1.18h-4v-0.19h4v0.19Zm0-1.18h-4v-0.19h4v0.19Zm0-1.18h-4v-0.19h4v0.19Z" transform="translate(-2820.2 -192.67)" style="fill:#cbc7d0"/><rect x="84.04" y="51.77" width="9.43" height="13.79" style="fill:url(#d)"/><rect x="92.8" y="51.77" width="9.43" height="13.79" style="fill:url(#e)"/><path d="M2913.66,244.45h-9.42v13.78h18.19V244.45h-8.76Zm-6.19,13.12h-2.57v-3h2.57v3Zm0-3.22h-2.57v-2.74h2.57v2.74Zm0-3.29h-2.57v-2.84h2.57v2.84Zm0-3h-2.57v-2.91h2.57V248Zm2.77,9.55h-2.59v-3h2.59v3Zm0-3.22h-2.59v-2.74h2.59v2.74Zm0-3.29h-2.59v-2.84h2.59v2.84Zm0-3h-2.59v-2.91h2.59V248Zm2.76,9.55h-2.59v-3H2913v3Zm0-3.22h-2.59v-2.74H2913v2.74Zm0-3.29h-2.59v-2.84H2913v2.84Zm0-3h-2.59v-2.91H2913V248Zm3.41-2.91H2919V248h-2.59v-2.91Zm2.59,3.11v2.84h-2.59v-2.84H2919Zm-5.34-3.11h2.57V248h-2.57v-2.91Zm0,3.11h2.57v2.84h-2.57v-2.84Zm2.57,9.35h-2.57v-3h2.57v3Zm-2.57-3.22v-2.74h2.57v2.74h-2.57Zm5.34,3.22h-2.59v-3H2919v3Zm-2.59-3.22v-2.74H2919v2.74h-2.59Zm5.36,3.22h-2.59v-3h2.59v3Zm0-3.22h-2.59v-2.74h2.59v2.74Zm0-3.29h-2.59v-2.84h2.59v2.84Zm0-3h-2.59v-2.91h2.59V248Z" transform="translate(-2820.2 -192.67)" style="fill:#fff"/><polygon points="84.04 51.77 84.04 53.06 84.04 65.56 85.51 65.56 85.51 53.06 102.23 53.06 102.23 51.77 84.04 51.77" style="fill:#9a96a3;mix-blend-mode:multiply"/><polygon points="95.03 35.01 95.03 36.02 92.18 36.02 92.18 42.33 91.28 42.33 91.28 35.01 95.03 35.01" style="fill:#9a96a3;mix-blend-mode:multiply"/><polygon points="68.48 54.02 59.99 54.02 59.01 54.02 59.01 55.17 59.01 71.82 59.99 71.82 59.99 55.17 68.48 55.17 68.48 54.02" style="fill:#b7b2bf;opacity:0.77;mix-blend-mode:multiply"/><rect x="27.61" y="71.82" width="25.13" height="1.58" style="fill:#b9b4c1;mix-blend-mode:multiply"/><rect x="75.52" y="71.82" width="35.42" height="1.58" style="fill:#b9b4c1;mix-blend-mode:multiply"/><rect x="71.92" y="48.84" width="2.58" height="22.97" style="fill:#b6b1be;opacity:0.74;mix-blend-mode:multiply"/></g></svg>