<svg xmlns="http://www.w3.org/2000/svg" xmlns:xlink="http://www.w3.org/1999/xlink" viewBox="0 0 134.22 266.51"><defs><linearGradient id="a" x1="525.76" y1="606.17" x2="584.42" y2="606.17" gradientUnits="userSpaceOnUse"><stop offset="0" stop-color="#231f20"/><stop offset="0.5" stop-color="#231f20"/><stop offset="1" stop-color="#231f20"/></linearGradient><linearGradient id="b" x1="450.76" y1="606.17" x2="509.42" y2="606.17" xlink:href="#a"/></defs><title>img-20-person-pants</title><path d="M553.69,593.07l-27.2,7.47-0.73,10.6c4.89,4.36,34.74,13.13,36,13.65,2,0.8,18.15-.13,21-2.08,1.25-.86,2.5-7.05.76-7.73C576.44,611.17,559.77,610.33,553.69,593.07Z" transform="translate(-450.2 -358.58)" style="fill:#fff"/><path d="M481.49,593.07l27.2,7.47,0.73,10.6c-4.89,4.36-34.74,13.13-36,13.65-2,.8-18.15-0.13-21-2.08-1.25-.86-3.23-6.31-1.49-7C458,611.91,475.4,610.33,481.49,593.07Z" transform="translate(-450.2 -358.58)" style="fill:#fff"/><path d="M553.69,590.17l-27.2,7.47-0.73,10.6c4.89,4.36,34.74,13.13,36,13.65,2,0.8,18.15-.13,21-2.08,1.25-.86,2.5-4.15.76-4.82C576.44,611.17,559.77,607.43,553.69,590.17Z" transform="translate(-450.2 -358.58)" style="fill:url(#a)"/><path d="M481.49,590.17l27.2,7.47,0.73,10.6c-4.89,4.36-34.74,13.13-36,13.65-2,.8-18.15-0.13-21-2.08-1.25-.86-2.5-4.15-0.76-4.82C458.74,611.17,475.4,607.43,481.49,590.17Z" transform="translate(-450.2 -358.58)" style="fill:url(#b)"/><path d="M556,524.37c-0.14-1.51,1.27-24.53.66-32.46,0-14.48-.71-85.08.84-88,0,0,2.3-6.55,2.29-8.4,0-11-8.13-26.24-8.18-37-24.51.36-81.91,0-81.91,0s-7.84,23-7.92,36.89c0,1,3.25,7.61,3.25,7.61,2.33,10.56,5,72.13,5.86,84.06,1.68,23.13,10.4,93.5,10.4,98.78l-1,7-4.79,7.66,15,4,18.59-5s-2.84-66.94-3.17-74.27c-0.79-17.4-1.06-26.07-1.06-39,0-16.13,4.12-58.77,5.11-70.21,0,0,4.22-1.95,5.05-.55,1,1.6,8.48,59.37,8.25,67.25-0.06,2.15.55,28.41,0.8,34,0.75,16.44,1.71,55.46,1.65,65.06l0.7,17.49,19.13,6.36s9.85-4.55,12.55-7.12c0-.49-3.84-9.07-3.84-9.07C553.59,572.92,557.46,540.72,556,524.37Z" transform="translate(-450.2 -358.58)" style="fill:#4e596d"/><polygon points="27.74 235.9 25.25 241.98 40.26 245.93 58.84 240.97 59.22 235.9 40.62 240.25 27.74 235.9" style="fill:#586e93"/><polygon points="75.55 236.12 76.17 240.66 95.31 247.03 107.86 239.91 107.01 235.9 94.75 242.57 75.55 236.12" style="fill:#586e93"/></svg>