<svg xmlns="http://www.w3.org/2000/svg" viewBox="0 0 59.24 120.81"><title>img-40-person-head</title><g style="isolation:isolate"><path d="M2684.68,193.06c-5.83.18-36.16,0.9-36.16,0.9,1.95,20.37-3,33.18-3,33.18a61,61,0,0,0,7.3,14.66c4.79,6.82,12,13.07,11.71,13l25.56-28.72C2686.36,219.87,2684.9,199,2684.68,193.06Z" transform="translate(-2637.09 -134)" style="fill:#f6b284"/><path d="M2693.7,167.49c-2.92-1.58-6.19,1.61-6.19,1.61l0.85,17C2693.79,185.31,2700,174,2693.7,167.49Z" transform="translate(-2637.09 -134)" style="fill:#f6b284"/><path d="M2639.58,167.25c3-1.51,6.16,1.76,6.16,1.76l-1.17,16.05C2639.24,185.16,2633.78,171.55,2639.58,167.25Z" transform="translate(-2637.09 -134)" style="fill:#f6b284"/><g style="opacity:0.45;mix-blend-mode:multiply"><path d="M2684.68,193.06c-5.83.18-36.16,0.9-36.16,0.9,1.95,20.37-3,33.18-3,33.18a61,61,0,0,0,7.3,14.66c4.79,6.82,34.19-25.28,33.33-31.86C2685.23,203,2684.79,196.09,2684.68,193.06Z" transform="translate(-2637.09 -134)" style="fill:#f6b284"/></g><path d="M2687.7,153.86c-19.69-16.18-41.5-2.24-41.5-2.24-0.32,6.61-1.66,19.24-2.62,30.52a110.06,110.06,0,0,0,1.88,21.5c1,4.34,6.83,13.67,20.43,13.67s19.41-9.25,22.42-13C2691.13,200.75,2688.25,159.43,2687.7,153.86Z" transform="translate(-2637.09 -134)" style="fill:#f6b284"/><g style="opacity:0.8"><path d="M2667.22,201.43c-8.57,1.72-13.72-1.31-13.72-1.31,4.81,5,21.78,4.61,25.53-3.4C2678.41,196.95,2675.78,199.71,2667.22,201.43Z" transform="translate(-2637.09 -134)" style="fill:#eb9255;mix-blend-mode:multiply"/></g><path d="M2671.36,191.08c-0.67,1.25-3.3,1.63-5.54,1.41a11.8,11.8,0,0,1-2.91-.95s1.41-18.07,1.06-21.06l-1,1.64-1.67,20.15a27,27,0,0,0,4.36,1.48C2667.64,193.81,2671.2,192.76,2671.36,191.08Z" transform="translate(-2637.09 -134)" style="fill:#eb9255;opacity:0.8;mix-blend-mode:multiply"/><path d="M2683.49,167c-0.86-.73-5-1.09-6.6-1.05,0,0-5.55.72-6.5,1.37a1.07,1.07,0,0,0,.4,2c1.32,0.12,4.32-.54,6.43-0.93a58.73,58.73,0,0,1,6.54.39C2684.63,168.54,2684,167.4,2683.49,167Z" transform="translate(-2637.09 -134)" style="fill:#281711"/><path d="M2646.72,168.44c0.19-.93,4.64-2,6.25-2.09,0,0,5.64.32,6.7,0.89s1.09,1.86,0,2c-1.29.22-4.39-.23-6.55-0.46a49.14,49.14,0,0,0-6.28,1C2646.43,169.67,2646.66,168.77,2646.72,168.44Z" transform="translate(-2637.09 -134)" style="fill:#281711"/><path d="M2694.71,140.84c-9,2.37-39-18-51,2.17,1,1.11,4.09.78-2.9,5.54-1.26,3.28.23,13.92,0.71,18.25,2.65,0.62,3.11,10.19,3.11,10.19,0.33-3.31,1.81-16.45,2.68-21.32,2.28-.33,3.88-1.61,6.16-1.28,0.08,0.19-.16.7-0.37,0.5,10.36,6.57,21.78-3.54,31.91-.34,3.18,5.87,4.35,24.64,4.82,26.19,0.47-4.66.69-12.92,3.81-13.71,0.82-.21,2.31-17.91,2.51-20.08C2693.19,146.16,2693.73,141.49,2694.71,140.84Z" transform="translate(-2637.09 -134)" style="fill:#34302f"/><path d="M2647.18,142.1c5.72-4.23,10.78-7.44,34.65-1.31C2661.39,136.63,2653.5,138.38,2647.18,142.1Z" transform="translate(-2637.09 -134)" style="fill:#6e6d6e;opacity:0.5"/><path d="M2655.44,153.18c9.82,4,21.8-4.75,33.52.41C2679,148.27,2664.15,154.93,2655.44,153.18Z" transform="translate(-2637.09 -134)" style="fill:#6e6d6e;opacity:0.5"/><path d="M2650.35,145.65c11.87-6.28,23.09-1.35,41.19-2.92C2672.66,146,2662.22,141.42,2650.35,145.65Z" transform="translate(-2637.09 -134)" style="fill:#6e6d6e;opacity:0.5"/><path d="M2653,148.7c9.19-4,29.46,1.14,37.92-.75C2684.06,150,2661.57,146.63,2653,148.7Z" transform="translate(-2637.09 -134)" style="fill:#6e6d6e;opacity:0.5"/><path d="M2644.05,149.45c-1.46.68-1.9,9.28-1.07,15.38C2643.23,159.18,2642.79,152,2644.05,149.45Z" transform="translate(-2637.09 -134)" style="fill:#6e6d6e;opacity:0.5"/><path d="M2645.61,153.18a15,15,0,0,0-.92,7.37C2645,158.3,2644.93,155.44,2645.61,153.18Z" transform="translate(-2637.09 -134)" style="fill:#6e6d6e;opacity:0.5"/><path d="M2644.05,184.7s-4.44,18.36-3.17,22.74,21.43,18.78,25.31,19.07,24.47-14.21,26.73-20.43-2.83-20.48-2.83-20.48-1.75,8.8-6,14.81c-2.1,3-7.2,4.21-8.36,5.41-3.5,3.66-5.81.35-5.81,0.35l-7.11-.1s-1.5,3.92-6,.45c-1.9-1.45-6.2-1.39-8.5-5.62C2645,195,2644.05,184.7,2644.05,184.7Z" transform="translate(-2637.09 -134)" style="fill:#34302f"/><path d="M2649.83,205.64s-0.94-9.49,3.43-11.83,9.31,1.69,11.55,1.72,8.52-5,14.6-2c4.06,2,3.94,9.39,4.18,11s-5.07,1.78-5.07,1.78,1.37-10.07-3.1-9.15-3.5,2.21-10.12,2.27-9.73-3.86-10.9,0a39.74,39.74,0,0,0-1.15,9.5Z" transform="translate(-2637.09 -134)" style="fill:#34302f"/><path d="M2663.84,208.44c0.66,1.61,1.46,4.09,1.46,4.09l-0.73-4.09h-0.73Z" transform="translate(-2637.09 -134)" style="fill:#6e6d6e;opacity:0.5"/><polygon points="28.72 73.64 29.16 80.57 29.98 73.64 28.72 73.64" style="fill:#6e6d6e;opacity:0.5"/><polygon points="31.12 74.44 30.46 77.11 31.57 74.44 31.12 74.44" style="fill:#6e6d6e;opacity:0.5"/><path d="M2644.05,195.54c-0.86,3.85-1.43,9-.74,12.09C2643.19,203.84,2644.05,195.54,2644.05,195.54Z" transform="translate(-2637.09 -134)" style="fill:#6e6d6e;opacity:0.5"/><path d="M2647.64,203.26c0.22,6.64.34,8.61,2.1,11.82A45.21,45.21,0,0,1,2647.64,203.26Z" transform="translate(-2637.09 -134)" style="fill:#6e6d6e;opacity:0.5"/><path d="M2658.3,210.48c0.22,6.64.34,8.61,2.1,11.82A45.21,45.21,0,0,1,2658.3,210.48Z" transform="translate(-2637.09 -134)" style="fill:#6e6d6e;opacity:0.5"/><path d="M2653,207.2c0.55,3.75-.52,6.23,1.47,10.65A94.29,94.29,0,0,1,2653,207.2Z" transform="translate(-2637.09 -134)" style="fill:#6e6d6e;opacity:0.5"/><path d="M2689.34,194.25c0.86,3.85,1.43,9,.74,12.09C2690.2,202.55,2689.34,194.25,2689.34,194.25Z" transform="translate(-2637.09 -134)" style="fill:#6e6d6e;opacity:0.5"/><path d="M2685.75,202c-0.22,6.64-.34,8.61-2.1,11.82A45.21,45.21,0,0,0,2685.75,202Z" transform="translate(-2637.09 -134)" style="fill:#6e6d6e;opacity:0.5"/><path d="M2675.09,209.19c-0.22,6.64-.34,8.61-2.1,11.82A45.21,45.21,0,0,0,2675.09,209.19Z" transform="translate(-2637.09 -134)" style="fill:#6e6d6e;opacity:0.5"/><path d="M2680.36,205.91c-0.55,3.75.52,6.23-1.47,10.65A94.29,94.29,0,0,0,2680.36,205.91Z" transform="translate(-2637.09 -134)" style="fill:#6e6d6e;opacity:0.5"/><ellipse cx="17.17" cy="41.5" rx="2.44" ry="3.78" style="fill:#281711"/><ellipse cx="40.65" cy="41.5" rx="2.44" ry="3.78" style="fill:#281711"/><ellipse cx="40.84" cy="38.98" rx="0.55" ry="0.85" style="fill:#fff"/><ellipse cx="17.17" cy="38.98" rx="0.55" ry="0.85" style="fill:#fff"/><path d="M2688.66,170.2s-15.39-.3-19.78.8c-0.95.24-1.39,1.26-3.77,1.23s-2.83-1-3.77-1.21c-4.4-1.07-19.79-.68-19.79-0.68a6.85,6.85,0,0,0,.16,2.37,3.42,3.42,0,0,1,1.33,2.06c0.19,0.95.62,4.35,1.57,5,2.45,1.78,13.63,1.9,15.14,1,1.67-1,2.93-5.43,3.9-6.27a3.21,3.21,0,0,1,2.94,0c1,0.83,2.26,5.27,3.94,6.25,1.51,0.89,12.7.7,15.13-1.09,1-.7,1.36-4.1,1.55-5.05a3.43,3.43,0,0,1,1.32-2.06l3.71-4,1.66-2.21ZM2658.37,180c-3.69,1-12.47-.22-13.14-1.19-0.91-1.33-1.29-6.12-.1-6.93,0.27-.18,14.29-0.79,15.78,1S2659.66,179.61,2658.37,180Zm26.62-1.32c-0.66,1-9.41,2.24-13.1,1.27-1.29-.34-4.17-5.16-2.59-7.08s15.47-1.27,15.73-1.09C2686.23,172.53,2685.88,177.31,2685,178.64Z" transform="translate(-2637.09 -134)" style="fill:#42190d"/></g></svg>