<svg xmlns="http://www.w3.org/2000/svg" viewBox="0 0 64.08 64.04"><title>img-mobile-icon-real-estate</title><path d="M876,6914a8,8,0,1,0,8-8A8,8,0,0,0,876,6914Zm12,0a4,4,0,1,1-4-4A4,4,0,0,1,888,6914Zm-24,18h12v-4H864v4Zm51.44-15.5-29.94-23.94a2.2,2.2,0,0,0-3,0l-29.94,23.94a2,2,0,1,0,2.88,2.88l0.56-.45V6952a4,4,0,0,0,4,4h48a4,4,0,0,0,4-4v-33.07l0.56,0.45A2,2,0,1,0,915.44,6916.49ZM896,6952H884v-20h12v20Zm12-36v34a2,2,0,0,1-2,2h-6v-24H880v24H862a2,2,0,0,1-2-2v-34h-0.34L884,6896.54,908.34,6916H908Zm-44,24h12v-4H864v4Z" transform="translate(-851.96 -6891.96)" style="fill:#3c4042;fill-rule:evenodd"/></svg>