<svg xmlns="http://www.w3.org/2000/svg" viewBox="0 0 75 84.59"><title>img-mobile-icon-reciept</title><path d="M-1052.16-5143.09h-8v4h8v-4Zm0-8h-8v4h8v-4Zm-44-24v23l4,4v-23h48v56l-8-6-8,6v4l8-6,8,6h4v-64h-56Zm44,12h-32v4h32v-4Zm-8,32h8v-4h-8v4Z" transform="translate(1115.16 5175.09)" style="fill:#3c4042;fill-rule:evenodd"/><path d="M-1063.56-5154.5l-7.84,8-7.7-8-8.25,8-8-8-8.27,8-7.39-8h-4.2v64h56v-64h-4.4Zm0.4,60h-48v-56l8.11,8,7.73-8,8,8,8.27-8,7.89,8,8-8v56Zm-23.34-24v-9a10.88,10.88,0,0,1,6.49,3.19l2.19-2.53a13.59,13.59,0,0,0-8.68-3.82v-3.82h-2.68v3.78c-5.26.37-9.08,3.4-9.08,7.67,0,5.1,4.61,6.51,9.08,7.68v10.08a12.2,12.2,0,0,1-7.81-3.9l-2.19,2.65a14.43,14.43,0,0,0,10,4.36v3.69h2.68v-3.69c6.8-.46,9.34-4.36,9.34-8.09C-1077.16-5115.74-1082-5117.32-1086.5-5118.52Zm-2.68-.66c-3-.83-5.31-1.82-5.31-4.11s2.19-4.15,5.31-4.36v8.46Zm2.68,13.9v-9.46c3.07,0.87,5.57,2,5.57,4.69C-1080.93-5108.06-1082.33-5105.7-1086.5-5105.29Z" transform="translate(1115.16 5175.09)" style="fill:#3c4042;fill-rule:evenodd"/></svg>