<svg xmlns="http://www.w3.org/2000/svg" viewBox="0 0 151.08 503.94"><title>img-40-person</title><g style="isolation:isolate"><path d="M118.08,473.26L92,480.42l-0.7,10.16c4.69,4.17,33.28,12.58,34.5,13.08,1.9,0.77,17.39-.12,20.14-2,1.2-.82,2.4-6.76.73-7.4C139.87,490.6,123.91,489.8,118.08,473.26Z" style="fill:#392713"/><path d="M46.35,473.26l26.06,7.16,0.7,10.16c-4.69,4.17-33.28,12.58-34.5,13.08-1.9.77-17.39-.12-20.14-2-1.2-.82-3.1-6-1.43-6.69C23.86,491.32,40.52,489.8,46.35,473.26Z" style="fill:#392713"/><path d="M118.08,470.48L92,477.64l-0.7,10.16c4.69,4.17,33.28,12.58,34.5,13.08,1.9,0.77,17.39-.12,20.14-2,1.2-.82,2.4-4,0.73-4.62C139.87,490.6,123.91,487,118.08,470.48Z" style="fill:#3f2b16"/><path d="M46.35,470.48l26.06,7.16,0.7,10.16c-4.69,4.17-33.28,12.58-34.5,13.08-1.9.77-17.39-.12-20.14-2-1.2-.82-2.4-4-0.73-4.62C24.56,490.6,40.52,487,46.35,470.48Z" style="fill:#3f2b16"/><path d="M91,59.53c-5.88.18-36.44,0.9-36.44,0.9,2,20.53-3,33.44-3,33.44a61.42,61.42,0,0,0,7.36,14.78c4.83,6.88,12.14,13.17,11.81,13.1L96.46,92.81C92.72,86.55,91.25,65.48,91,59.53Z" style="fill:#f6b284"/><path d="M100.12,33.76c-2.94-1.59-6.24,1.62-6.24,1.62l0.85,17.14C100.21,51.71,106.43,40.32,100.12,33.76Z" style="fill:#f6b284"/><path d="M45.57,33.51c3-1.52,6.21,1.77,6.21,1.77L50.6,51.46C45.23,51.57,39.73,37.85,45.57,33.51Z" style="fill:#f6b284"/><g style="opacity:0.45;mix-blend-mode:multiply"><path d="M91,59.53c-5.88.18-36.44,0.9-36.44,0.9,2,20.53-3,33.44-3,33.44a61.42,61.42,0,0,0,7.36,14.78c4.83,6.88,34.46-25.48,33.59-32.11C91.58,69.59,91.14,62.58,91,59.53Z" style="fill:#f6b284"/></g><path d="M94.08,20c-19.84-16.3-41.83-2.26-41.83-2.26-0.32,6.66-1.68,19.39-2.64,30.76a110.93,110.93,0,0,0,1.9,21.66C52.55,74.56,58.39,84,72.1,84s19.56-9.32,22.59-13.12C97.53,67.28,94.63,25.63,94.08,20Z" style="fill:#f6b284"/><g style="opacity:0.8"><path d="M73.43,68C64.8,69.7,59.6,66.64,59.6,66.64c4.85,5,22,4.65,25.73-3.42C84.71,63.45,82.06,66.23,73.43,68Z" style="fill:#eb9255;mix-blend-mode:multiply"/></g><path d="M77.6,57.53C76.92,58.79,74.28,59.17,72,59a11.89,11.89,0,0,1-2.93-1s1.42-18.21,1.06-21.22l-1,1.66L67.5,58.74a27.23,27.23,0,0,0,4.39,1.49C73.86,60.29,77.45,59.22,77.6,57.53Z" style="fill:#eb9255;opacity:0.8;mix-blend-mode:multiply"/><path d="M89.83,33.27c-0.87-.73-5-1.09-6.66-1.06,0,0-5.6.72-6.55,1.38a1.07,1.07,0,0,0,.4,2c1.33,0.12,4.35-.55,6.48-0.94a59.19,59.19,0,0,1,6.59.4C91,34.81,90.31,33.67,89.83,33.27Z" style="fill:#281711"/><path d="M52.78,34.71c0.19-.94,4.68-2,6.3-2.11,0,0,5.69.32,6.75,0.9s1.09,1.87,0,2.06c-1.3.22-4.42-.23-6.6-0.47a49.52,49.52,0,0,0-6.32,1C52.48,36,52.71,35,52.78,34.71Z" style="fill:#281711"/><path d="M101.13,6.9c-9,2.38-39.35-18.17-51.42,2.18,1,1.12,4.12.79-2.92,5.59-1.27,3.31.23,14,.72,18.39,2.68,0.63,3.13,10.27,3.13,10.27C51,40,52.48,26.75,53.36,21.84c2.3-.33,3.92-1.63,6.21-1.29,0.09,0.19-.17.71-0.38,0.51,10.44,6.62,22-3.57,32.16-.34,3.21,5.92,4.38,24.83,4.85,26.4,0.48-4.69.69-13,3.84-13.81,0.83-.21,2.33-18,2.53-20.24C99.6,12.26,100.15,7.55,101.13,6.9Z" style="fill:#34302f"/><path d="M53.24,8.17C59,3.9,64.1.67,88.16,6.85,67.56,2.65,59.6,4.42,53.24,8.17Z" style="fill:#6e6d6e;opacity:0.5"/><path d="M61.55,19.33c9.9,4.07,22-4.79,33.78.41C85.28,14.39,70.34,21.1,61.55,19.33Z" style="fill:#6e6d6e;opacity:0.5"/><path d="M56.43,11.75c12-6.33,23.27-1.36,41.51-2.94C78.91,12.09,68.39,7.48,56.43,11.75Z" style="fill:#6e6d6e;opacity:0.5"/><path d="M59.13,14.81c9.26-4,29.69,1.15,38.22-.76C90.4,16.16,67.73,12.74,59.13,14.81Z" style="fill:#6e6d6e;opacity:0.5"/><path d="M50.08,15.57c-1.47.69-1.92,9.35-1.08,15.5C49.25,25.38,48.81,18.12,50.08,15.57Z" style="fill:#6e6d6e;opacity:0.5"/><path d="M51.65,19.33a15.16,15.16,0,0,0-.93,7.42C51.06,24.5,51,21.61,51.65,19.33Z" style="fill:#6e6d6e;opacity:0.5"/><path d="M50.08,51.1S45.61,69.61,46.89,74,68.49,92.95,72.4,93.24,97.06,78.93,99.33,72.65,96.48,52,96.48,52s-1.76,8.87-6.08,14.93c-2.12,3-7.26,4.24-8.42,5.46-3.53,3.69-5.86.35-5.86,0.35L69,72.65s-1.52,4-6.09.46c-1.92-1.46-6.25-1.4-8.56-5.66C51.07,61.52,50.08,51.1,50.08,51.1Z" style="fill:#34302f"/><path d="M55.91,72.21S55,62.65,59.36,60.29,68.74,62,71,62,79.59,57,85.72,60c4.09,2,4,9.46,4.22,11.06s-5.11,1.79-5.11,1.79,1.38-10.15-3.13-9.22-3.53,2.23-10.2,2.29-9.81-3.89-11,0a40,40,0,0,0-1.16,9.57Z" style="fill:#34302f"/><path d="M70,75c0.66,1.62,1.47,4.12,1.47,4.12L70.76,75H70Z" style="fill:#6e6d6e;opacity:0.5"/><polygon points="72.02 74.22 72.45 81.2 73.29 74.22 72.02 74.22" style="fill:#6e6d6e;opacity:0.5"/><polygon points="74.43 75.03 73.77 77.71 74.89 75.03 74.43 75.03" style="fill:#6e6d6e;opacity:0.5"/><path d="M50.08,62c-0.87,3.88-1.44,9-.75,12.19C49.21,70.39,50.08,62,50.08,62Z" style="fill:#6e6d6e;opacity:0.5"/><path d="M53.7,69.8c0.22,6.69.34,8.68,2.12,11.91A45.56,45.56,0,0,1,53.7,69.8Z" style="fill:#6e6d6e;opacity:0.5"/><path d="M64.44,77.09c0.22,6.69.34,8.68,2.12,11.91A45.56,45.56,0,0,1,64.44,77.09Z" style="fill:#6e6d6e;opacity:0.5"/><path d="M59.13,73.78c0.55,3.78-.52,6.28,1.49,10.74A95,95,0,0,1,59.13,73.78Z" style="fill:#6e6d6e;opacity:0.5"/><path d="M95.73,60.73c0.87,3.88,1.44,9,.75,12.19C96.59,69.1,95.73,60.73,95.73,60.73Z" style="fill:#6e6d6e;opacity:0.5"/><path d="M92.11,68.51c-0.22,6.69-.34,8.68-2.12,11.91A45.56,45.56,0,0,0,92.11,68.51Z" style="fill:#6e6d6e;opacity:0.5"/><path d="M81.37,75.79c-0.22,6.69-.34,8.68-2.12,11.91A45.56,45.56,0,0,0,81.37,75.79Z" style="fill:#6e6d6e;opacity:0.5"/><path d="M86.68,72.48c-0.55,3.78.52,6.28-1.49,10.74A95,95,0,0,0,86.68,72.48Z" style="fill:#6e6d6e;opacity:0.5"/><ellipse cx="60.38" cy="41.83" rx="2.46" ry="3.81" style="fill:#281711"/><ellipse cx="84.04" cy="41.83" rx="2.46" ry="3.81" style="fill:#281711"/><ellipse cx="84.23" cy="39.29" rx="0.55" ry="0.85" style="fill:#fff"/><ellipse cx="60.38" cy="39.29" rx="0.55" ry="0.85" style="fill:#fff"/><path d="M95,36.48s-15.51-.3-19.94.81c-1,.24-1.4,1.27-3.8,1.24s-2.85-1-3.8-1.22c-4.44-1.08-19.94-.68-19.94-0.68A6.91,6.91,0,0,0,47.71,39a3.45,3.45,0,0,1,1.35,2.07c0.19,1,.62,4.38,1.59,5.08,2.47,1.79,13.74,1.91,15.26,1,1.68-1,3-5.47,3.93-6.32a3.23,3.23,0,0,1,3,0c1,0.84,2.28,5.31,4,6.3C78.28,48,89.55,47.85,92,46c1-.7,1.37-4.14,1.56-5.09a3.46,3.46,0,0,1,1.33-2.08l3.74-4,1.68-2.23ZM64.51,46.32c-3.72,1-12.57-.22-13.24-1.2-0.92-1.34-1.3-6.17-.1-7,0.27-.18,14.4-0.79,15.91,1S65.81,46,64.51,46.32ZM91.34,45c-0.66,1-9.49,2.25-13.2,1.28-1.3-.34-4.2-5.21-2.61-7.14S91.12,37.85,91.39,38C92.6,38.83,92.24,43.66,91.34,45Z" style="fill:#42190d"/><path d="M117,396.12c-0.14-1.56.62-20.61,0-28.79,0-14.94,4.47-90,6.07-93,0,0,2.37-6.76,2.37-8.67,0-11.37-8.39-27.07-8.43-38.12-25.28.37-84.48,0-84.48,0s-8.09,23.7-8.17,38c0,1.07,3.35,7.85,3.35,7.85,2.4,10.89,11.49,75,12.38,87.32,1.73,23.85,4.39,95.81,4.39,101.25l-1.68,8.73-1.24,9.21,2.28,3.23C65.24,487.51,73.15,485,73.15,485s-2.92-78-3.26-85.54c-0.81-17.94-1.1-26.89-1.1-40.26,0-16.64-.64-76.18.37-88,0,0,9.26,3.71,10.11,5.15,1,1.65,8.74,71.07,8.51,79.2-0.06,2.21.57,29.3,0.83,35,0.77,17,1.77,57.2,1.7,67.1l0.6,16.82,0.54,10.77c7.07,1.55,18.24,2.23,19.31,1.76,1.51-.66,10.33-4.74,13.11-7.39,0-.51-4.05-10.62-4.05-10.62C119.17,452,118.58,413,117,396.12Z" style="fill:#262623"/><polygon points="92.29 99.33 71.58 118.64 49.57 99.53 36.83 98.93 72.41 146.95 105.42 93.65 92.29 99.33" style="fill:#c9c9c9"/><path d="M149.34,194.34c-1.34-18.27-7.47-72.95-14.91-81.69-2.78-3.27-13.38-9.19-21.42-14.22-4.43-2.77-8.46-5.27-10.76-6.9a37.19,37.19,0,0,1-3.2-5C96.32,102,88.5,121.64,72.15,121.64S45,97.89,46.08,90.23l-4.92,4.54c-1.77,1.25-4.07,2.78-6.58,4.43-6.66,4.41-16,9.77-19.11,13.46C8,121.4,2.48,177.29,1.14,195.57c-0.81,5,14.33,57.76,17.55,63.14,0.42,0.72,4.91,1,5.23.6a105.26,105.26,0,0,0,10.2-15.63c1.67-2.48,1.87-4.73,1-8.18,6.94,3.64,45.76,14.39,79.68.06-0.86,3.41-.66,5.65,1,8.12a97.55,97.55,0,0,0,10.09,15.83c0.32,0.39,5.8-.06,6.23-0.78C136.56,251.8,149.39,200.52,149.34,194.34ZM26.18,204.74c-0.92-4.53.47-6.42,0.34-7.32-0.08-.56-1.56-1.46-1.64-1.88s1.31-1.38,1.25-2.28c0-.44-1.61-1.33-1.74-1.86a8,8,0,0,1-.16-2.1c1-5.46,2.65-17.62,4.19-26.2,0.37,9.64,2.37,25.36,2.37,31.2,0,9.2-.25,21.62.16,29-1.58-4.65-3-11.66-4.19-15.79C26.56,206.57,26.36,205.64,26.18,204.74Zm99.36-13.34c-0.13.54-1.71,1.43-1.74,1.86-0.06.9,1.37,1.72,1.25,2.28s-1.56,1.32-1.64,1.88c-0.14.9,1.26,2.79,0.34,7.32l-0.57,2.78c-1.09,3.76-2.36,10.34-3.77,14.55-0.4-10.23-1.92-26.3-2-29.82-0.12-9,1.73-26.81,2.5-37.81,1.8,9.67,4.46,27.42,5.77,34.86A8,8,0,0,1,125.54,191.4Z" style="fill:#264426"/><path d="M105.42,93.65h0c-1.24-.8-2.32-1.52-3.16-2.11a37.19,37.19,0,0,1-3.2-5C96.32,102,88.5,121.64,72.15,121.64S45,97.89,46.08,90.23l-4.92,4.54-0.74.51c0.2,1.77,8.29,31.59,31.73,31.59S104.86,94.7,105.42,93.65Z" style="fill:#665422;opacity:0.7000000000000001;mix-blend-mode:screen"/><path d="M48.75,83.58c1.28-1.37,5.55-2,5.55-2a62.93,62.93,0,0,1-1.66,9c-0.94,7.33,10.19,21.14,19,28-0.83-.41-7.85-5.74-8.65-6-3.69,3.9-6.68,11.23-7.88,15.75C51.44,121.69,43.88,109.64,39.14,95,42.53,90.91,46,86.56,48.75,83.58Z" style="fill:#fef6e2"/><path d="M63.88,111.41h0c-6.41-7-11.93-15.54-11.26-20.79a70.14,70.14,0,0,0,1.48-7.39l-3.75,2.84S48.45,97.51,63.88,111.41Z" style="fill:#d6cfab;mix-blend-mode:multiply"/><path d="M97.65,82.55c-0.93-.51-4.48-2-4.48-2a51,51,0,0,0,1.88,9c0.4,6.36-14.39,20.4-23.47,29.16l9.13-6.56a41.7,41.7,0,0,1,8.44,15.36c7.17-10.2,14.35-20.35,19.67-32.64C105.06,90.79,98.33,82.93,97.65,82.55Z" style="fill:#fef6e2"/><path d="M97,84.37l-3.79-3.21v0h0a50.07,50.07,0,0,0,1.8,8.3c0.26,4.16-6,11.62-12.89,18.73h0C100.62,92.17,97,84.37,97,84.37Z" style="fill:#d6cfab;opacity:0.7000000000000001;mix-blend-mode:multiply"/><path d="M33.8,243.52c-1.17,8.21-3.62,13.78-9.1,21.48-0.52-.71-3.53-5.44-3.53-5.6C28.61,252.87,33.8,243.52,33.8,243.52Z" style="fill:#f6b284"/><path d="M115.79,243.68c0,6.61,3.16,14,9,20.74l4-5.5A53.4,53.4,0,0,1,115.79,243.68Z" style="fill:#f6b284"/></g></svg>