<svg xmlns="http://www.w3.org/2000/svg" viewBox="0 0 131.33 276.8"><title>img-30-person-pants</title><path d="M1632.79,605.25l-26.1,7.17-0.7,10.17c4.7,4.18,33.33,12.6,34.55,13.1,1.91,0.77,17.41-.12,20.17-2,1.2-.82,2.4-6.77.73-7.41C1654.62,622.62,1638.63,621.81,1632.79,605.25Z" transform="translate(-1530.94 -359.17)" style="fill:#392713"/><path d="M1561,605.25l26.1,7.17,0.7,10.17c-4.7,4.18-33.33,12.6-34.55,13.1-1.91.77-17.41-.12-20.17-2-1.2-.82-3.1-6.05-1.43-6.7C1538.44,623.33,1555.12,621.81,1561,605.25Z" transform="translate(-1530.94 -359.17)" style="fill:#392713"/><path d="M1632.79,602.46l-26.1,7.17-0.7,10.17c4.7,4.18,33.33,12.6,34.55,13.1,1.91,0.77,17.41-.12,20.17-2,1.2-.82,2.4-4,0.73-4.63C1654.62,622.62,1638.63,619,1632.79,602.46Z" transform="translate(-1530.94 -359.17)" style="fill:#3f2b16"/><path d="M1561,602.46l26.1,7.17,0.7,10.17c-4.7,4.18-33.33,12.6-34.55,13.1-1.91.77-17.41-.12-20.17-2-1.2-.82-2.4-4-0.73-4.63C1539.13,622.62,1555.12,619,1561,602.46Z" transform="translate(-1530.94 -359.17)" style="fill:#3f2b16"/><path d="M1631.76,528c-0.14-1.56.62-20.64,0-28.83,0-15,4.48-90.17,6.08-93.14,0,0,2.38-6.77,2.37-8.68,0-11.38-8.4-27.11-8.44-38.18-25.32.38-84.6,0-84.6,0s-8.1,23.74-8.18,38.1c0,1.07,3.36,7.86,3.36,7.86,2.41,10.9,11.51,75.13,12.4,87.45,1.73,23.89,4.4,95.95,4.4,101.39l-1.68,8.74-1.24,9.22,2.29,3.23c21.38,4.35,29.31,1.84,29.31,1.84s-2.92-78.09-3.27-85.67c-0.81-18-1.1-26.93-1.1-40.32,0-16.66-.65-66,0.37-77.85,0,0,9.27,2.44,10.13,3.88,1,1.65,8.75,62.2,8.52,70.34-0.06,2.22.57,29.35,0.83,35.09,0.77,17,1.77,57.28,1.71,67.19l0.6,16.84,0.54,10.79c7.08,1.55,18.26,2.23,19.34,1.77,1.51-.66,10.34-4.75,13.12-7.4,0-.51-4.06-10.64-4.06-10.64C1633.89,584,1633.29,544.89,1631.76,528Z" transform="translate(-1530.94 -359.17)" style="fill:#67491c"/></svg>