<svg xmlns="http://www.w3.org/2000/svg" viewBox="0 0 305.58 236.1"><title>img-30-desk</title><polygon points="280.56 110.84 39.35 109.91 39.35 209.44 301.04 209.44 280.56 110.84" style="opacity:0.05"/><polygon points="291.58 235.87 0 236.1 28.73 209.2 305.57 209.44 291.58 235.87" style="opacity:0.05"/><polygon points="35.89 211.44 12.28 231.65 12.28 125.79 35.89 105.58 35.89 211.44" style="fill:#313131"/><rect x="3.04" y="125.79" width="9.24" height="105.86" style="fill:#4a494a"/><rect x="3.04" y="115.73" width="268.42" height="12.17" style="fill:#4a494a"/><rect x="193.3" y="115.72" width="78.14" height="115.92" style="fill:#4a494a"/><polygon points="271.45 115.73 3.04 115.73 28.32 100.5 280.56 100.5 271.45 115.73" style="fill:#3d3d3d"/><polygon points="280.56 216.42 271.45 231.65 271.45 115.73 280.56 100.5 280.56 216.42" style="fill:#313131"/><line x1="193.3" y1="127.89" x2="271.45" y2="127.89" style="fill:none;stroke:#313131;stroke-miterlimit:10;stroke-width:1.08760499954224px"/><line x1="193.3" y1="231.64" x2="271.45" y2="231.64" style="fill:none;stroke:#313131;stroke-miterlimit:10;stroke-width:1.08760499954224px"/><line x1="193.3" y1="197.06" x2="271.45" y2="197.06" style="fill:none;stroke:#313131;stroke-miterlimit:10;stroke-width:0.543802499771118px"/><line x1="193.3" y1="162.48" x2="271.45" y2="162.48" style="fill:none;stroke:#313131;stroke-miterlimit:10;stroke-width:0.543802499771118px"/><line x1="221.13" y1="169.2" x2="243.62" y2="169.2" style="fill:none;stroke:#a5a4a4;stroke-miterlimit:10;stroke-width:0.291735183455643px"/><line x1="221.13" y1="202.95" x2="243.62" y2="202.95" style="fill:none;stroke:#a5a4a4;stroke-miterlimit:10;stroke-width:0.291735183455643px"/><line x1="221.13" y1="134.62" x2="243.62" y2="134.62" style="fill:none;stroke:#a5a4a4;stroke-miterlimit:10;stroke-width:0.291735183455643px"/><rect x="88.5" width="125.57" height="84.85" rx="4" ry="4" style="fill:#cfcece"/><polygon points="134.23 79.59 126.07 98.74 172.02 98.74 165.78 78.2 134.23 79.59" style="fill:#c1c1c0"/><rect x="85.24" width="125.57" height="84.85" rx="4" ry="4"/><path d="M1330.5,387.1l3.86-6.24h44l1.36,6.42c0.28,0.92-1.1,1.84-2.05,1.84h-45.89A1.42,1.42,0,0,1,1330.5,387.1Z" transform="translate(-1207.03 -285.09)" style="fill:#b2b3b3"/><rect x="89.55" y="4.53" width="116.94" height="75.79" style="fill:#77cdd1"/><polygon points="116.69 105.58 106.54 113.78 160.72 113.68 168.9 105.58 116.69 105.58" style="fill:#e2e2e2"/><path d="M1379.59,391.24l-4.08,3.69a2.23,2.23,0,0,0,1.52,3.89l5.31,0a2.23,2.23,0,0,0,1.55-.65l3.68-3.64a2.23,2.23,0,0,0-1.57-3.82h-4.91A2.23,2.23,0,0,0,1379.59,391.24Z" transform="translate(-1207.03 -285.09)" style="fill:#e2e2e2"/><polygon points="108.12 112.5 106.54 113.78 160.72 113.68 161.82 112.59 108.12 112.5" style="fill:#c1c1c0"/></svg>