<svg xmlns="http://www.w3.org/2000/svg" viewBox="0 0 151.76 151.76"><title>img-20-poster</title><polygon points="77.13 77.13 151.76 77.13 151.76 151.76 77.13 151.76 77.13 77.13 77.13 77.13" style="fill:#d1d3d4;fill-rule:evenodd"/><path d="M767.26,311c16.84,0,30.49,2.33,30.49,5.2s-13.65,5.2-30.49,5.2-30.49-2.33-30.49-5.2,13.65-5.2,30.49-5.2h0Z" transform="translate(-655.94 -186.91)" style="fill:#939598;fill-rule:evenodd"/><polygon points="0 77.13 74.64 77.13 74.64 151.76 0 151.76 0 77.13 0 77.13" style="fill:#ecc78c;fill-rule:evenodd"/><polygon points="77.13 0 151.76 0 151.76 74.64 77.13 74.64 77.13 0 77.13 0" style="fill:#add7cf;fill-rule:evenodd"/><path d="M766.72,234.1c16.59,0,30,2.45,30,5.47s-13.45,5.47-30,5.47-30-2.45-30-5.47,13.45-5.47,30-5.47h0Z" transform="translate(-655.94 -186.91)" style="fill:#81a29e;fill-rule:evenodd"/><polygon points="0 0 74.64 0 74.64 74.64 0 74.64 0 0 0 0" style="fill:#d27627;fill-rule:evenodd"/><path d="M690.15,233.61c14.78,0,26.76,2.33,26.76,5.2s-12,5.2-26.76,5.2-26.76-2.33-26.76-5.2,12-5.2,26.76-5.2h0Z" transform="translate(-655.94 -186.91)" style="fill:#9d5717;fill-rule:evenodd"/><path d="M689.62,312.84c14.78,0,26.76,2.33,26.76,5.2s-12,5.2-26.76,5.2-26.76-2.33-26.76-5.2,12-5.2,26.76-5.2h0Z" transform="translate(-655.94 -186.91)" style="fill:#af966a;fill-rule:evenodd"/><path d="M677,237.43v1.94a0.93,0.93,0,0,1-.93.93h-3.7a1.55,1.55,0,0,1-1.54-1.54V224.33a7,7,0,0,1,2.15-2.55,17.3,17.3,0,0,1,1.4-2.68l-1-1.26c-1.39.59-3.69-.1-3.69-1.11,0-1.46,4.71-2.13,4.71-.44a1.8,1.8,0,0,1-.12.68l0.86,1.05c0.22-.3.45-0.61,0.69-0.93,2.28-3.89,3.71-6,5.74-7.82,1.37-1.24,8.06-1.09,11.69-1.12s10.32-.12,11.69,1.12c2,1.84,3.46,3.93,5.74,7.82,0.24,0.32.47,0.63,0.69,0.93l0.86-1.05a1.8,1.8,0,0,1-.12-0.68c0-1.69,4.71-1,4.71.44,0,1-2.31,1.7-3.69,1.11l-1,1.26a17.31,17.31,0,0,1,1.4,2.68,7,7,0,0,1,2.15,2.55v14.42a1.55,1.55,0,0,1-1.54,1.54h-3.7a0.93,0.93,0,0,1-.93-0.93v-1.94h-2.87c-2.34,0-2.93-1.24-5.16-1.24H685.05c-2.23,0-2.82,1.24-5.16,1.24H677Z" transform="translate(-655.94 -186.91)" style="fill:#add7cf;fill-rule:evenodd"/><path d="M680.32,228.67a16.37,16.37,0,0,1-7.42-1.87v-3.24a9.45,9.45,0,0,1,1.13-1c1.12,0,4.42.4,6.29,6.1h0Z" transform="translate(-655.94 -186.91)" style="fill:#547f8f;fill-rule:evenodd"/><path d="M693.26,209.41c-1.18,0-3.6,0-4.78,0a38.67,38.67,0,0,0-4.06.25,6.61,6.61,0,0,0-2,.51,28.22,28.22,0,0,0-5,6.73h31.79a28.22,28.22,0,0,0-5-6.73,6.61,6.61,0,0,0-2-.51,38.67,38.67,0,0,0-4.06-.25c-1.18,0-3.6,0-4.78,0h0Z" transform="translate(-655.94 -186.91)" style="fill:#00192c;fill-rule:evenodd"/><path d="M696.88,210.67l1.13,0a37.2,37.2,0,0,1,3.93.24,8.58,8.58,0,0,1,1.45.29,22.13,22.13,0,0,1,3.56,4.48H694l2.9-5h0Z" transform="translate(-655.94 -186.91)" style="fill:#e6e7e8;fill-rule:evenodd"/><path d="M693.26,236.19v-1.24H688c-4.08,0-5.7-.57-6-2h11.31v-16h-15.9a28.22,28.22,0,0,1,5-6.73,6.61,6.61,0,0,1,2-.51,38.67,38.67,0,0,1,4.06-.25c1.18,0,3.6,0,4.78,0v-1.25c-3.63,0-10.32-.12-11.69,1.12-2,1.84-3.46,3.93-5.74,7.82-0.24.32-.47,0.63-0.69,0.93L674.27,217a1.8,1.8,0,0,0,.12-0.68c0-1.69-4.71-1-4.71.44,0,1,2.31,1.7,3.69,1.11l1,1.26a17.3,17.3,0,0,0-1.4,2.68,7,7,0,0,0-2.15,2.55v14.42a1.55,1.55,0,0,0,1.54,1.54h3.7a0.93,0.93,0,0,0,.93-0.93v-1.94h2.87c2.34,0,2.93-1.24,5.16-1.24h8.21Zm-19.69-1h5.74c1.77,0-.07-2.62-1.54-2.92l-4.42-.9a0.33,0.33,0,0,0-.32.32l-0.62,2.39c-0.24.94,0.52,1.1,1.16,1.1h0Z" transform="translate(-655.94 -186.91)" style="fill:#547f8f;fill-rule:evenodd"/><polygon points="51.97 30.03 53.22 30.03 56.55 35.65 50.26 41.76 51.97 30.03 51.97 30.03" style="fill:#547f8f;fill-rule:evenodd"/><path d="M709.5,237.43h6.17v1.32a1.55,1.55,0,0,1-1.54,1.54h-3.7a0.93,0.93,0,0,1-.93-0.93v-1.94h0Z" transform="translate(-655.94 -186.91)" style="fill:#231f20;fill-rule:evenodd"/><path d="M670.86,237.43v1.32a1.55,1.55,0,0,0,1.54,1.54h3.7a0.93,0.93,0,0,0,.93-0.93v-1.94h-6.17Z" transform="translate(-655.94 -186.91)" style="fill:#231f20;fill-rule:evenodd"/><path d="M674.82,234.61h5.74c1.77,0-.07-2.62-1.54-2.92l-4.42-.9a0.33,0.33,0,0,0-.32.32l-0.62,2.39c-0.24.94,0.52,1.1,1.16,1.1h0Z" transform="translate(-655.94 -186.91)" style="fill:#00192c;fill-rule:evenodd"/><path d="M711.7,234.61H706c-1.77,0,.07-2.62,1.54-2.92l4.42-.9a0.33,0.33,0,0,1,.32.32l0.62,2.39c0.24,0.94-.52,1.1-1.16,1.1h0Z" transform="translate(-655.94 -186.91)" style="fill:#00192c;fill-rule:evenodd"/><path d="M693.26,232.9H682c0.31,1.48,1.93,2,6,2h10.6c4.08,0,5.7-.57,6-2H693.26Z" transform="translate(-655.94 -186.91)" style="fill:#00192c;fill-rule:evenodd"/><path d="M693.26,231.66a81.76,81.76,0,0,1-22.4-2.67v8.45h9c2.34,0,2.93-1.24,5.16-1.24h8.21v-0.62H688c-4.08,0-5.7-1.19-6-2.67h11.31v-1.24h0Zm-19.69,3.58h5.74c1.77,0-.07-2.62-1.54-2.92l-4.42-.9a0.33,0.33,0,0,0-.32.32l-0.62,2.39c-0.24.94,0.52,1.1,1.16,1.1h0Z" transform="translate(-655.94 -186.91)" style="fill:#365864;fill-rule:evenodd"/><path d="M693.26,231.66a81.76,81.76,0,0,0,22.4-2.67v8.45h-9c-2.34,0-2.93-1.24-5.16-1.24h-8.21v-0.62h5.3c4.08,0,5.7-1.19,6-2.67H693.26v-1.24h0Zm19.69,3.58h-5.74c-1.77,0,.07-2.62,1.54-2.92l4.42-.9a0.33,0.33,0,0,1,.32.32l0.62,2.39c0.24,0.94-.52,1.1-1.16,1.1h0Z" transform="translate(-655.94 -186.91)" style="fill:#547f8f;fill-rule:evenodd"/><path d="M683.22,228.89H703.3a1.55,1.55,0,0,1,1.54,1.53,111.13,111.13,0,0,1-23.16,0,1.55,1.55,0,0,1,1.54-1.53h0Z" transform="translate(-655.94 -186.91)" style="fill:#00192c;fill-rule:evenodd"/><path d="M706.2,228.67a16.37,16.37,0,0,0,7.42-1.87v-3.24a9.45,9.45,0,0,0-1.13-1h-5.4l-0.89,6.1h0Z" transform="translate(-655.94 -186.91)" style="fill:#fff;fill-rule:evenodd"/><path d="M706.2,228.67a16.37,16.37,0,0,0,7.42-1.87v-3.24l-7.42,5.1h0Z" transform="translate(-655.94 -186.91)" style="fill:#d1d3d4;fill-rule:evenodd"/><polygon points="22.67 30.03 21.42 30.03 18.09 35.65 24.38 41.76 22.67 30.03 22.67 30.03" style="fill:#add7cf;fill-rule:evenodd"/><path d="M680.32,228.67a16.37,16.37,0,0,1-7.42-1.87v-3.24a9.45,9.45,0,0,1,1.13-1h5.4l0.89,6.1h0Z" transform="translate(-655.94 -186.91)" style="fill:#fff;fill-rule:evenodd"/><path d="M680.32,228.67a16.37,16.37,0,0,1-7.42-1.87v-3.24l7.42,5.1h0Z" transform="translate(-655.94 -186.91)" style="fill:#d1d3d4;fill-rule:evenodd"/><path d="M796.16,227.43l0.32-3.25c0.48-4.91-3.15-7.29-6.25-8l0.43-.77,2-.37a1,1,0,0,0,.88-0.88c0-1-1-1.46-2-1.46h-1.29a0.89,0.89,0,0,0-.88.89v2.44c-1.5-3-4.52-7.16-6.28-7.68s-9.67-.65-12.69-0.69-10.91.16-12.69,0.69-4.78,4.71-6.28,7.68v-2.44a0.89,0.89,0,0,0-.88-0.89h-1.29c-1,0-2,.49-2,1.46a1,1,0,0,0,.88.88l2,0.37,0.43,0.77c-3.09.68-6.73,3.06-6.25,8l0.32,3.25v10.86a2.5,2.5,0,0,0,2.49,2.49h6a1.5,1.5,0,0,0,1.49-1.49V238.6l15.82,0.78,15.82-.78v0.69a1.5,1.5,0,0,0,1.49,1.49h6a2.5,2.5,0,0,0,2.49-2.49V227.43h0Z" transform="translate(-655.94 -186.91)" style="fill:#c6381f;fill-rule:evenodd"/><path d="M796.16,227.43l0.32-3.25a7,7,0,0,0-4.59-7.45c2.12,1,3,2.92,3,5.41v15.13l1.3-1.66v-8.19h0Z" transform="translate(-655.94 -186.91)" style="fill:#f8eede;fill-rule:evenodd"/><path d="M744.57,221.13a7.57,7.57,0,0,0-.28,3.06l0.32,3.25v10.86a2.5,2.5,0,0,0,2.49,2.49h6a1.5,1.5,0,0,0,1.49-1.49V238.6l15.82,0.78V238l-14.7-3,14.7,1.76v-6.57l-21-3.91,21,2.67v-6.13l-25.81-1.68h0Z" transform="translate(-655.94 -186.91)" style="fill:#961b1e;fill-rule:evenodd"/><path d="M786.21,238.6v0.69a1.5,1.5,0,0,0,1.49,1.49h6a2.5,2.5,0,0,0,2.49-2.49v-2.67l-2,2.59-7.93.39h0Z" transform="translate(-655.94 -186.91)" style="fill:#231f20;fill-rule:evenodd"/><polygon points="114.44 46.3 137.4 43.72 133.75 47.94 134.25 45.19 130.91 45.56 129.14 48.09 114.44 49.84 99.74 48.09 97.98 45.56 94.64 45.19 95.63 47.94 91.48 43.72 114.44 46.3 114.44 46.3" style="fill:#341212;fill-rule:evenodd"/><path d="M770.38,223.94l23.24-1.69V224a2.34,2.34,0,0,1-2.22,2.22l-21,2.67-21-2.67a2.34,2.34,0,0,1-2.22-2.22v-1.8l23.24,1.69h0Z" transform="translate(-655.94 -186.91)" style="fill:#551712;fill-rule:evenodd"/><path d="M748.39,222.34V224a1.14,1.14,0,0,0,1.13,1l4.4,0.56v-2.85l-5.53-.4h0Zm6.77,3.41,7,0.89-1.13-3.38-5.89-.43v2.92h0Zm23.42,0.89,7-.89v-2.92l-5.89.43-1.13,3.38h0Zm8.26-1,4.4-.56a1.14,1.14,0,0,0,1.13-1v-1.71l-5.53.4v2.85h0Z" transform="translate(-655.94 -186.91)" style="fill:#fff;fill-rule:evenodd"/><path d="M748.39,222.34v1.25l5.53,0.4v-1.25l-5.53-.4h0Zm44,1.25-5.53.4v-1.25l5.53-.4v1.25h0Zm-6.77.49-6.32.46,0.43-1.28,5.89-.43v1.25h0Zm-24.12.46-6.32-.46v-1.25l5.89,0.43,0.43,1.28h0Z" transform="translate(-655.94 -186.91)" style="fill:#a7a9ac;fill-rule:evenodd"/><polygon points="106.56 27.98 122.33 27.98 120.53 42.14 114.44 43.27 108.36 42.14 106.56 27.98 106.56 27.98" style="fill:#df9375;fill-rule:evenodd"/><path d="M759.93,216L764.3,229l-1.8-14.16c-1.23,0-1.34,1.11-2.57,1.11h0Z" transform="translate(-655.94 -186.91)" style="fill:#961b1e;fill-rule:evenodd"/><path d="M770.38,208.81c1.6,0,4.31.06,5.91,0.11,1.34,0,2.69.1,4,.2,0.51,0,1,.08,1.54.15a6,6,0,0,1,.89.16c1.1,0.33,3.15,3.13,3.79,4.07a28.72,28.72,0,0,1,1.52,2.49h-7.23c-1.23,0-1.34-1.11-2.57-1.11H762.5c-1.23,0-1.34,1.11-2.57,1.11H752.7a28.75,28.75,0,0,1,1.52-2.49c0.64-.94,2.69-3.74,3.79-4.07a6,6,0,0,1,.89-0.16c0.51-.07,1-0.11,1.54-0.15,1.34-.1,2.69-0.16,4-0.2,1.6-.05,4.31-0.09,5.91-0.11h0Z" transform="translate(-655.94 -186.91)" style="fill:#00192c;fill-rule:evenodd"/><path d="M772.6,209.94c1.22,0,2.44,0,3.66.08s2.66,0.1,4,.2c0.49,0,1,.08,1.48.14a4.72,4.72,0,0,1,.71.12,7.66,7.66,0,0,1,1.62,1.55,25.74,25.74,0,0,1,1.58,2.08l0.5,0.76h-5.29a0.88,0.88,0,0,1-.58-0.3,2.88,2.88,0,0,0-2-.81h-7.88l2.21-3.83h0Z" transform="translate(-655.94 -186.91)" style="fill:#e6e7e8;fill-rule:evenodd"/><path d="M744.61,227.43l-0.32-3.25a7,7,0,0,1,4.59-7.45c-2.12,1-3,2.92-3,5.41v15.29l-1.29-1.62v2.4h0V227.43h0Z" transform="translate(-655.94 -186.91)" style="fill:#551712;fill-rule:evenodd"/><path d="M744.61,238.29a2.5,2.5,0,0,0,2.49,2.49h6a1.5,1.5,0,0,0,1.49-1.49V238.6l-7.93-.25-2-2.54v2.48h0Z" transform="translate(-655.94 -186.91)" style="fill:#231f20;fill-rule:evenodd"/><polygon points="114.44 42.03 114.44 42.77 114.44 43.27 135.46 39.36 114.44 42.03 114.44 42.03" style="fill:#df9375;fill-rule:evenodd"/><path d="M780.84,216L776.47,229l1.8-14.16c1.23,0,1.34,1.11,2.57,1.11h0Z" transform="translate(-655.94 -186.91)" style="fill:#f8eede;fill-rule:evenodd"/><polygon points="114.44 43.27 108.36 42.14 106.56 27.98 114.44 27.98 114.44 43.27 114.44 43.27" style="fill:#c6381f;fill-rule:evenodd"/><path d="M710.2,294.85q0.33,0.12.63,0.26V293a2.42,2.42,0,1,1,2.36,1.9,2.79,2.79,0,0,1-1.26-.29v1.1a8.18,8.18,0,0,1,3.2,6.94v14.1A2.11,2.11,0,0,1,713,318.9h-5.09a1.51,1.51,0,0,1-1.51-1.51v-0.69h-3.88c-1.77,0-1.43-1.1-3-1.1H686.94c-1.54,0-1.2,1.1-3,1.1h-3.88v0.69a1.51,1.51,0,0,1-1.51,1.51h-5.09a2.11,2.11,0,0,1-2.11-2.11v-14.1a8.18,8.18,0,0,1,3.2-6.94v-1.1a2.79,2.79,0,0,1-1.26.29,1.95,1.95,0,1,1,2.36-1.9v2.07q0.31-.14.63-0.26l3.2-7.8c1-2.38,2.83-3.25,5.2-3.25H701.8c2.37,0,4.22.87,5.2,3.25l3.2,7.8h0Z" transform="translate(-655.94 -186.91)" style="fill:#004b3e;fill-rule:evenodd"/><path d="M673.61,298.64a8.16,8.16,0,0,0-1,4.06c0.16,1.24,2.92,1.24,3.71,1.24h3.2c0-4.52-3.28-5.23-5.92-5.3h0Z" transform="translate(-655.94 -186.91)" style="fill:#fff;fill-rule:evenodd"/><path d="M674.23,300c-0.17,3,1.68,3.43,4.65,3.27a5.25,5.25,0,0,0-.26-1.3h0a2.65,2.65,0,0,1-4.4-2h0Z" transform="translate(-655.94 -186.91)" style="fill:#58595b;fill-rule:evenodd"/><path d="M710.2,294.85q0.33,0.12.63,0.26V293a2.42,2.42,0,1,1,2.36,1.9,2.79,2.79,0,0,1-1.26-.29v1.1a8.18,8.18,0,0,1,3.2,6.94v14.1A2.11,2.11,0,0,1,713,318.9h-5.09a1.51,1.51,0,0,1-1.51-1.51v-0.69h-3.88c-1.77,0-1.43-1.1-3-1.1h-6.32V283.8h8.54c2.37,0,4.22.87,5.2,3.25l3.2,7.8h0Z" transform="translate(-655.94 -186.91)" style="fill:#307d6d;fill-rule:evenodd"/><path d="M693.26,293.94l14.16,0.4a9.63,9.63,0,0,1,1.45.15l-2.33-5.92c-0.78-1.9-2.19-2.56-4.18-2.56H684.16c-2,0-3.4.66-4.18,2.56l-2.33,5.92a9.63,9.63,0,0,1,1.45-.15l14.16-.4h0Z" transform="translate(-655.94 -186.91)" style="fill:#00192c;fill-rule:evenodd"/><path d="M693.26,312.64h15.56a1.39,1.39,0,0,1,2.64-.85,1.38,1.38,0,0,0,.11-0.55,1.4,1.4,0,0,0-1.39-1.39h-2.06a8.59,8.59,0,0,0-.26-1.1h2.32a2.5,2.5,0,0,1,2.5,2.5h0a2.5,2.5,0,0,1-2.46,2.5H676.3a2.5,2.5,0,0,1-2.46-2.5h0a2.5,2.5,0,0,1,2.5-2.5h2.29a8.27,8.27,0,0,0-.26,1.1h-2a1.4,1.4,0,0,0-1.39,1.39,1.38,1.38,0,0,0,.11.55,1.39,1.39,0,0,1,2.64.85h15.56Z" transform="translate(-655.94 -186.91)" style="fill:#e6e7e8;fill-rule:evenodd"/><path d="M693.26,313.74h-17a2.5,2.5,0,0,1-2.46-2.5h0a2.5,2.5,0,0,1,2.5-2.5h2.29a8.27,8.27,0,0,0-.26,1.1h-2a1.4,1.4,0,0,0-1.39,1.39,1.38,1.38,0,0,0,.11.55,1.39,1.39,0,0,1,2.64.85h15.56v1.1h0Z" transform="translate(-655.94 -186.91)" style="fill:#a7a9ac;fill-rule:evenodd"/><path d="M708.82,312.64a1.39,1.39,0,0,1,2.64-.85,1.38,1.38,0,0,0,.09-0.31,1.4,1.4,0,0,1-1.37,1.15h-1.36Zm2.74-1.61a1.41,1.41,0,0,0-1.17-1.17,1.4,1.4,0,0,1,1.17,1.17h0Z" transform="translate(-655.94 -186.91)" style="fill:#f05123;fill-rule:evenodd"/><path d="M690.49,305.51h-7c-2.62,0-4.17,3.71-4,5.89H692l0-.26v-3c0-1.29.1-2.68-1.53-2.68h0Z" transform="translate(-655.94 -186.91)" style="fill:#90aea6;fill-rule:evenodd"/><path d="M680.78,311.4H692l0-.26v-3a9.38,9.38,0,0,0-.06-1.43h-7.83c-1.88,0-3.26,2-3.35,4.65h0Z" transform="translate(-655.94 -186.91)" style="fill:#231f20;fill-rule:evenodd"/><path d="M671.38,313v3.81a2.12,2.12,0,0,0,2.11,2.11h5.09a1.51,1.51,0,0,0,1.51-1.51v-0.69c-2.49,0-3.75,0-3.75-1.24h-2.46a2.39,2.39,0,0,1-2.49-2.49h0Z" transform="translate(-655.94 -186.91)" style="fill:#231f20;fill-rule:evenodd"/><path d="M693.26,292.87l3.31-5.76h5.79c1.53,0,2.55.4,3.16,1.87l1.67,4.25-13.92-.36h0Z" transform="translate(-655.94 -186.91)" style="fill:#d1d3d4;fill-rule:evenodd"/><path d="M715.14,313v3.81A2.12,2.12,0,0,1,713,318.9h-5.09a1.51,1.51,0,0,1-1.51-1.51v-0.69c2.49,0,3.75,0,3.75-1.24h2.46a2.39,2.39,0,0,0,2.49-2.49h0Z" transform="translate(-655.94 -186.91)" style="fill:#231f20;fill-rule:evenodd"/><path d="M696,305.51h7c2.62,0,4.17,3.71,4,5.89H694.5l0-.26v-3c0-1.29-.1-2.68,1.53-2.68h0Z" transform="translate(-655.94 -186.91)" style="fill:#90aea6;fill-rule:evenodd"/><path d="M705.72,311.4H694.5l0-.26v-3a9.38,9.38,0,0,1,.06-1.43h7.83c1.88,0,3.26,2,3.35,4.65h0Z" transform="translate(-655.94 -186.91)" style="fill:#231f20;fill-rule:evenodd"/><path d="M677.7,312.64a1.39,1.39,0,0,0-2.64-.85,1.37,1.37,0,0,1-.09-0.31,1.4,1.4,0,0,0,1.37,1.15h1.36ZM675,311a1.41,1.41,0,0,1,1.17-1.17A1.4,1.4,0,0,0,675,311h0Z" transform="translate(-655.94 -186.91)" style="fill:#f05123;fill-rule:evenodd"/><path d="M678.63,302a2.65,2.65,0,0,1-4.29-2.73c2.11,0.18,3.68.89,4.29,2.73h0Z" transform="translate(-655.94 -186.91)" style="fill:#bcbec0;fill-rule:evenodd"/><path d="M678.63,302a2.64,2.64,0,0,1-1.19.6,2.71,2.71,0,0,1-1.2-2.41,3.5,3.5,0,0,1,0-.54,3.58,3.58,0,0,1,2.34,2.34h0Z" transform="translate(-655.94 -186.91)" style="fill:#fff;fill-rule:evenodd"/><path d="M712.91,298.64a8.16,8.16,0,0,1,1,4.06c-0.16,1.24-2.92,1.24-3.71,1.24H707c0-4.52,3.28-5.23,5.92-5.3h0Z" transform="translate(-655.94 -186.91)" style="fill:#fff;fill-rule:evenodd"/><path d="M712.29,300c0.17,3-1.68,3.43-4.65,3.27a5.25,5.25,0,0,1,.26-1.3h0a2.65,2.65,0,0,0,4.4-2h0Z" transform="translate(-655.94 -186.91)" style="fill:#58595b;fill-rule:evenodd"/><path d="M707.89,302a2.65,2.65,0,0,0,4.29-2.73c-2.11.18-3.68,0.89-4.29,2.73h0Z" transform="translate(-655.94 -186.91)" style="fill:#fff;fill-rule:evenodd"/><path d="M707.89,302a2.64,2.64,0,0,0,1.19.6,2.71,2.71,0,0,0,1.2-2.41,3.52,3.52,0,0,0,0-.54,3.58,3.58,0,0,0-2.34,2.34h0Z" transform="translate(-655.94 -186.91)" style="fill:#bcbec0;fill-rule:evenodd"/><path d="M701.35,303.64a0.62,0.62,0,0,0,.62.62h0a0.62,0.62,0,0,0,.62-0.62v-2.26a0.62,0.62,0,0,0-.62-0.62h0a0.62,0.62,0,0,0-.62.62v2.26h0Zm-7.46,0a0.62,0.62,0,0,0,.62.62h0a0.62,0.62,0,0,0,.62-0.62v-2.26a0.62,0.62,0,0,0-.62-0.62h0a0.62,0.62,0,0,0-.62.62v2.26h0Zm-2.49,0a0.62,0.62,0,0,0,.62.62h0a0.62,0.62,0,0,0,.62-0.62v-2.26a0.62,0.62,0,0,0-.62-0.62h0a0.62,0.62,0,0,0-.62.62v2.26h0Zm-7.46,0a0.62,0.62,0,0,0,.62.62h0a0.62,0.62,0,0,0,.62-0.62v-2.26a0.62,0.62,0,0,0-.62-0.62h0a0.62,0.62,0,0,0-.62.62v2.26h0Zm2.49,0a0.62,0.62,0,0,0,.62.62h0a0.62,0.62,0,0,0,.62-0.62v-2.26a0.62,0.62,0,0,0-.62-0.62h0a0.62,0.62,0,0,0-.62.62v2.26h0Zm2.49,0a0.62,0.62,0,0,0,.62.62h0a0.62,0.62,0,0,0,.62-0.62v-2.26a0.62,0.62,0,0,0-.62-0.62h0a0.62,0.62,0,0,0-.62.62v2.26h0Zm7.46,0a0.62,0.62,0,0,0,.62.62h0a0.62,0.62,0,0,0,.62-0.62v-2.26a0.62,0.62,0,0,0-.62-0.62h0a0.62,0.62,0,0,0-.62.62v2.26h0Zm2.49,0a0.62,0.62,0,0,0,.62.62h0a0.62,0.62,0,0,0,.62-0.62v-2.26a0.62,0.62,0,0,0-.62-0.62h0a0.62,0.62,0,0,0-.62.62v2.26h0Z" transform="translate(-655.94 -186.91)" style="fill:#231f20;fill-rule:evenodd"/><path d="M792.14,295.25c-1.59,0-2.64-2.69-4.65-3.06a9.32,9.32,0,0,0-.45-1.79,5.62,5.62,0,0,0,1.82.27c1.42,0,2.56-.41,2.56-0.91s-1.15-.91-2.56-0.91a4.37,4.37,0,0,0-2.3.51c-1.63-2.94-5.09-4-10-4H764.24c-4.94,0-8.4,1.06-10,4a4.37,4.37,0,0,0-2.3-.51c-1.42,0-2.56.41-2.56,0.91s1.15,0.91,2.56.91a5.62,5.62,0,0,0,1.82-.27,9.32,9.32,0,0,0-.45,1.79c-2,.38-3.06,3.06-4.65,3.06-2.74,0-4.35,2.24-4.35,5-1.84,2.12,0,8.62,0,12.94,0,0.61,0,1.22,0,1.83a2.47,2.47,0,0,0,2.53,2.38h6a1.23,1.23,0,0,0,1.27-1.19v-1h2.3c2.15,0,2.35-1.24,4.58-1.24h18.8c2.23,0,2.43,1.24,4.58,1.24h2.3v1a1.23,1.23,0,0,0,1.27,1.19h6a2.47,2.47,0,0,0,2.53-2.38c0-.61,0-1.24,0-1.83,0-4.31,1.84-10.82,0-12.94,0-2.74-1.62-5-4.35-5h0Z" transform="translate(-655.94 -186.91)" style="fill:#9b95c9;fill-rule:evenodd"/><path d="M770.38,285.34h-6.15c-4.94,0-8.4,1.06-10,4a4.37,4.37,0,0,0-2.3-.51c-1.42,0-2.56.41-2.56,0.91s1.15,0.91,2.56.91a5.62,5.62,0,0,0,1.82-.27,9.32,9.32,0,0,0-.45,1.79c-2,.38-3.06,3.06-4.65,3.06-2.74,0-4.35,2.24-4.35,5-1.84,2.12,0,8.62,0,12.94,0,0.61,0,1.22,0,1.83a2.47,2.47,0,0,0,2.53,2.38h6a1.23,1.23,0,0,0,1.27-1.19v-1h2.3c2.15,0,2.35-1.24,4.58-1.24h9.4V285.34h0Z" transform="translate(-655.94 -186.91)" style="fill:#605878;fill-rule:evenodd"/><path d="M762,297.22l3.71-4.46c-0.91,0-1.2-.62-2.74-0.62l-1,5.08h0Z" transform="translate(-655.94 -186.91)" style="fill:#c7c4e2;fill-rule:evenodd"/><path d="M792.14,295.25c-1.59,0-2.64-2.69-4.65-3.06-3.39,6.57-4.48,8.1-2.39,7,1.22-.61,3.87-3.51,7-4h0Z" transform="translate(-655.94 -186.91)" style="fill:#c7c4e2;fill-rule:evenodd"/><path d="M744.27,312.66c0,0.17,0,.33,0,0.5,0,0.61,0,1.22,0,1.83a2.47,2.47,0,0,0,2.53,2.38h6a1.23,1.23,0,0,0,1.27-1.19v-1h-7.35a2.64,2.64,0,0,1-2.49-2.49h0Z" transform="translate(-655.94 -186.91)" style="fill:#231f20;fill-rule:evenodd"/><path d="M770.38,311.45h8.23c2.28,0,3.63,2.49,6.69,2.49h4.46a3,3,0,0,0,3-3v-1.16a1.22,1.22,0,0,0-1.19-1.19H749.22a1.22,1.22,0,0,0-1.19,1.19V311a2.88,2.88,0,0,0,3,3h4.46c3.06,0,4.41-2.49,6.69-2.49h8.23Z" transform="translate(-655.94 -186.91)" style="fill:#e0def0;fill-rule:evenodd"/><path d="M791.49,308.62H749.28c0,0.54,0,1.24,0,1.24V311a1.66,1.66,0,0,0,1.59,1.73h4.6c2.57,0,4-1.87,6.69-1.87h16.45c2.71,0,4.12,1.87,6.69,1.87h4.46a1.74,1.74,0,0,0,1.73-1.73v-2.35h0Z" transform="translate(-655.94 -186.91)" style="fill:#231f20;fill-rule:evenodd"/><path d="M770.38,304.69H758.32L756,305.86c-2,1-4.71-.39-6.9-1-1.5-.4-3.9-2.64-4-4.5l1.72,0.16,10.83,0.59h25.41l10.83-.59,1.72-.16c-0.11,1.86-2.51,4.11-4,4.5-2.19.58-4.88,2-6.9,1l-2.28-1.17H770.38Z" transform="translate(-655.94 -186.91)" style="fill:#e0def0;fill-rule:evenodd"/><path d="M770.38,303.44H758.65c-1.3,0-3.48,2.05-4.75,1.68l-4.29-1.26a3.74,3.74,0,0,1-2.75-3.31l10.83,0.59h25.41l10.83-.59a3.74,3.74,0,0,1-2.75,3.31l-4.29,1.26c-1.27.37-3.45-1.68-4.75-1.68H770.38Z" transform="translate(-655.94 -186.91)" style="fill:#231f20;fill-rule:evenodd"/><path d="M746.86,300.55l10.83,0.59-2.4,2c-1.72,1.41-7.5-2.11-8.43-2.55h0Z" transform="translate(-655.94 -186.91)" style="fill:#fff;fill-rule:evenodd"/><path d="M770.38,286.59h6.15c2.6,0,6.18.27,8.12,2.25a6.12,6.12,0,0,1,1.57,3.3h-8.38c-1.53,0-1.83.62-2.74,0.62h-9.43c-0.91,0-1.2-.62-2.74-0.62h-8.38a6.12,6.12,0,0,1,1.57-3.3c1.94-2,5.51-2.25,8.12-2.25h6.15Z" transform="translate(-655.94 -186.91)" style="fill:#00192c;fill-rule:evenodd"/><path d="M770.38,291.52l3.73-3.68h2.41c2.21,0,5.59.2,7.23,1.88a4.06,4.06,0,0,1,.8,1.19h-6.72a5.24,5.24,0,0,0-1.64.24c-0.29.1-.56,0.23-0.85,0.33a0.7,0.7,0,0,1-.25,0h-4.72Z" transform="translate(-655.94 -186.91)" style="fill:#e6e7e8;fill-rule:evenodd"/><path d="M796.5,312.66c0,0.17,0,.33,0,0.5,0,0.61,0,1.22,0,1.83a2.47,2.47,0,0,1-2.53,2.38h-6a1.23,1.23,0,0,1-1.27-1.19v-1H794a2.64,2.64,0,0,0,2.49-2.49h0Z" transform="translate(-655.94 -186.91)" style="fill:#231f20;fill-rule:evenodd"/><path d="M748.63,295.25c1.59,0,2.64-2.69,4.65-3.06,3.39,6.57,4.48,8.1,2.39,7-1.22-.61-3.87-3.51-7-4h0Z" transform="translate(-655.94 -186.91)" style="fill:#3b3559;fill-rule:evenodd"/><path d="M778.81,297.22l-3.71-4.46c0.91,0,1.2-.62,2.74-0.62l1,5.08h0Z" transform="translate(-655.94 -186.91)" style="fill:#605878;fill-rule:evenodd"/><path d="M793.91,300.55l-10.83.59,2.4,2c1.72,1.41,7.5-2.11,8.43-2.55h0Z" transform="translate(-655.94 -186.91)" style="fill:#fff;fill-rule:evenodd"/></svg>