<svg xmlns="http://www.w3.org/2000/svg" viewBox="0 0 62.14 62.14"><title>decade-illustrations</title><circle cx="31.07" cy="31.07" r="30.71" style="opacity:0.1"/><line x1="31.2" y1="31.32" x2="31.2" y2="17.79" style="fill:none;stroke:#fff;stroke-miterlimit:10;stroke-width:0.710769414901733px"/><line x1="31.11" y1="31.02" x2="37.84" y2="36.58" style="fill:none;stroke:#fff;stroke-miterlimit:10;stroke-width:0.710769414901733px"/><polygon points="31.07 11.07 30.03 9.26 28.98 7.46 31.07 7.46 33.16 7.46 32.11 9.26 31.07 11.07" style="fill:#fff"/><circle cx="31.2" cy="53.74" r="0.86" style="fill:#fff"/><circle cx="1453.94" cy="224.87" r="0.86" transform="translate(-1404.22 338.3) rotate(-20)" style="fill:#fff"/><circle cx="1468.41" cy="207.42" r="0.86" transform="translate(-405.84 1444.97) rotate(-80)" style="fill:#fff"/><circle cx="1460.73" cy="220.94" r="0.86" transform="translate(-425.5 1448.57) rotate(-80)" style="fill:#fff"/><circle cx="1465.63" cy="215.05" r="0.86" transform="translate(-415.65 1448.54) rotate(-80)" style="fill:#fff"/><circle cx="1468.37" cy="199.55" r="0.86" transform="translate(-1427.34 85.47) rotate(-10)" style="fill:#fff"/><circle cx="1465.63" cy="192.16" r="0.86" transform="translate(-1314.72 586.02) rotate(-30)" style="fill:#fff"/><circle cx="1460.54" cy="186.16" r="0.86" transform="translate(-1035.88 1012.8) rotate(-50)" style="fill:#fff"/><circle cx="1453.7" cy="182.26" r="0.86" transform="translate(-629.76 1313.42) rotate(-70)" style="fill:#fff"/><circle cx="1438.19" cy="182.35" r="0.86" transform="translate(-1390.63 330.35) rotate(-20)" style="fill:#fff"/><circle cx="1431.59" cy="186.16" r="0.86" transform="translate(-1392.33 328.32) rotate(-20)" style="fill:#fff"/><circle cx="1423.72" cy="199.8" r="0.86" transform="translate(-435.26 1394.65) rotate(-80)" style="fill:#fff"/><circle cx="1425.91" cy="192.16" r="0.86" transform="translate(-425.94 1390.5) rotate(-80)" style="fill:#fff"/><circle cx="1423.76" cy="207.67" r="0.86" transform="translate(-1429.43 77.85) rotate(-10)" style="fill:#fff"/><circle cx="1426.5" cy="215.05" r="0.86" transform="translate(-1331.41 569.52) rotate(-30)" style="fill:#fff"/><circle cx="1431.59" cy="221.05" r="0.86" transform="translate(-1072.95 1003.09) rotate(-50)" style="fill:#fff"/><circle cx="1438.43" cy="224.95" r="0.86" transform="translate(-679.92 1327.16) rotate(-70)" style="fill:#fff"/><circle cx="31.07" cy="31.07" r="30.71" style="fill:none;stroke:#447a3a;stroke-miterlimit:10;stroke-width:0.710769414901733px;opacity:0.5"/></svg>