<svg xmlns="http://www.w3.org/2000/svg" viewBox="0 0 130.12 274.24"><title>img-40-person-pants</title><path d="M2711.52,603.57l-25.86,7.1L2685,620.75c4.65,4.14,33,12.48,34.24,13,1.89,0.76,17.25-.12,20-2,1.19-.81,2.38-6.7.73-7.35C2733.14,620.77,2717.31,620,2711.52,603.57Z" transform="translate(-2610.61 -359.76)" style="fill:#392713"/><path d="M2640.35,603.57l25.86,7.1,0.69,10.08c-4.65,4.14-33,12.48-34.24,13-1.89.76-17.25-.12-20-2-1.19-.81-3.07-6-1.42-6.64C2618,621.48,2634.57,620,2640.35,603.57Z" transform="translate(-2610.61 -359.76)" style="fill:#392713"/><path d="M2711.52,600.81l-25.86,7.1L2685,618c4.65,4.14,33,12.48,34.24,13,1.89,0.76,17.25-.12,20-2,1.19-.81,2.38-3.94.73-4.59C2733.14,620.77,2717.31,617.22,2711.52,600.81Z" transform="translate(-2610.61 -359.76)" style="fill:#3f2b16"/><path d="M2640.35,600.81l25.86,7.1L2666.9,618c-4.65,4.14-33,12.48-34.24,13-1.89.76-17.25-.12-20-2-1.19-.81-2.38-3.94-0.73-4.59C2618.73,620.77,2634.57,617.22,2640.35,600.81Z" transform="translate(-2610.61 -359.76)" style="fill:#3f2b16"/><path d="M2710.5,527c-0.14-1.55.62-20.45,0-28.57,0-14.82,4.44-89.34,6-92.28,0,0,2.36-6.71,2.35-8.6,0-11.28-8.32-26.86-8.37-37.82-25.08.37-83.82,0-83.82,0s-8,23.52-8.1,37.75c0,1.06,3.32,7.79,3.32,7.79,2.38,10.8,11.4,74.43,12.28,86.64,1.72,23.67,4.36,95.06,4.36,100.46l-1.67,8.66-1.23,9.14,2.27,3.2c21.19,4.31,29,1.82,29,1.82s-2.89-77.37-3.24-84.87c-0.81-17.8-1.09-26.68-1.09-39.95,0-16.51-.64-75.58.36-87.29,0,0,9.18,3.68,10,5.11,1,1.64,8.67,70.52,8.44,78.58-0.06,2.2.56,29.08,0.82,34.77,0.77,16.82,1.75,56.75,1.69,66.57l0.59,16.69,0.54,10.69c7,1.53,18.1,2.21,19.16,1.75,1.5-.65,10.25-4.7,13-7.33,0-.5-4-10.54-4-10.54C2712.6,582.51,2712,543.77,2710.5,527Z" transform="translate(-2610.61 -359.76)" style="fill:#262623"/></svg>