<svg xmlns="http://www.w3.org/2000/svg" viewBox="0 0 93.36 44.08"><title>img-40-clock</title><path d="M2562.81,333.43l-2.92-5.39h0l-1.85-3.41h-2.19s-2.92-2.49-3.65-5.39c-8.37,0-14.67-17-14.67-17h0c-3-7.54-10.31-12.47-18.89-12.88-2.32-.11-5,0-5,0s-11.7,7.32-13.89,12.88h0s-6.48,17-14.67,17a11,11,0,0,1-3.65,5.39h-2.19L2476.3,330h0l-1.85,3.41h22.84l1.85-3.41h39l1.85,3.41h22.84Z" transform="translate(-2469.45 -289.35)" style="fill:#4b2e15"/><path d="M2527.37,324.64h23.48s-2.92-2.49-3.65-5.39c-8.37,0-14.67-17-14.67-17h0a20.29,20.29,0,0,0-37.78,0h0s-6.48,17-14.67,17a11,11,0,0,1-3.65,5.39h23.48A20.23,20.23,0,0,0,2527.37,324.64Z" transform="translate(-2469.45 -289.35)" style="fill:#754a27"/><polygon points="65.52 44.08 88.36 44.08 85.44 38.69 85.44 38.69 83.59 35.28 4.77 35.28 1.85 40.67 1.85 40.67 0 44.08 22.84 44.08 24.69 40.67 63.67 40.67 65.52 44.08" style="fill:#684123"/><circle cx="44.18" cy="20.36" r="16.37" style="fill:#684123"/><circle cx="44.18" cy="20.36" r="14.66" style="fill:#fff;stroke:#eeba3a;stroke-miterlimit:10"/><circle cx="44.18" cy="20.36" r="9.09" style="fill:#fff;stroke:#eeba3a;stroke-miterlimit:10;stroke-width:0.620179872385931px"/><line x1="42.22" y1="14.9" x2="46.14" y2="14.9" style="fill:none;stroke:#232323;stroke-miterlimit:10;stroke-width:0.25px"/><line x1="41.19" y1="25.08" x2="47.18" y2="25.08" style="fill:none;stroke:#232323;stroke-miterlimit:10;stroke-width:0.25px"/><circle cx="44.18" cy="20.36" r="0.8" style="fill:#fff;stroke:#000;stroke-miterlimit:10;stroke-width:0.25px"/><circle cx="41.24" cy="19.67" r="0.65" style="fill:none;stroke:#000;stroke-miterlimit:10;stroke-width:0.325252592563629px"/><circle cx="40.41" cy="18.34" r="0.65" style="fill:none;stroke:#000;stroke-miterlimit:10;stroke-width:0.325252592563629px"/><circle cx="42.88" cy="19.67" r="0.65" style="fill:none;stroke:#000;stroke-miterlimit:10;stroke-width:0.325252592563629px"/><circle cx="42" cy="18.34" r="0.65" style="fill:none;stroke:#000;stroke-miterlimit:10;stroke-width:0.325252592563629px"/><circle cx="41.59" cy="19.02" r="1" style="fill:none;stroke:#000;stroke-miterlimit:10;stroke-width:0.25px"/><polyline points="43.8 19.58 43.11 19.52 42.41 19.47 42.84 20.02 43.27 20.57" style="fill:none;stroke:#000;stroke-miterlimit:10;stroke-width:0.25px"/><polyline points="40.93 18.16 40.28 18.03 36.78 16.12 40.1 18.36 40.58 18.83" style="fill:none;stroke:#000;stroke-miterlimit:10;stroke-width:0.204496085643768px"/><path d="M2515.42,307.29a1.61,1.61,0,0,0,1-.79c0.21-.39.13-0.66-0.19-0.61a1.61,1.61,0,0,0-1,.79C2515,307.07,2515.11,307.34,2515.42,307.29Z" transform="translate(-2469.45 -289.35)" style="fill:none;stroke:#000;stroke-miterlimit:10;stroke-width:0.302240150502827px"/><path d="M2517.08,306.21a1.61,1.61,0,0,0,1-.79c0.21-.39.13-0.66-0.19-0.61a1.61,1.61,0,0,0-1,.79C2516.69,306,2516.77,306.26,2517.08,306.21Z" transform="translate(-2469.45 -289.35)" style="fill:none;stroke:#000;stroke-miterlimit:10;stroke-width:0.302240150502827px"/><path d="M2514.47,309.06a1.61,1.61,0,0,0,1-.79c0.21-.39.13-0.66-0.19-0.61a1.61,1.61,0,0,0-1,.79C2514.07,308.83,2514.15,309.1,2514.47,309.06Z" transform="translate(-2469.45 -289.35)" style="fill:none;stroke:#000;stroke-miterlimit:10;stroke-width:0.302240150502827px"/><path d="M2516.15,307.93a1.61,1.61,0,0,0,1-.79c0.21-.39.13-0.66-0.19-0.61a1.61,1.61,0,0,0-1,.79C2515.75,307.7,2515.84,308,2516.15,307.93Z" transform="translate(-2469.45 -289.35)" style="fill:none;stroke:#000;stroke-miterlimit:10;stroke-width:0.302240150502827px"/><path d="M2515.59,308a2.48,2.48,0,0,0,1.46-1.22c0.32-.6.19-1-0.29-0.94a2.48,2.48,0,0,0-1.46,1.22C2515,307.61,2515.11,308,2515.59,308Z" transform="translate(-2469.45 -289.35)" style="fill:none;stroke:#000;stroke-miterlimit:10;stroke-width:0.232311868846748px"/><polyline points="44.94 19.98 45.4 19.23 45.85 18.47 45.12 19.01 44.39 19.55" style="fill:none;stroke:#000;stroke-miterlimit:10;stroke-width:0.232311868846748px"/><polyline points="47.86 16.7 48.36 15.97 52.08 11.93 48.17 15.83 47.49 16.4" style="fill:none;stroke:#000;stroke-miterlimit:10;stroke-width:0.190027471310994px"/><path d="M2512.87,297.31v0.08a0.55,0.55,0,0,0-.44.29l-0.4.61,0.59,1a0.5,0.5,0,0,0,.34.29v0.08h-1.22v-0.08c0.14,0,.2,0,0.2-0.1a0.27,0.27,0,0,0,0-.12l-0.35-.6-0.38.55a0.28,0.28,0,0,0-.05.13q0,0.12.29,0.14v0.08h-0.84v-0.08a0.57,0.57,0,0,0,.45-0.3l0.44-.66-0.52-.9a1.06,1.06,0,0,0-.19-0.26,0.43,0.43,0,0,0-.22-0.08v-0.08h1.26v0.08c-0.14,0-.22,0-0.22.1a0.27,0.27,0,0,0,0,.11l0.31,0.55,0.29-.44a0.36,0.36,0,0,0,.07-0.17q0-.15-0.24-0.15v-0.08h0.8Z" transform="translate(-2469.45 -289.35)" style="fill:#231f20"/><path d="M2514.42,299.59v0.08h-1.33v-0.08a0.39,0.39,0,0,0,.26-0.05,0.32,0.32,0,0,0,.06-0.23v-1.64a0.32,0.32,0,0,0-.06-0.23,0.41,0.41,0,0,0-.26,0v-0.08h1.33v0.08a0.38,0.38,0,0,0-.25,0,0.32,0.32,0,0,0-.06.23v1.64a0.32,0.32,0,0,0,.06.23A0.37,0.37,0,0,0,2514.42,299.59Z" transform="translate(-2469.45 -289.35)" style="fill:#231f20"/><path d="M2515.92,299.59v0.08h-1.33v-0.08a0.39,0.39,0,0,0,.26-0.05,0.32,0.32,0,0,0,.06-0.23v-1.64a0.32,0.32,0,0,0-.06-0.23,0.41,0.41,0,0,0-.26,0v-0.08h1.33v0.08a0.38,0.38,0,0,0-.25,0,0.32,0.32,0,0,0-.06.23v1.64a0.32,0.32,0,0,0,.06.23A0.37,0.37,0,0,0,2515.92,299.59Z" transform="translate(-2469.45 -289.35)" style="fill:#231f20"/><path d="M2503.19,309.65h0.08V311h-0.08a0.39,0.39,0,0,0,0-.26,0.32,0.32,0,0,0-.23-0.06h-1.64a0.32,0.32,0,0,0-.23.06,0.4,0.4,0,0,0,0,.26h-0.08v-1.33H2501a0.37,0.37,0,0,0,0,.25,0.33,0.33,0,0,0,.24.06h1.64a0.33,0.33,0,0,0,.23-0.06A0.37,0.37,0,0,0,2503.19,309.65Z" transform="translate(-2469.45 -289.35)" style="fill:#231f20"/><path d="M2500.91,307.19H2501a0.54,0.54,0,0,0,.29.44l0.61,0.4,1-.59a0.5,0.5,0,0,0,.29-0.34h0.08v1.22h-0.08c0-.14,0-0.2-0.1-0.2a0.27,0.27,0,0,0-.12,0l-0.6.35,0.55,0.38a0.28,0.28,0,0,0,.13.05q0.12,0,.14-0.29h0.08v0.84h-0.08a0.57,0.57,0,0,0-.3-0.45l-0.66-.44-0.9.52a1,1,0,0,0-.26.19,0.42,0.42,0,0,0-.08.22h-0.08v-1.26H2501c0,0.14,0,.22.1,0.22l0.11,0,0.55-.31-0.44-.29a0.37,0.37,0,0,0-.17-0.07c-0.1,0-.15.08-0.15,0.24h-0.08v-0.8Z" transform="translate(-2469.45 -289.35)" style="fill:#231f20"/><path d="M2524.19,308.5h-0.08v-1.33h0.08a0.39,0.39,0,0,0,.05.26,0.32,0.32,0,0,0,.23.06h1.64a0.32,0.32,0,0,0,.23-0.06,0.41,0.41,0,0,0,0-.26h0.08v1.33h-0.08a0.39,0.39,0,0,0,0-.25,0.33,0.33,0,0,0-.24-0.06h-1.64a0.33,0.33,0,0,0-.23.06A0.37,0.37,0,0,0,2524.19,308.5Z" transform="translate(-2469.45 -289.35)" style="fill:#231f20"/><path d="M2524.19,310h-0.08v-1.33h0.08a0.39,0.39,0,0,0,.05.26,0.32,0.32,0,0,0,.23.06h1.64a0.32,0.32,0,0,0,.23-0.06,0.41,0.41,0,0,0,0-.26h0.08V310h-0.08a0.39,0.39,0,0,0,0-.25,0.33,0.33,0,0,0-.24-0.06h-1.64a0.33,0.33,0,0,0-.23.06A0.37,0.37,0,0,0,2524.19,310Z" transform="translate(-2469.45 -289.35)" style="fill:#231f20"/><path d="M2524.19,311.51h-0.08v-1.33h0.08a0.39,0.39,0,0,0,.05.26,0.32,0.32,0,0,0,.23.06h1.64a0.32,0.32,0,0,0,.23-0.06,0.41,0.41,0,0,0,0-.26h0.08v1.33h-0.08a0.39,0.39,0,0,0,0-.25,0.33,0.33,0,0,0-.24-0.06h-1.64a0.33,0.33,0,0,0-.23.06A0.37,0.37,0,0,0,2524.19,311.51Z" transform="translate(-2469.45 -289.35)" style="fill:#231f20"/><path d="M2513.18,322.62v-0.08a0.36,0.36,0,0,0,.32-0.29l0.8-2h0.16l0.83,2.06a0.52,0.52,0,0,0,.11.19,0.27,0.27,0,0,0,.17.06v0.08h-1.21v-0.08c0.16,0,.24,0,0.24-0.12a0.33,0.33,0,0,0,0-.11l-0.47-1.18-0.45,1.12a0.35,0.35,0,0,0,0,.13q0,0.15.28,0.16v0.08h-0.73Z" transform="translate(-2469.45 -289.35)" style="fill:#231f20"/><path d="M2511.73,320.34v-0.08h1.33v0.08a0.39,0.39,0,0,0-.26.05,0.32,0.32,0,0,0-.06.23v1.64a0.32,0.32,0,0,0,.06.23,0.41,0.41,0,0,0,.26,0v0.08h-1.33v-0.08a0.38,0.38,0,0,0,.25,0,0.32,0.32,0,0,0,.06-0.23v-1.64a0.32,0.32,0,0,0-.06-0.23A0.37,0.37,0,0,0,2511.73,320.34Z" transform="translate(-2469.45 -289.35)" style="fill:#231f20"/></svg>