<svg xmlns="http://www.w3.org/2000/svg" viewBox="0 0 64 57.97"><title>img-mobile-icon-insurance</title><path d="M1056,5963c-6,0-14,6-16,8-2-2-10-8-16-8-11,0-16,9-16,20,0,12,32,38,32,38s32-26,32-38C1072,5972,1067,5963,1056,5963Zm-16,52.78c-12.39-10.44-28-26.27-28-32.78,0-4.81,1.17-16,12-16,4.23,0,11.14,4.79,13.15,6.84l2.85,2.88,2.85-2.88c2-2,8.92-6.84,13.15-6.84,10.83,0,12,11.19,12,16a5.18,5.18,0,0,1-.11,1h-11.12l-4.93-4.84a2,2,0,0,0-.83-0.91,2,2,0,0,0-1.19-.25h-0.06l-0.28,0a2,2,0,0,0-.34.13h0a1.87,1.87,0,0,0-.28.17l-0.05,0-0.16.14-0.14.14,0,0.06a1.9,1.9,0,0,0-.18.24l-6.38,12.86-3.74-6.89a2.35,2.35,0,0,0-2.21-.93H1026a2,2,0,0,0,0,4h8.93l4.92,9.07a2.36,2.36,0,0,0,2.2.94,2,2,0,0,0,1.68-1l0-.08v0l6.77-13.65,3.65,3.58a2,2,0,0,0,1.58,1.11h10.44C1061.8,5995.71,1049.88,6007.46,1040,6015.79Z" transform="translate(-1008 -5963.01)" style="fill:#3c4042;fill-rule:evenodd"/></svg>