<svg xmlns="http://www.w3.org/2000/svg" viewBox="0 0 151.08 503.94"><title>img-30-person</title><g style="isolation:isolate"><path d="M118,473.22l-26.1,7.17-0.7,10.17c4.7,4.18,33.33,12.6,34.55,13.1,1.91,0.77,17.41-.12,20.17-2,1.2-.82,2.4-6.77.73-7.41C139.84,490.58,123.86,489.78,118,473.22Z" style="fill:#392713"/><path d="M46.19,473.22l26.1,7.17L73,490.56c-4.7,4.18-33.33,12.6-34.55,13.1-1.91.77-17.41-.12-20.17-2-1.2-.82-3.1-6.05-1.43-6.7C23.66,491.3,40.35,489.78,46.19,473.22Z" style="fill:#392713"/><path d="M118,470.43l-26.1,7.17-0.7,10.17c4.7,4.18,33.33,12.6,34.55,13.1,1.91,0.77,17.41-.12,20.17-2,1.2-.82,2.4-4,0.73-4.63C139.84,490.58,123.86,487,118,470.43Z" style="fill:#3f2b16"/><path d="M46.19,470.43l26.1,7.17L73,487.77c-4.7,4.18-33.33,12.6-34.55,13.1-1.91.77-17.41-.12-20.17-2-1.2-.82-2.4-4-0.73-4.63C24.36,490.58,40.35,487,46.19,470.43Z" style="fill:#3f2b16"/><path d="M91,59.45c-5.89.18-36.49,0.9-36.49,0.9,2,20.55-3.05,33.49-3.05,33.49a61.51,61.51,0,0,0,7.37,14.8c4.84,6.89,12.16,13.19,11.82,13.12l25.8-29C92.71,86.51,91.24,65.41,91,59.45Z" style="fill:#f6b284"/><path d="M100.13,33.64c-2.94-1.6-6.25,1.63-6.25,1.63l0.85,17.16C100.22,51.62,106.45,40.21,100.13,33.64Z" style="fill:#f6b284"/><path d="M45.5,33.39c3-1.52,6.22,1.78,6.22,1.78l-1.18,16.2C45.16,51.48,39.65,37.73,45.5,33.39Z" style="fill:#f6b284"/><g style="opacity:0.45;mix-blend-mode:multiply"><path d="M91,59.45c-5.89.18-36.49,0.9-36.49,0.9,2,20.55-3.05,33.49-3.05,33.49a61.51,61.51,0,0,0,7.37,14.8c4.84,6.89,34.51-25.52,33.64-32.15C91.58,69.52,91.13,62.5,91,59.45Z" style="fill:#f6b284"/></g><path d="M94.07,19.88C74.2,3.55,52.18,17.62,52.18,17.62,51.86,24.29,50.5,37,49.54,48.43a111.09,111.09,0,0,0,1.9,21.7c1.05,4.38,6.9,13.8,20.62,13.8s19.59-9.33,22.63-13.14C97.53,67.21,94.62,25.5,94.07,19.88Z" style="fill:#f6b284"/><g style="opacity:0.8"><path d="M73.4,67.9c-8.64,1.74-13.85-1.33-13.85-1.33,4.86,5.05,22,4.65,25.77-3.43C84.69,63.37,82,66.16,73.4,67.9Z" style="fill:#eb9255;mix-blend-mode:multiply"/></g><path d="M77.58,57.44C76.9,58.7,74.25,59.09,72,58.87a11.91,11.91,0,0,1-2.94-1s1.42-18.24,1.07-21.25l-1,1.66L67.46,58.66a27.26,27.26,0,0,0,4.4,1.49C73.83,60.21,77.42,59.14,77.58,57.44Z" style="fill:#eb9255;opacity:0.8;mix-blend-mode:multiply"/><path d="M89.82,33.15c-0.87-.74-5-1.1-6.67-1.06,0,0-5.6.72-6.56,1.38a1.08,1.08,0,0,0,.4,2.05c1.33,0.12,4.36-.55,6.49-0.94a59.28,59.28,0,0,1,6.6.4C91,34.7,90.3,33.55,89.82,33.15Z" style="fill:#281711"/><path d="M52.71,34.59c0.19-.94,4.69-2,6.31-2.11,0,0,5.7.32,6.76,0.9s1.1,1.88,0,2.07c-1.31.22-4.43-.23-6.61-0.47a49.59,49.59,0,0,0-6.33,1C52.42,35.84,52.64,34.93,52.71,34.59Z" style="fill:#281711"/><path d="M100.92,6.88c-9,2.38-39.25-18.12-51.28,2.18,1,1.12,4.11.78-2.91,5.57-1.27,3.3.23,14,.72,18.34,2.67,0.63,3.13,10.25,3.13,10.25,0.33-3.33,1.82-16.54,2.69-21.44,2.3-.33,3.91-1.62,6.19-1.29,0.08,0.19-.17.7-0.38,0.5,10.41,6.6,21.9-3.56,32.08-.34C94.36,26.57,95.53,45.43,96,47c0.48-4.68.69-13,3.83-13.78,0.83-.21,2.32-18,2.52-20.19C99.39,12.23,99.94,7.53,100.92,6.88Z" style="fill:#281711"/><ellipse cx="60.33" cy="41.72" rx="2.47" ry="3.82" style="fill:#281711"/><ellipse cx="84.02" cy="41.72" rx="2.47" ry="3.82" style="fill:#281711"/><path d="M117,396c-0.14-1.56.62-20.64,0-28.83,0-15,4.48-90.17,6.08-93.14,0,0,2.38-6.77,2.37-8.68,0-11.38-8.4-27.11-8.44-38.18-25.32.38-84.6,0-84.6,0s-8.1,23.74-8.18,38.1c0,1.07,3.36,7.86,3.36,7.86C30,284,39.07,348.23,40,360.55c1.73,23.89,4.4,95.95,4.4,101.39l-1.68,8.74-1.24,9.22,2.29,3.23C65.1,487.48,73,485,73,485s-2.92-78.09-3.27-85.67c-0.81-18-1.1-26.93-1.1-40.32,0-16.66-.65-66,0.37-77.85,0,0,9.27,2.44,10.13,3.88,1,1.65,8.75,62.2,8.52,70.34-0.06,2.22.57,29.35,0.83,35.09,0.77,17,1.77,57.28,1.71,67.19l0.6,16.84,0.54,10.79c7.08,1.55,18.26,2.23,19.34,1.77,1.51-.66,10.34-4.75,13.12-7.4,0-.51-4.06-10.64-4.06-10.64C119.11,452,118.52,412.86,117,396Z" style="fill:#67491c"/><ellipse cx="84.21" cy="39.18" rx="0.55" ry="0.85" style="fill:#fff"/><ellipse cx="60.33" cy="39.18" rx="0.55" ry="0.85" style="fill:#fff"/><polygon points="92.19 98.74 72.82 116.81 71.45 120.63 70.3 117.08 49.41 98.94 36.65 98.34 72.28 146.43 104.16 94.55 92.19 98.74" style="fill:#1e1e3a"/><path d="M148.45,194.64c-1.34-18.3-7.48-73.05-14.93-81.81-2.78-3.27-13.4-9.21-21.45-14.24-4.43-2.77-8.47-5.28-10.78-6.91a37.25,37.25,0,0,1-3.2-5c-2.75,15.42-10.58,35.13-27,35.13S44,98.05,45,90.38l-4.93,4.54c-1.77,1.25-4.08,2.78-6.59,4.44-6.67,4.42-16,9.79-19.13,13.48-7.45,8.75-13,64.73-14.36,83-0.81,5,14.35,57.85,17.58,63.23,0.43,0.72,4.91,1,5.24.6a105.41,105.41,0,0,0,10.22-15.65c1.67-2.48-2.26,12.05-6.42,17.53,4.4,6.89,24.24,14,46.78,13.58,0.46,0-.62-11.07-0.16-11.09s2.33,11,2.72,11c15.14-.65,32.12-5.5,45.09-15.81-2-2.15-5.68-11.81-6.23-15.22A97.69,97.69,0,0,0,125,259.9c0.33,0.39,5.81-.06,6.24-0.78C135.65,252.19,148.5,200.83,148.45,194.64ZM25.11,205.06c-0.92-4.54.47-6.43,0.34-7.33-0.08-.56-1.56-1.46-1.65-1.88s1.32-1.38,1.25-2.28c0-.44-1.61-1.33-1.75-1.86a8,8,0,0,1-.16-2.1c1-5.47,2.65-17.64,4.2-26.23,0.37,9.65,2.38,25.39,2.38,31.24,0,9.21-.25,21.65.16,29.06-1.58-4.65-3-11.68-4.2-15.82C25.49,206.89,25.29,206,25.11,205.06Zm99.5-13.36c-0.13.54-1.72,1.43-1.74,1.86-0.06.9,1.38,1.72,1.25,2.28s-1.56,1.32-1.65,1.88c-0.14.9,1.26,2.79,0.34,7.33l-0.57,2.78c-1.1,3.77-2.36,10.35-3.77,14.57-0.4-10.25-1.93-26.34-2-29.86-0.12-9,1.73-26.84,2.5-37.86,1.8,9.68,4.46,27.46,5.78,34.91A8,8,0,0,1,124.61,191.69Z" style="fill:#1e1e3a"/><path d="M48.58,83c1.28-1.37,5.56-2,5.56-2a63,63,0,0,1-1.67,9c-0.9,7,9.59,19.75,17.76,27a0.41,0.41,0,0,1,0,.28c-2.26-1.59-6.85-5-7.5-5.22-3.7,3.91-3.32,7.06-4.53,11.59C54.64,117,47.46,106,42.71,91.4,46.1,87.27,45.8,86,48.58,83Z" style="fill:#2e2e4c"/><path d="M63.74,110.84h0c-6.42-7-12-15.56-11.27-20.82A70.25,70.25,0,0,0,54,82.62L50.2,85.47S48.29,96.92,63.74,110.84Z" style="fill:#d6cfab;mix-blend-mode:multiply"/><path d="M97.56,81.94c-0.93-.51-4.49-2-4.49-2a51.07,51.07,0,0,0,1.89,9c0.38,6-12.79,18.87-21.92,27.67a0.67,0.67,0,0,0-.18.52l7.73-5.56c3.7,3.91,4.29,7.63,5.49,12.16,7.18-10.21,13.65-18.76,19-31.06C101.3,88.59,98.24,82.32,97.56,81.94Z" style="fill:#2e2e4c"/><path d="M96.94,83.76l-3.8-3.22v0h0A50.14,50.14,0,0,0,95,88.88c0.26,4.17-6,11.64-12.9,18.76h0C100.53,91.58,96.94,83.76,96.94,83.76Z" style="fill:#d6cfab;opacity:0.7000000000000001;mix-blend-mode:multiply"/><polygon points="71.21 120.49 73.27 264.07 73.69 264.07 71.67 120.49 71.21 120.49" style="fill:#12121b"/><polygon points="71.67 120.49 73.69 265.34 75.99 275.08 80.11 274.87 77.58 114.3 72.82 116.81 71.67 120.49" style="fill:#12121b;opacity:0.30000000000000004"/><polygon points="139.38 251.19 130.19 261.66 125.43 260.02 114.85 244.05 115.72 232.61 132.44 249.06 139.38 251.19" style="fill:#2e2e4c"/><polygon points="9.59 250.88 18.78 261.35 23.54 259.71 34.12 243.74 33.25 232.3 16.53 248.75 9.59 250.88" style="fill:#2e2e4c"/><circle cx="74.75" cy="126.75" r="1.19" transform="translate(-1.82 1.09) rotate(-0.82)" style="fill:#6c6b99"/><circle cx="75.13" cy="153.26" r="1.19" transform="translate(-2.2 1.1) rotate(-0.82)" style="fill:#6c6b99"/><circle cx="75.51" cy="179.76" r="1.19" transform="translate(-2.58 1.11) rotate(-0.82)" style="fill:#6c6b99"/><circle cx="75.89" cy="206.26" r="1.19" transform="translate(-2.96 1.11) rotate(-0.82)" style="fill:#6c6b99"/><circle cx="76.27" cy="232.77" r="1.19" transform="translate(-3.34 1.12) rotate(-0.82)" style="fill:#6c6b99"/><circle cx="76.66" cy="259.27" r="1.19" transform="translate(-3.72 1.13) rotate(-0.82)" style="fill:#6c6b99"/><polygon points="87.68 139.37 112.57 139.37 111.18 162.61 100.93 166.82 88.96 162.61 87.68 139.37" style="fill:none;stroke:#4a4a73;stroke-miterlimit:10;stroke-width:1.28166848796933px;opacity:0.30000000000000004"/><path d="M34.12,243.74c-1.17,8.22-4.13,13.2-9.61,20.92C24,263.95,21,259.22,21,259.05A85.41,85.41,0,0,0,34.12,243.74Z" style="fill:#f6b284"/><path d="M114.85,244.05c0,6.62,4,13.24,9.84,20l4-5.5A76.55,76.55,0,0,1,114.85,244.05Z" style="fill:#f6b284"/><path d="M95,36.37s-15.53-.3-20,0.81c-1,.24-1.41,1.27-3.81,1.24s-2.85-1-3.81-1.22c-4.44-1.08-20-.68-20-0.68a6.92,6.92,0,0,0,.16,2.39A3.45,3.45,0,0,1,49,41c0.19,1,.62,4.39,1.59,5.09,2.47,1.79,13.76,1.91,15.28,1,1.68-1,3-5.48,3.93-6.33a3.24,3.24,0,0,1,3,0c1,0.84,2.28,5.32,4,6.31,1.52,0.9,12.81.71,15.27-1.1,1-.71,1.37-4.14,1.56-5.1a3.46,3.46,0,0,1,1.33-2.08l3.75-4,1.68-2.23ZM64.46,46.23c-3.72,1-12.59-.22-13.26-1.2-0.92-1.34-1.3-6.18-.1-7,0.27-.18,14.42-0.79,15.93,1S65.76,45.87,64.46,46.23Zm26.87-1.33c-0.66,1-9.5,2.26-13.22,1.28C76.81,45.83,73.9,41,75.5,39s15.61-1.28,15.88-1.1C92.59,38.72,92.23,43.55,91.33,44.89Z" style="fill:#42190d"/></g></svg>