<svg xmlns="http://www.w3.org/2000/svg" viewBox="0 0 143.74 181.86"><title>img-20-person-shirt</title><path d="M582.91,326.39c-1.3-17.72-7.24-70.73-14.45-79.2-2.69-3.17-13-8.92-20.77-13.79a83.87,83.87,0,0,0-9.13-4.83s-6.7-3.76-8.66-5.19c-2.52,12.06-5.88,19.69-21.73,19.69s-19.44-12.26-18.42-19.69l-11.59,8c-2.22,1.08-4.09,1.19-6.51,2.8-6.46,4.28-15.49,9.47-18.53,13-7.21,8.48-12.6,62.67-13.9,80.39-0.79,4.8,13.89,56,17,61.22,0.41,0.7,4.76,1,5.07.59a87.11,87.11,0,0,0,9.58-15.31c-0.32,3.14-2.78,11.47-4.39,13.8,9.75,14.08,59.11,29.16,87.27-1.24-2.32-3.52-3.39-11.28-3.39-12.41a94.61,94.61,0,0,0,9.78,15.34c0.32,0.38,5.63-.06,6-0.75C570.52,382.1,583,332.38,582.91,326.39ZM463.49,336.47c-0.89-4.39.46-6.23,0.33-7.1-0.08-.54-1.51-1.42-1.59-1.82s1.27-1.34,1.21-2.21c0-.42-1.56-1.29-1.69-1.81a7.79,7.79,0,0,1-.16-2c0.93-5.29,2.57-17.08,4.06-25.4,0.36,9.34,2.3,24.58,2.3,30.25,0,8.92-.24,21,0.15,28.13-1.53-4.51-2.9-11.31-4.06-15.31C463.86,338.25,463.67,337.34,463.49,336.47Zm96.34-12.94c-0.13.52-1.66,1.38-1.69,1.81-0.06.87,1.33,1.66,1.21,2.21s-1.51,1.28-1.59,1.82c-0.13.87,1.22,2.71,0.33,7.1l-0.55,2.7c-1.06,3.65-2.29,10-3.65,14.1-0.39-9.92-1.87-25.5-1.91-28.91-0.11-8.75,1.68-26,2.42-36.66,1.74,9.37,4.32,26.59,5.59,33.8A7.79,7.79,0,0,1,559.83,323.53Z" transform="translate(-439.18 -222.46)" style="fill:#dcdbdb"/><path d="M468.11,354.46c-1.53-4.51-2.9-11.31-4.06-15.31-0.19-.92-0.38-1.83-0.55-2.7-0.89-4.39.46-6.23,0.33-7.1-0.08-.54-1.51-1.42-1.59-1.82s1.27-1.34,1.21-2.21c0-.42-1.56-1.29-1.69-1.81a7.79,7.79,0,0,1-.16-2c0.93-5.29,2.57-17.08,4.06-25.4l-1.22-43,25.05-23.85V223s-15.43,9.54-17.86,11.14c-6.46,4.28-15.49,9.47-18.53,13-7.21,8.48-12.6,62.67-13.9,80.39-0.79,4.8,13.89,56,17,61.22,0.41,0.7,4.76,1,5.07.59a87.23,87.23,0,0,0,9.58-15.29Zm92.06,35.09c0.3,1.14,5.59,1.36,6-.75,4.32-6.71,16.76-56.44,16.72-62.43-1.3-17.72-7.24-70.73-14.45-79.2-2.69-3.17-13-8.92-20.77-13.79-4.29-2.69-15.3-9.16-17.41-10.52L528.85,227l24.92,24.22,0.62,36.43c1.74,9.37,4.32,26.59,5.59,33.8a7.79,7.79,0,0,1-.16,2c-0.13.52-1.66,1.38-1.69,1.81-0.06.87,1.33,1.66,1.21,2.21s-1.51,1.28-1.59,1.82c-0.13.87,1.22,2.71,0.33,7.1l-0.55,2.7c-1.06,3.65-2.29,10-3.65,14.1l-3.5,21Zm-6.39-2.94" transform="translate(-439.18 -222.46)" style="fill:#882e2e"/><path d="M470.88,374.07c-1.14,8-3.51,13.36-8.82,20.83-0.5-.69-3.42-5.27-3.42-5.43C465.85,383.14,470.88,374.07,470.88,374.07Z" transform="translate(-439.18 -222.46)" style="fill:#f6b284"/><path d="M550.38,374.23c0,6.41,3.06,13.55,8.68,20.11L562.9,389A51.79,51.79,0,0,1,550.38,374.23Z" transform="translate(-439.18 -222.46)" style="fill:#f6b284"/><path d="M485.88,225.28c0.29,12.16,10.37,21,23.19,21,13,0,21.49-9,23.57-21.56a1.86,1.86,0,0,0,0-.33l-3-2c0.07,0.65-.17,1.31-2.24,7s-7.6,13-18.35,13-19.25-7.38-19.25-17.62c0-.64-0.06-1.37,0-2C489.83,222.76,486.22,225.06,485.88,225.28Z" transform="translate(-439.18 -222.46)" style="fill:#853030"/><path d="M482.58,287.86c-1.6.5-2.64,0.07-3.13-1.37l-1.94-5.66a2.63,2.63,0,0,1,0-2.08,2.92,2.92,0,0,1,1.86-1.27q2.58-.81,5.19-1.47l0.86,3.36q-1.35.34-2.69,0.73L482.39,279l-1.84.54,1.85,6,1.73-.51-0.48-1.67q1.35-.39,2.7-0.73l1,3.89Q484.95,287.13,482.58,287.86Z" transform="translate(-439.18 -222.46)" style="fill:#882e2e"/><path d="M491.13,285.64c-1.63.34-2.65-.31-3.06-2l-1.29-5.4c-0.42-1.72.29-2.81,2.12-3.2q1.44-.3,2.89-0.56a2.87,2.87,0,0,1,2.22.28,2.74,2.74,0,0,1,.94,1.88l0.84,5.49c0.26,1.75-.43,2.74-2.07,3Q492.42,285.37,491.13,285.64Zm0-2.33,1.69-.33-1.15-6.2-1.8.35Z" transform="translate(-439.18 -222.46)" style="fill:#882e2e"/><path d="M505.22,283.79q-3.93.21-7.85,0.75l-0.31-2.25,0.78-.11L497,275.93l-0.83.11-0.31-2.25q2.5-.35,5-0.57l0.2,2.27-0.83.08,0.62,6.28,1.36-.12-0.16-1.9q1.46-.12,2.92-0.2Z" transform="translate(-439.18 -222.46)" style="fill:#882e2e"/><path d="M513.75,283.74q-3.94-.15-7.88,0l-0.1-2.27,0.78,0-0.24-6.3-0.84,0-0.1-2.27q2.52-.12,5-0.11,0,1.14,0,2.28h-0.83l0,6.31H511l0-1.9q1.46,0,2.93.07Z" transform="translate(-439.18 -222.46)" style="fill:#882e2e"/><path d="M522.43,284.49q-4-.54-8-0.72l0.11-2.27,0.78,0,0.34-6.3-0.84,0,0.11-2.27q4.43,0.21,8.85.79l-0.46,3.44q-1.36-.18-2.72-0.32l0.13-1.19-1.81-.17-0.18,2.06q1.22,0.11,2.45.24l-0.22,1.95q-1.2-.13-2.4-0.24l-0.2,2.27,1.7,0.16,0.15-1.38q1.36,0.14,2.72.33Z" transform="translate(-439.18 -222.46)" style="fill:#882e2e"/><path d="M526.14,285.06c-1.64-.29-2.35-1.15-2.13-2.65l0.88-5.91a2.64,2.64,0,0,1,.93-1.86,2.87,2.87,0,0,1,2.21-.28q2.74,0.48,5.46,1.11l-0.71,3.07q-1.45-.34-2.9-0.63l0.17-.86-1.88-.36L527,282.91l1.76,0.34,0.41-2-0.94-.18,0.41-2.13q2,0.38,3.94.84l-1.48,6.34Q528.64,285.5,526.14,285.06Z" transform="translate(-439.18 -222.46)" style="fill:#882e2e"/><path d="M540.06,288.65q-3.86-1.32-7.8-2.29l0.55-2.21,0.77,0.19,1.56-6.11-0.82-.21,0.55-2.21q4.34,1.07,8.6,2.52l-1.12,3.28q-1.31-.45-2.63-0.86l0.35-1.14-1.76-.53-0.58,2q1.19,0.35,2.37.72l-0.59,1.87q-1.16-.37-2.33-0.71l-0.64,2.19,1.65,0.5,0.41-1.33q1.32,0.41,2.63.86Z" transform="translate(-439.18 -222.46)" style="fill:#882e2e"/><path d="M537,293.17c-15.08-4.23-36.45-5.39-52.14.06" transform="translate(-439.18 -222.46)" style="fill:none;stroke:#882e2e;stroke-miterlimit:10;stroke-width:1.7281665802002px"/><path d="M550.38,274.74c-22.94-8.65-55.45-10.38-79.31-.05" transform="translate(-439.18 -222.46)" style="fill:none;stroke:#882e2e;stroke-miterlimit:10;stroke-width:1.7281665802002px"/></svg>