<svg xmlns="http://www.w3.org/2000/svg" viewBox="0 0 59.8 121.76"><title>img-30-person-head</title><g style="isolation:isolate"><path d="M1605.79,191.48c-5.89.18-36.49,0.9-36.49,0.9,2,20.55-3.05,33.49-3.05,33.49a61.51,61.51,0,0,0,7.37,14.8c4.84,6.89,12.16,13.19,11.82,13.12l25.8-29C1607.49,218.54,1606,197.44,1605.79,191.48Z" transform="translate(-1557.76 -132.03)" style="fill:#f6b284"/><path d="M1614.9,165.67c-2.94-1.6-6.25,1.63-6.25,1.63l0.85,17.16C1615,183.65,1621.22,172.25,1614.9,165.67Z" transform="translate(-1557.76 -132.03)" style="fill:#f6b284"/><path d="M1560.27,165.43c3-1.52,6.22,1.78,6.22,1.78l-1.18,16.2C1559.93,183.51,1554.43,169.77,1560.27,165.43Z" transform="translate(-1557.76 -132.03)" style="fill:#f6b284"/><g style="opacity:0.45;mix-blend-mode:multiply"><path d="M1605.79,191.48c-5.89.18-36.49,0.9-36.49,0.9,2,20.55-3.05,33.49-3.05,33.49a61.51,61.51,0,0,0,7.37,14.8c4.84,6.89,34.51-25.52,33.64-32.15C1606.35,201.56,1605.91,194.54,1605.79,191.48Z" transform="translate(-1557.76 -132.03)" style="fill:#f6b284"/></g><path d="M1608.85,151.91c-19.87-16.33-41.89-2.26-41.89-2.26-0.32,6.67-1.68,19.41-2.64,30.81a111.09,111.09,0,0,0,1.9,21.7c1.05,4.38,6.9,13.8,20.62,13.8s19.59-9.33,22.63-13.14C1612.31,199.24,1609.4,157.53,1608.85,151.91Z" transform="translate(-1557.76 -132.03)" style="fill:#f6b284"/><g style="opacity:0.8"><path d="M1588.17,199.93c-8.64,1.74-13.85-1.33-13.85-1.33,4.86,5.05,22,4.65,25.77-3.43C1599.47,195.4,1596.82,198.19,1588.17,199.93Z" transform="translate(-1557.76 -132.03)" style="fill:#eb9255;mix-blend-mode:multiply"/></g><path d="M1592.35,189.48c-0.68,1.26-3.33,1.64-5.59,1.43a11.91,11.91,0,0,1-2.94-1s1.42-18.24,1.07-21.25l-1,1.66-1.68,20.34a27.26,27.26,0,0,0,4.4,1.49C1588.6,192.24,1592.19,191.17,1592.35,189.48Z" transform="translate(-1557.76 -132.03)" style="fill:#eb9255;opacity:0.8;mix-blend-mode:multiply"/><path d="M1604.59,165.18c-0.87-.74-5-1.1-6.67-1.06,0,0-5.6.72-6.56,1.38a1.08,1.08,0,0,0,.4,2.05c1.33,0.12,4.36-.55,6.49-0.94a59.28,59.28,0,0,1,6.6.4C1605.74,166.73,1605.07,165.58,1604.59,165.18Z" transform="translate(-1557.76 -132.03)" style="fill:#281711"/><path d="M1567.49,166.63c0.19-.94,4.69-2,6.31-2.11,0,0,5.7.32,6.76,0.9s1.1,1.88,0,2.07c-1.31.22-4.43-.23-6.61-0.47a49.59,49.59,0,0,0-6.33,1C1567.19,167.87,1567.42,167,1567.49,166.63Z" transform="translate(-1557.76 -132.03)" style="fill:#281711"/><path d="M1615.7,138.91c-9,2.38-39.25-18.12-51.28,2.18,1,1.12,4.11.78-2.91,5.57-1.27,3.3.23,14,.72,18.34,2.67,0.63,3.13,10.25,3.13,10.25,0.33-3.33,1.82-16.54,2.69-21.44,2.3-.33,3.91-1.62,6.19-1.29,0.08,0.19-.17.7-0.38,0.5,10.41,6.6,21.9-3.56,32.08-.34,3.2,5.9,4.37,24.77,4.84,26.33,0.48-4.68.69-13,3.83-13.78,0.83-.21,2.32-18,2.52-20.19C1614.17,144.26,1614.71,139.56,1615.7,138.91Z" transform="translate(-1557.76 -132.03)" style="fill:#281711"/><ellipse cx="17.33" cy="41.72" rx="2.47" ry="3.82" style="fill:#281711"/><ellipse cx="41.03" cy="41.72" rx="2.47" ry="3.82" style="fill:#281711"/><ellipse cx="41.22" cy="39.18" rx="0.55" ry="0.85" style="fill:#fff"/><ellipse cx="17.33" cy="39.18" rx="0.55" ry="0.85" style="fill:#fff"/><path d="M1609.81,168.4s-15.53-.3-20,0.81c-1,.24-1.41,1.27-3.81,1.24s-2.85-1-3.81-1.22c-4.44-1.08-20-.68-20-0.68a6.92,6.92,0,0,0,.16,2.39,3.45,3.45,0,0,1,1.35,2.08c0.19,1,.62,4.39,1.59,5.09,2.47,1.79,13.76,1.91,15.28,1,1.68-1,3-5.48,3.93-6.33a3.24,3.24,0,0,1,3,0c1,0.84,2.28,5.32,4,6.31,1.52,0.9,12.81.71,15.27-1.1,1-.71,1.37-4.14,1.56-5.1a3.46,3.46,0,0,1,1.33-2.08l3.75-4,1.68-2.23Zm-30.57,9.86c-3.72,1-12.59-.22-13.26-1.2-0.92-1.34-1.3-6.18-.1-7,0.27-.18,14.42-0.79,15.93,1S1580.54,177.91,1579.24,178.26Zm26.87-1.33c-0.66,1-9.5,2.26-13.22,1.28-1.3-.34-4.21-5.21-2.61-7.15s15.61-1.28,15.88-1.1C1607.36,170.76,1607,175.58,1606.1,176.93Z" transform="translate(-1557.76 -132.03)" style="fill:#42190d"/></g></svg>