<svg xmlns="http://www.w3.org/2000/svg" viewBox="0 0 138.67 99.03"><title>img-30-photo</title><rect x="2.5" y="2.5" width="133.67" height="94.03" style="fill:#91cdf0;stroke:#754d1f;stroke-miterlimit:10;stroke-width:5px"/><rect x="4.95" y="67.98" width="128.77" height="26.07" style="fill:#548e54"/><g style="opacity:0.05"><path d="M1821.26,292.19c-8.6-3.71-38-5.94-55.78-.47,4.41,2.33,21.93,3.33,27.6,3.28C1802.92,294.9,1818.25,294.76,1821.26,292.19Z" transform="translate(-1721.06 -206.38)"/></g><path d="M1779.48,289.28a6.1,6.1,0,0,1,.1,2.1c-0.46.56-5.45,0.61-5.75,0-0.21-.41,3.08-2.54,3.08-2.54Z" transform="translate(-1721.06 -206.38)" style="fill:#090909"/><path d="M1787.42,229.34c0,0.86.49,5.88-3.26,7-3.09.92-7.52,0-8.66-4.71-1.18-4.85-1.63-8.23.64-9.62,1.52-.93,6.65-2.76,9.48-0.23C1787,223,1787.37,226.2,1787.42,229.34Z" transform="translate(-1721.06 -206.38)" style="fill:#fdcd9a"/><path d="M1784.56,238.84c0-1.15-.16-2.48-0.2-3.63-1.12-.08-2,0.08-3.15,0l-0.24,3-1.54.71a4.35,4.35,0,0,0,6.56.37A3.91,3.91,0,0,0,1784.56,238.84Z" transform="translate(-1721.06 -206.38)" style="fill:#fdcd9a"/><path d="M1776.47,260.38s-1,28.27-.94,28.68,4,1.42,4.21,0c0.38-2.15,2.35-21.48,2.35-21.48l2.28,0.1,1.46,21.79s2.92,1.12,3.23,0-0.07-29.1-.07-29.1h-12.52Z" transform="translate(-1721.06 -206.38)" style="fill:#3a3b3b"/><path d="M1780,238.79s-4.42.3-5.17,1.13a5.56,5.56,0,0,0-1.24,4.41,25.88,25.88,0,0,0,1.87,4.09l1,12H1789l0.19-6.75,1-11.31s0-1.89-1.08-2.48A31.69,31.69,0,0,0,1785,239Z" transform="translate(-1721.06 -206.38)" style="fill:#dfe3ed"/><path d="M1780.4,237.55a6.88,6.88,0,0,0,2.36,1.38l-1.1,2.26a10.15,10.15,0,0,1-2.85-2.09A12.74,12.74,0,0,0,1780.4,237.55Z" transform="translate(-1721.06 -206.38)" style="fill:#f0f3fa"/><path d="M1782.76,238.94a4.76,4.76,0,0,0,2-1.43,18.12,18.12,0,0,0,1.58,1.36,9.9,9.9,0,0,1-1.94,2.39A25.85,25.85,0,0,0,1782.76,238.94Z" transform="translate(-1721.06 -206.38)" style="fill:#f0f3fa"/><path d="M1776.15,259l0,2.27a38.05,38.05,0,0,0,13-.33l0-2A66.61,66.61,0,0,1,1776.15,259Z" transform="translate(-1721.06 -206.38)" style="fill:#090909"/><path d="M1779,259.48a0.93,0.93,0,0,0-.11-0.68,0.89,0.89,0,0,0-.8-0.18,14.9,14.9,0,0,0-.11,3l1.11,0.07A9,9,0,0,1,1779,259.48Z" transform="translate(-1721.06 -206.38)" style="fill:#3a3b3b"/><path d="M1787.92,261.41a0.72,0.72,0,0,0,.06-0.33l0-2.34-0.82,0,0.07,3A0.73,0.73,0,0,0,1787.92,261.41Z" transform="translate(-1721.06 -206.38)" style="fill:#3a3b3b"/><path d="M1786.37,239.24s-0.25,5.13-.07,19.66c0,0,1.31.52,1.28-.07-0.3-5.86-.09-18.68-0.11-19.41C1787.46,239.1,1786.37,239.24,1786.37,239.24Z" transform="translate(-1721.06 -206.38)" style="fill:#090909"/><path d="M1781.46,261.43a0.93,0.93,0,0,0,.73.3,19.14,19.14,0,0,0,2.94,0l-0.18-2.93h-3.51q0,1-.08,2A1,1,0,0,0,1781.46,261.43Z" transform="translate(-1721.06 -206.38)" style="fill:#d8d9d8"/><path d="M1782,259.59a0.41,0.41,0,0,0-.08.31l0,0.94a0.23,0.23,0,0,0,.28.27q1.07,0.09,2.13.14a4.63,4.63,0,0,0,.1-1.85q-1.1,0-2.2.12A0.4,0.4,0,0,0,1782,259.59Z" transform="translate(-1721.06 -206.38)" style="fill:#090909"/><path d="M1783.84,260a0.19,0.19,0,0,0,0,.15,3.33,3.33,0,0,0,.08.33,0.13,0.13,0,0,0,.22.08,1.85,1.85,0,0,0,.58-0.46c-0.22-.06-0.45-0.11-0.67-0.15A0.2,0.2,0,0,0,1783.84,260Z" transform="translate(-1721.06 -206.38)" style="fill:#d8d9d8"/><path d="M1789.8,254.69s-3.09,3.21-3.43,5.12-6.13,31.38-6.28,31.69,11.55,3.09,16.81,2.42a109,109,0,0,0,13.87-2.89c0-.15-3.12-7.41-3.4-8.68-0.12-.54,2.81-2.77,2.78-3.3-0.1-2-6.44-17-7.22-17.56s-7.09-6.56-7.09-6.56Z" transform="translate(-1721.06 -206.38)" style="fill:#e6f5f8"/><path d="M1802.1,260.5c-0.33-.65-3.14-8.05-4.27-11l-0.36-.94-0.11-.3-8.91.21,0.16,0.75,1.18,5.42,0,0.09c0.64,3,1.3,6,1.42,6.46,0.25,1-1.5.53-1.5,0.53s-1.1-3.06-2.73-8.39c-0.51-1.66-.88-3.06-1.14-4.23-0.86-3.85-.53-5.33,0-6.17,1-1.46,4.66-1,4.76-1h0.21l3.71,0.09h0s0.68,0,1.47.09h0a4.45,4.45,0,0,1,2.16.6c0.49,0.46,1.3,2.23,2,5l0.21,0.79c0.71,2.74,2.73,10.75,3,11.47A0.73,0.73,0,0,1,1802.1,260.5Z" transform="translate(-1721.06 -206.38)" style="fill:#fdcd9a"/><path d="M1787.11,229.19c-0.69,1.46-1.2,6.55,2.06,9.49a5.51,5.51,0,0,0,7.56-.25c1-1.14,2.86-5.6,1.21-9.12A6,6,0,0,0,1787.11,229.19Z" transform="translate(-1721.06 -206.38)" style="fill:#fdcd9a"/><path d="M1798.32,233.43a1.44,1.44,0,0,1,.42-0.51,0.63,0.63,0,0,1,.63-0.07,0.82,0.82,0,0,1,.35.63,2.09,2.09,0,0,1-.15,1.2,1.53,1.53,0,0,1-.88.81,1.21,1.21,0,0,1-1.16-.21Z" transform="translate(-1721.06 -206.38)" style="fill:#fdcd9a"/><path d="M1795.37,242.12a3.66,3.66,0,0,1-5.27-.17l0.53-.08h0l0.84-.13,0.28-2.64A9,9,0,0,0,1794,239a17.29,17.29,0,0,1,.29,2.89l0.26,0h0l0.2,0Z" transform="translate(-1721.06 -206.38)" style="fill:#fdcd9a"/><g style="opacity:0.4"><path d="M1801,247.48c-0.18-.28-0.36-0.55-0.51-0.83l-0.21-.48h0l-0.06-.16a10.26,10.26,0,0,0-.77-1.56,7.27,7.27,0,0,0-1.22-1.81,4.45,4.45,0,0,0-2.16-.6h0l-1.27,0a2.89,2.89,0,0,1-1.85.66,3.48,3.48,0,0,1-2.05-.79l-0.19,0v0h0c-0.1,0-3.79-.44-4.76,1a4.22,4.22,0,0,0-.55,2.4,28.41,28.41,0,0,1-.77,3.09c0.34,0,.94,0,1-0.3a0.48,0.48,0,0,0,.91.32,0.5,0.5,0,0,0,1-.12c-0.05.52,0.8,0.37,1.07,0.28l-0.23-1c0.37,0,1.56,1.68,1.93,1.69l3.3,0.15,3.76,0.17,0.23-.92a0.45,0.45,0,0,0,.87-0.25,0.48,0.48,0,0,0,.91-0.28h0a0.51,0.51,0,0,0,.94-0.34h0a0.91,0.91,0,0,0,.47.25,0.34,0.34,0,0,0,.4-0.32A0.49,0.49,0,0,0,1801,247.48Z" transform="translate(-1721.06 -206.38)" style="fill:#afd0d8"/></g><path d="M1776.22,231.7s0.4-6.58.35-7.27c0,0,7.46.89,9.8-.29l1.34,4s0.68-4.62.29-5.19a1.62,1.62,0,0,0-1.19-.59s0.07-1.67-.84-2-5.25-1.55-7.95-.59-2.62,2.42-2.62,2.42a1.44,1.44,0,0,0-1.25.56c-0.22.58-1.84,2.79,0.83,8.39Z" transform="translate(-1721.06 -206.38)" style="fill:#4c3018"/><path d="M1789.87,261.22a2.6,2.6,0,0,0-.5,2.55,1.83,1.83,0,0,0,.83,1,1.17,1.17,0,0,0,1.27-.09,0.87,0.87,0,0,0,.13-1.2,0.43,0.43,0,0,0,.67.12,0.7,0.7,0,0,0,.13-0.74,2.05,2.05,0,0,0-.45-0.66l-0.66-.74a1.3,1.3,0,0,0-.47-0.38A1.33,1.33,0,0,0,1789.87,261.22Z" transform="translate(-1721.06 -206.38)" style="fill:#fdcd9a"/><path d="M1797.57,248.13l-0.1.4-0.26,1-1.36,5.37a15.39,15.39,0,0,1-2.88.38,14.85,14.85,0,0,1-3.16-.62l0-.09-1.21-5.43-0.36-1.62a2.09,2.09,0,0,1,1.89-.84c1.39,0,1.67,1,2.8,1s1.48-.9,2.66-0.88A2.89,2.89,0,0,1,1797.57,248.13Z" transform="translate(-1721.06 -206.38)" style="fill:#e6f5f8"/><path d="M1779.27,238.85s0.51,5.11,1.09,19.63c0,0-1.28.58-1.28,0,0-5.87-.87-18.66-0.89-19.39C1778.17,238.77,1779.27,238.85,1779.27,238.85Z" transform="translate(-1721.06 -206.38)" style="fill:#090909"/><path d="M1789.8,254.69l-0.1-.44a25.37,25.37,0,0,0,3,.44,27.59,27.59,0,0,0,3.24-.38l-0.07.62a14.12,14.12,0,0,1-3,.38C1791.94,255.21,1789.8,254.69,1789.8,254.69Z" transform="translate(-1721.06 -206.38)" style="fill:#afd0d8"/><path d="M1794.75,254.67a1.31,1.31,0,0,0,.7,1.13,1.17,1.17,0,0,0,1.3,0,1.48,1.48,0,0,0,.43-0.92,5.89,5.89,0,0,0,.07-1.44,1.33,1.33,0,0,0-.17-0.63,0.53,0.53,0,0,0-.56-0.25,0.52,0.52,0,0,0-.34.47,1.14,1.14,0,0,0,.16.59,1.51,1.51,0,0,0-1,.18A1.14,1.14,0,0,0,1794.75,254.67Z" transform="translate(-1721.06 -206.38)" style="fill:#fdcd9a"/><path d="M1790.55,262.66a6.73,6.73,0,0,0-1.5-.6,1.77,1.77,0,0,0-1.1,0,0.72,0.72,0,0,0-.46.89,3.49,3.49,0,0,0,1.57,2.85,1.4,1.4,0,0,0,1,.27,1,1,0,0,0,.77-0.75,1.41,1.41,0,0,0-.21-1.09,0.52,0.52,0,0,0,.72-0.22,0.8,0.8,0,0,0-.1-0.81A1.88,1.88,0,0,0,1790.55,262.66Z" transform="translate(-1721.06 -206.38)" style="fill:#fdcd9a"/><path d="M1804.84,263.79a2.69,2.69,0,0,0-1.25-3.69,1.05,1.05,0,0,0-.85-0.08,1.3,1.3,0,0,0-.56.68,2,2,0,0,0-.25,1.8,1.83,1.83,0,0,0,1-1,14.85,14.85,0,0,1,1.32,2.42,0.29,0.29,0,0,0,.14.14A0.39,0.39,0,0,0,1804.84,263.79Z" transform="translate(-1721.06 -206.38)" style="fill:#fdcd9a"/><path d="M1788.86,261.81l-0.07-.1a1.12,1.12,0,0,1-.23-0.67,7.49,7.49,0,0,0,0-.87,2.61,2.61,0,0,0-.53-1.09c-1.46-2.1-8-11.89-9.5-14-0.11-.16-1.77,2.72-2.67,3.34,1.4,2.42,7.1,10.76,8.78,13a1.28,1.28,0,0,0,.92.62c0.24,0,.25-0.08.42,0.11s0.32,0.37.5,0.53a0.82,0.82,0,0,0,.36.23,0.81,0.81,0,0,0,.5-0.1c0.49-.22.89-0.58,1.36-0.82C1788.87,261.91,1788.91,261.9,1788.86,261.81Z" transform="translate(-1721.06 -206.38)" style="fill:#dfe3ed"/><path d="M1782.48,258.42a0.06,0.06,0,0,1,0,0L1776.1,249a0.06,0.06,0,1,1,.09-0.06l6.34,9.36a0.06,0.06,0,0,1,0,.08h0Z" transform="translate(-1721.06 -206.38)" style="fill:#c7cedd"/><path d="M1787.6,258.67a0.06,0.06,0,0,1,0,0l-9.26-13.82a0.06,0.06,0,1,1,.09-0.06l9.26,13.82a0.06,0.06,0,0,1,0,.08h0Z" transform="translate(-1721.06 -206.38)" style="fill:#c7cedd"/><path d="M1792.6,227.69a3.11,3.11,0,0,1-1.74,2.08c-1.58.87-4.45,4.09-3.33,6.7,0,0-1.76-1.51-1.45-6.23,0.29-4.55,2.17-5.14,3.26-5.52s2.71-.28,3.31.41a1.47,1.47,0,0,1,1.21-.66,4.89,4.89,0,0,1,5,4,12,12,0,0,1-.83,7.28s0.62-1.72-1.32-3.88C1795.54,230.54,1793,229.15,1792.6,227.69Z" transform="translate(-1721.06 -206.38)" style="fill:#8a644a"/><path d="M1791.37,225.35a2.93,2.93,0,0,1-1.56-.91,1.33,1.33,0,0,1,0-1.68,1.68,1.68,0,0,1,1.59-.28,1.13,1.13,0,1,1,1.95-.76,1,1,0,1,1,1.78.92,1.43,1.43,0,0,1,1.72,2,1.86,1.86,0,0,1-1,.82,4.36,4.36,0,0,1-1.32.2A10.08,10.08,0,0,1,1791.37,225.35Z" transform="translate(-1721.06 -206.38)" style="fill:#8a644a"/><path d="M1798,233.37a27.38,27.38,0,0,1-1.93,10.13,32.19,32.19,0,0,0,2.21-5.67,10.79,10.79,0,0,0,0-6Z" transform="translate(-1721.06 -206.38)" style="fill:#8a644a"/><path d="M1787.6,233.37a27.38,27.38,0,0,0,1.93,10.13,32.19,32.19,0,0,1-2.21-5.67,10.79,10.79,0,0,1,0-6Z" transform="translate(-1721.06 -206.38)" style="fill:#8a644a"/><path d="M1793.35,237.19a0.6,0.6,0,0,1,.23.35,0.55,0.55,0,0,1-.07.34,1,1,0,0,1-1,.51,1.26,1.26,0,0,1-1-.53,0.52,0.52,0,0,1-.06-0.55,0.51,0.51,0,0,1,.18-0.17,1.54,1.54,0,0,1,.85-0.25A1.34,1.34,0,0,1,1793.35,237.19Z" transform="translate(-1721.06 -206.38)" style="fill:#b56969"/><path d="M1796.28,233.22a1.27,1.27,0,0,1,0,.92,0.64,0.64,0,0,1-.76.39,0.63,0.63,0,0,1-.37-0.43,1.27,1.27,0,0,1,0-.58,1.07,1.07,0,0,1,.25-0.56,0.5,0.5,0,0,1,.57-0.12A0.67,0.67,0,0,1,1796.28,233.22Z" transform="translate(-1721.06 -206.38)" style="fill:#471d1d"/><path d="M1796.14,233a0.72,0.72,0,0,0,.43-0.13,0.45,0.45,0,0,1-.36.5Z" transform="translate(-1721.06 -206.38)" style="fill:#471d1d"/><path d="M1792.75,237.83h-0.34a1.27,1.27,0,0,1-1.28-.8,0.15,0.15,0,1,1,.29-0.09,1,1,0,0,0,1,.58,1.22,1.22,0,0,0,1.27-.37,0.15,0.15,0,0,1,.16-0.14,0.15,0.15,0,0,1,.14.16,0.68,0.68,0,0,1-.4.46A1.92,1.92,0,0,1,1792.75,237.83Z" transform="translate(-1721.06 -206.38)" style="fill:#db9671"/><path d="M1792.57,235.72a0.48,0.48,0,0,1-.21,0,0.8,0.8,0,0,1-.41-0.56,0.81,0.81,0,0,1,0-.41,0.48,0.48,0,0,1,.31-0.35,0.66,0.66,0,0,1,.25,0,0.34,0.34,0,0,0,.15,0,0.36,0.36,0,0,0,.09-0.24,6.68,6.68,0,0,0,0-1.32,0.15,0.15,0,0,1,.14-0.16,0.15,0.15,0,0,1,.16.14,7,7,0,0,1,0,1.38,0.58,0.58,0,0,1-.26.47,0.56,0.56,0,0,1-.31,0,0.44,0.44,0,0,0-.14,0,0.19,0.19,0,0,0-.11.14,0.66,0.66,0,0,0,.26.62,0.22,0.22,0,0,0,.19,0,0.1,0.1,0,0,0,.06-0.08,0.15,0.15,0,0,1,.3,0,0.4,0.4,0,0,1-.2.31A0.52,0.52,0,0,1,1792.57,235.72Z" transform="translate(-1721.06 -206.38)" style="fill:#db9671"/><path d="M1795.12,231.39a0.22,0.22,0,0,0,.16.07l1.75,0.24a0.44,0.44,0,0,0-.07-0.42,0.83,0.83,0,0,0-.36-0.25,1.55,1.55,0,0,0-1.34.1A0.21,0.21,0,0,0,1795.12,231.39Z" transform="translate(-1721.06 -206.38)" style="fill:#77533a"/><path d="M1789.29,233.22a1.27,1.27,0,0,0,0,.92,0.64,0.64,0,0,0,.76.39,0.63,0.63,0,0,0,.37-0.43,1.27,1.27,0,0,0,0-.58,1.07,1.07,0,0,0-.25-0.56,0.5,0.5,0,0,0-.57-0.12A0.67,0.67,0,0,0,1789.29,233.22Z" transform="translate(-1721.06 -206.38)" style="fill:#471d1d"/><path d="M1789.43,233a0.72,0.72,0,0,1-.43-0.13,0.45,0.45,0,0,0,.36.5Z" transform="translate(-1721.06 -206.38)" style="fill:#471d1d"/><path d="M1790.45,231.39a0.22,0.22,0,0,1-.16.07l-1.75.24a0.44,0.44,0,0,1,.07-0.42A0.83,0.83,0,0,1,1789,231a1.55,1.55,0,0,1,1.34.1A0.21,0.21,0,0,1,1790.45,231.39Z" transform="translate(-1721.06 -206.38)" style="fill:#77533a"/><path d="M1775.86,231.15a2.75,2.75,0,0,0-.69-0.92,0.94,0.94,0,0,0-1.08-.09,0.85,0.85,0,0,0-.33.66,1.56,1.56,0,0,0,.18.74,2.77,2.77,0,0,0,2.9,1.46Z" transform="translate(-1721.06 -206.38)" style="fill:#fdcd9a"/><path d="M1782.71,234.33a1.09,1.09,0,0,1-.67-0.28,0.93,0.93,0,0,1-.28-0.6,0.15,0.15,0,0,1,.3,0,0.64,0.64,0,0,0,.19.41,0.85,0.85,0,0,0,.9.12,0.52,0.52,0,0,0,.26-0.67,0.15,0.15,0,1,1,.27-0.13,0.82,0.82,0,0,1-.39,1.07A1.09,1.09,0,0,1,1782.71,234.33Z" transform="translate(-1721.06 -206.38)" style="fill:#db9671"/><path d="M1784.17,229.5a1.19,1.19,0,0,0,.15.71,0.57,0.57,0,0,0,.63.26,0.55,0.55,0,0,0,.32-0.39,1,1,0,0,0,0-.52,1,1,0,0,0-.32-0.52,0.48,0.48,0,0,0-.58,0A0.66,0.66,0,0,0,1784.17,229.5Z" transform="translate(-1721.06 -206.38)" style="fill:#471d1d"/><path d="M1779,229.68a1.27,1.27,0,0,0,0,.91,0.64,0.64,0,0,0,.78.33,0.63,0.63,0,0,0,.34-0.45,1.27,1.27,0,0,0,0-.58,1.07,1.07,0,0,0-.29-0.54,0.5,0.5,0,0,0-.58-0.08A0.67,0.67,0,0,0,1779,229.68Z" transform="translate(-1721.06 -206.38)" style="fill:#471d1d"/><path d="M1783.49,226.74a1.85,1.85,0,0,0,.16,1.06,6.07,6.07,0,0,1,2.51.22q0-.54,0-1.07a0.27,0.27,0,0,0-.32-0.32A18.62,18.62,0,0,0,1783.49,226.74Z" transform="translate(-1721.06 -206.38)" style="fill:#4c3018"/><path d="M1780.2,226.92a1.85,1.85,0,0,1,0,1.07,6.07,6.07,0,0,0-2.46.57q-0.11-.53-0.16-1.06a0.27,0.27,0,0,1,.28-0.36A18.62,18.62,0,0,1,1780.2,226.92Z" transform="translate(-1721.06 -206.38)" style="fill:#4c3018"/><path d="M1782.79,232.15a0.56,0.56,0,0,1-.22-0.05,0.43,0.43,0,0,1-.25-0.31,0.15,0.15,0,1,1,.29-0.05,0.14,0.14,0,0,0,.08.09,0.26,0.26,0,0,0,.23,0,0.63,0.63,0,0,0,.24-0.45,0.62,0.62,0,0,0,0-.3,0.23,0.23,0,0,0-.15-0.15,0.51,0.51,0,0,0-.17,0,0.51,0.51,0,0,1-.67-0.5,7.87,7.87,0,0,1-.19-1.54,0.15,0.15,0,1,1,.3,0,7.57,7.57,0,0,0,.18,1.49,0.39,0.39,0,0,0,.14.28,0.39,0.39,0,0,0,.18,0,0.73,0.73,0,0,1,.28,0,0.53,0.53,0,0,1,.38.35,0.9,0.9,0,0,1,0,.45,0.88,0.88,0,0,1-.39.67A0.54,0.54,0,0,1,1782.79,232.15Z" transform="translate(-1721.06 -206.38)" style="fill:#db9671"/><path d="M1780.65,258.53l0-.36a0.16,0.16,0,0,0-.2-0.18l-1.46,0,0,0.62a0.28,0.28,0,0,0,0,.17,0.27,0.27,0,0,0,.22.07,6.91,6.91,0,0,0,1.26-.13,0.22,0.22,0,0,0,.12-0.05A0.23,0.23,0,0,0,1780.65,258.53Z" transform="translate(-1721.06 -206.38)" style="fill:#d8d9d8"/><path d="M1779.37,258.85v0.36a0.76,0.76,0,0,0,.14.58,0.46,0.46,0,0,0,.59,0,0.76,0.76,0,0,0,.26-0.57,2.24,2.24,0,0,0-.1-0.64A2.57,2.57,0,0,0,1779.37,258.85Z" transform="translate(-1721.06 -206.38)" style="fill:#d8d9d8"/><path d="M1779.32,244.25a0.65,0.65,0,0,0,.47-0.13,0.43,0.43,0,0,0,.1-0.35,1.27,1.27,0,0,0-.12-0.36,8.5,8.5,0,0,0-1.65,0l0.07,0.85h1.12Z" transform="translate(-1721.06 -206.38)" style="fill:#d8d9d8"/><path d="M1783.52,252.18a0.06,0.06,0,0,1-.06-0.05c-0.08-2-.54-11.95-0.55-12A0.06,0.06,0,0,1,1783,240a0.05,0.05,0,0,1,.06.05c0,0.1.47,10,.55,12a0.06,0.06,0,0,1-.05.06h0Z" transform="translate(-1721.06 -206.38)" style="fill:#c7cedd"/><path d="M1780.93,239l-0.87.84a0.17,0.17,0,0,0-.07.11,0.17,0.17,0,0,0,.12.13l1.07,0.55Z" transform="translate(-1721.06 -206.38)" style="fill:#91b5bb"/><path d="M1785.06,239.1l0.76,0.63a0.18,0.18,0,0,1,0,.35l-0.91.62Z" transform="translate(-1721.06 -206.38)" style="fill:#91b5bb"/><path d="M1782.61,240.2a0.55,0.55,0,0,0,.21-0.44,0.56,0.56,0,0,0-.25-0.33,6.66,6.66,0,0,0-1.6-.9,4.08,4.08,0,0,0,0,2.56,0.11,0.11,0,0,0,.17.09A4.22,4.22,0,0,0,1782.61,240.2Z" transform="translate(-1721.06 -206.38)" style="fill:#afd0d8"/><path d="M1783.48,240.2a0.55,0.55,0,0,1-.21-0.44,0.56,0.56,0,0,1,.25-0.33,6.66,6.66,0,0,1,1.6-.9,4.08,4.08,0,0,1,0,2.56,0.11,0.11,0,0,1-.17.09A4.22,4.22,0,0,1,1783.48,240.2Z" transform="translate(-1721.06 -206.38)" style="fill:#afd0d8"/><path d="M1783.51,239.92q0-.18,0-0.37a0.28,0.28,0,0,0-.07-0.19,0.27,0.27,0,0,0-.17,0,3,3,0,0,0-.69,0l0,0.64a0.13,0.13,0,0,0,.15.15l0.5,0a0.3,0.3,0,0,0,.27-0.08A0.29,0.29,0,0,0,1783.51,239.92Z" transform="translate(-1721.06 -206.38)" style="fill:#afd0d8"/></svg>