<svg xmlns="http://www.w3.org/2000/svg" viewBox="0 0 62.42 54.22"><title>img-20-shoebox</title><polygon points="53.15 27.09 53.15 6.47 37 23.97 36.9 44.59 53.15 27.09" style="fill:#333"/><polygon points="0.65 44.59 36.92 44.59 37 23.97 0.69 23.97 0.65 44.59" style="fill:#454545"/><polygon points="32.94 25.84 30.07 32.68 18.78 32.68 21.94 25.84 32.94 25.84" style="fill:#428e4a"/><polygon points="31.73 25.66 29.22 31.68 20.5 31.68 23.28 25.66 31.73 25.66" style="fill:none;stroke:#fff;stroke-miterlimit:10;stroke-width:0.30191162504507px"/><polygon points="25.33 24.92 21.09 34.85 9.8 34.85 14.33 24.92 25.33 24.92" style="fill:#428e4a"/><polygon points="24.12 24.75 20.24 33.84 11.52 33.84 15.67 24.75 24.12 24.75" style="fill:none;stroke:#fff;stroke-miterlimit:10;stroke-width:0.30191162504507px"/><polygon points="49.71 12.4 54.43 17.97 50.62 22.84 45.3 17.16 49.71 12.4" style="fill:#428e4a"/><polygon points="48.04 11.66 53.59 17.9 50.48 21.59 44.44 15.25 48.04 11.66" style="fill:none;stroke:#fff;stroke-miterlimit:10;stroke-width:0.303689649671305px"/><polygon points="42.8 15.93 47.52 21.49 43.71 26.36 38.39 20.68 42.8 15.93" style="fill:#428e4a"/><polygon points="41.13 15.19 46.67 21.43 43.57 25.11 37.53 18.77 41.13 15.19" style="fill:none;stroke:#fff;stroke-miterlimit:10;stroke-width:0.303689649671305px"/><polygon points="16.34 0 53.78 0 37.63 17.5 0.09 17.5 16.34 0" style="fill:#434343"/><polygon points="53.78 8.34 53.78 0 37.63 17.5 37.53 25.84 53.78 8.34" style="fill:#2b2b2b"/><polygon points="0 25.72 37.53 25.72 37.63 17.61 0.17 17.61 0 25.72" style="fill:#565656"/><ellipse cx="27.73" cy="52.24" rx="2.89" ry="1.08" style="fill:#727373"/><ellipse cx="27.73" cy="51.89" rx="2.89" ry="1.08" style="fill:#c9c9c9"/><ellipse cx="21.6" cy="49.89" rx="2.89" ry="1.08" style="fill:#727373"/><ellipse cx="21.6" cy="49.54" rx="2.89" ry="1.08" style="fill:#c9c9c9"/><ellipse cx="22.36" cy="53.14" rx="2.89" ry="1.08" style="fill:#727373"/><ellipse cx="22.36" cy="52.79" rx="2.89" ry="1.08" style="fill:#c9c9c9"/><ellipse cx="59.53" cy="37" rx="2.89" ry="1.08" style="fill:#727373"/><ellipse cx="59.53" cy="36.65" rx="2.89" ry="1.08" style="fill:#c9c9c9"/><ellipse cx="53.4" cy="34.65" rx="2.89" ry="1.08" style="fill:#727373"/><ellipse cx="53.4" cy="34.3" rx="2.89" ry="1.08" style="fill:#c9c9c9"/><ellipse cx="54.16" cy="37.9" rx="2.89" ry="1.08" style="fill:#727373"/><ellipse cx="54.16" cy="37.56" rx="2.89" ry="1.08" style="fill:#c9c9c9"/></svg>