<svg xmlns="http://www.w3.org/2000/svg" viewBox="0 0 297.61 130.46"><title>img-40-golf</title><path d="M2539.76,652.82h0c-29.5-30.29-12.87-42.55-12.87-46.87,0-6.62-19.18-12-42.85-12s-34.36,8.7-46.78,17.28-48.17,16-71.08,20.37h0c-39,5.68-65.62,17.09-65.62,30.24,0,18.82,54.52,34.07,121.78,34.07s121.78-15.25,121.78-34.07C2544.09,658.72,2542.58,655.69,2539.76,652.82Z" transform="translate(-2300.54 -589.95)" style="opacity:0.05"/><path d="M2539.76,648.82h0c-29.5-30.29-12.87-42.55-12.87-46.87,0-6.62-19.18-12-42.85-12s-34.36,8.7-46.78,17.28-48.17,16-71.08,20.37h0c-39,5.68-65.62,17.09-65.62,30.24,0,18.82,54.52,34.07,121.78,34.07s121.78-15.25,121.78-34.07C2544.09,654.72,2542.58,651.69,2539.76,648.82Z" transform="translate(-2300.54 -589.95)" style="fill:#109b48"/><ellipse cx="59.22" cy="77.53" rx="19.74" ry="5.52" style="fill:#12703a"/><path d="M2359.76,662c-10.9,0-19.74,2.47-19.74,5.52a1.67,1.67,0,0,0,.13.62c2.75-2.12,10-3.65,18.54-3.65,10.14,0,18.49,2.14,19.6,4.9a2.52,2.52,0,0,0,1.19-1.88C2379.5,664.44,2370.66,662,2359.76,662Z" transform="translate(-2300.54 -589.95)" style="fill:#10592e"/><circle cx="101.68" cy="14.95" r="6.16" style="fill:#fff"/><ellipse cx="101.78" cy="21.34" rx="5.31" ry="1.48" style="opacity:0.05"/><path d="M2406.86,600.82a6.15,6.15,0,0,1-10.59,5.58A6.15,6.15,0,1,0,2406.86,600.82Z" transform="translate(-2300.54 -589.95)" style="fill:#d8d8d8"/><circle cx="111.5" cy="61.66" r="7.83" style="fill:#fff"/><ellipse cx="111.63" cy="69.79" rx="6.75" ry="1.89" style="opacity:0.05"/><path d="M2417.94,646.41a7.82,7.82,0,0,1-13.48,7.1A7.83,7.83,0,1,0,2417.94,646.41Z" transform="translate(-2300.54 -589.95)" style="fill:#d8d8d8"/><circle cx="95.53" cy="19.9" r="6.16" style="fill:#fff"/><ellipse cx="95.63" cy="26.29" rx="5.31" ry="1.48" style="opacity:0.05"/><path d="M2400.7,605.76a6.15,6.15,0,0,1-10.59,5.58A6.15,6.15,0,1,0,2400.7,605.76Z" transform="translate(-2300.54 -589.95)" style="fill:#d8d8d8"/><rect x="25.72" y="120.96" width="212.08" height="4.83" rx="1" ry="1" style="fill:#c6c6c5"/><path d="M2322.75,720.42h4.13a2,2,0,0,0,2-2v-2.67L2323,703.42a2,2,0,0,0-2-2l-6.13-.67v2.67s5.43,14.64,5.67,15.32A2.59,2.59,0,0,0,2322.75,720.42Z" transform="translate(-2300.54 -589.95)" style="fill:#aeadae"/><rect x="25.72" y="124.48" width="212.08" height="1.31" style="fill:#aeadae"/><path d="M2322.75,717.75h4.13a2,2,0,0,0,2-2s-5.42-14.12-5.74-15-1-2-2.14-2h-4.13a2,2,0,0,0-2,2s5.66,14.35,5.88,15S2321.65,717.75,2322.75,717.75Z" transform="translate(-2300.54 -589.95)" style="fill:#c6c6c5"/><rect x="234.36" y="120.02" width="63.26" height="6.71" rx="2" ry="2" style="fill:#282828"/></svg>