<svg xmlns="http://www.w3.org/2000/svg" viewBox="0 0 209.52 181.02"><title>img-30-bookshelf</title><polygon points="176.67 158.98 0 158.98 12.13 181.02 199.5 181.02 176.67 158.98" style="opacity:0.05"/><polygon points="178.67 158.98 2 158.98 6 44.47 178.67 42.47 178.67 158.98" style="opacity:0.1"/><rect x="7" y="42.47" width="176.67" height="116.51" style="fill:#4b2e15"/><polygon points="183.67 158.98 7 158.98 19.13 174.2 206.5 174.2 183.67 158.98" style="fill:#68421d"/><polygon points="206.5 174.2 183.67 158.98 183.67 42.47 206.5 57.69 206.5 174.2" style="fill:#583714"/><polygon points="16.11 117.27 209.52 117.27 184.24 102.04 7 102.04 16.11 117.27" style="fill:#68421d"/><rect x="66.34" y="71.86" width="7.08" height="42.57" style="fill:#732728"/><polygon points="61.3 102.04 66.34 114.42 66.34 71.86 61.3 64.48 61.3 102.04" style="fill:#662427"/><polygon points="67.38 64.48 61.3 64.48 66.34 71.86 73.42 71.86 67.38 64.48" style="fill:#85353a"/><polygon points="66.61 64.48 62.11 64.48 66.78 71.2 71.94 71.2 66.61 64.48" style="fill:#d8d8d8"/><rect x="1787.56" y="434.7" width="7.08" height="42.57" transform="translate(558.75 -1680.25) rotate(90)" style="fill:#732728"/><polygon points="111.68 102.27 124.06 107.32 81.49 107.32 74.11 102.27 111.68 102.27" style="fill:#662427"/><polygon points="74.11 108.35 74.11 102.27 81.49 107.32 81.49 114.4 74.11 108.35" style="fill:#85353a"/><polygon points="74.11 107.58 74.11 103.08 80.84 107.75 80.84 112.91 74.11 107.58" style="fill:#d8d8d8"/><rect x="56.77" y="71.86" width="7.08" height="42.57" style="fill:#732728"/><polygon points="51.72 102.04 56.77 114.42 56.77 71.86 51.72 64.48 51.72 102.04" style="fill:#662427"/><polygon points="57.8 64.48 51.72 64.48 56.77 71.86 63.85 71.86 57.8 64.48" style="fill:#85353a"/><polygon points="57.03 64.48 52.53 64.48 57.2 71.2 62.36 71.2 57.03 64.48" style="fill:#d8d8d8"/><rect x="48.18" y="71.86" width="7.08" height="42.57" style="fill:#732728"/><polygon points="43.13 102.04 48.18 114.42 48.18 71.86 43.13 64.48 43.13 102.04" style="fill:#662427"/><polygon points="49.21 64.48 43.13 64.48 48.18 71.86 55.26 71.86 49.21 64.48" style="fill:#85353a"/><polygon points="48.44 64.48 43.94 64.48 48.61 71.2 53.77 71.2 48.44 64.48" style="fill:#d8d8d8"/><rect x="39.59" y="71.86" width="7.08" height="42.57" style="fill:#732728"/><polygon points="34.54 102.04 39.59 114.42 39.59 71.86 34.54 64.48 34.54 102.04" style="fill:#662427"/><polygon points="40.62 64.48 34.54 64.48 39.59 71.86 46.67 71.86 40.62 64.48" style="fill:#85353a"/><polygon points="39.85 64.48 35.35 64.48 40.02 71.2 45.18 71.2 39.85 64.48" style="fill:#d8d8d8"/><rect x="31" y="71.86" width="7.08" height="42.57" style="fill:#732728"/><polygon points="25.95 102.04 31 114.42 31 71.86 25.95 64.48 25.95 102.04" style="fill:#662427"/><polygon points="32.03 64.48 25.95 64.48 31 71.86 38.08 71.86 32.03 64.48" style="fill:#85353a"/><polygon points="31.27 64.48 26.77 64.48 31.44 71.2 36.59 71.2 31.27 64.48" style="fill:#d8d8d8"/><rect x="22.67" y="71.86" width="7.08" height="42.57" style="fill:#732728"/><polygon points="17.62 102.04 22.67 114.42 22.67 71.86 17.62 64.48 17.62 102.04" style="fill:#662427"/><polygon points="23.7 64.48 17.62 64.48 22.67 71.86 29.75 71.86 23.7 64.48" style="fill:#85353a"/><polygon points="22.93 64.48 18.43 64.48 23.1 71.2 28.26 71.2 22.93 64.48" style="fill:#d8d8d8"/><polygon points="16.11 174.2 7 158.98 7 42.47 16.11 57.69 16.11 174.2" style="fill:#583714"/><polygon points="16.11 57.69 209.52 57.69 184.24 42.47 7 42.47 16.11 57.69" style="fill:#68421d"/><rect x="16.11" y="57.69" width="3.02" height="116.51" style="fill:#754a27"/><rect x="206.5" y="57.69" width="3.02" height="116.51" style="fill:#754a27"/><rect x="1799.68" y="309.92" width="3.02" height="188.81" transform="translate(517.19 -1741.99) rotate(90)" style="fill:#754a27"/><rect x="1799.68" y="369.5" width="3.02" height="188.81" transform="translate(576.77 -1682.42) rotate(90)" style="fill:#754a27"/><rect x="1799.68" y="422.81" width="3.02" height="188.81" transform="translate(630.08 -1629.1) rotate(90)" style="fill:#754a27"/><ellipse cx="104.1" cy="50.03" rx="28.33" ry="3.7" style="opacity:0.1"/><path d="M1821.22,368c0,4.89-2.3,9.39-6.15,13-2.1,1.95,2.59,13-6.26,14-6.48.79-6.12-7.27-8.78-6.73a39.87,39.87,0,0,1-15.2.08c-2.81-.54-2.78,8.73-11.32,5.88-6.23-2.08-1.64-11.08-3.64-12.84a21.94,21.94,0,0,1-3.46-3.82c-2-2.87-9.88,1.4-11.2-10.09-0.15-1.3-.78-3.86,1.32-5,2.57-1.38,7.22.41,9-2.7a20.31,20.31,0,0,1,2.9-3.82c6.11-7.51-4.61-9.37-1.93-10.77,2.08-1.09,10.58,4.37,15.66,3a38.81,38.81,0,0,1,10.07-1.31c9.31,0,17.59,3.18,22.89,8.13,3.76,3.36,4.73-8,6.1-6.71,4.58,4.27-.76,12.87-0.36,14.66A34.22,34.22,0,0,1,1821.22,368Z" transform="translate(-1688.33 -345.12)" style="fill:#e9b5b9"/><path d="M1757.7,365c-0.51,6.78,1.91,10,1.37,9.83s-3.76-3.51-3.34-10.34a1.32,1.32,0,0,1,1.39-1.33C1757.66,363.29,1757.77,364.08,1757.7,365Z" transform="translate(-1688.33 -345.12)" style="fill:#c4979c"/><path d="M1814.25,381c-2,1,3.4,13-5.45,14-6.48.79-6.12-8.08-8.78-7.54a39.35,39.35,0,0,1-7.8.77,48.64,48.64,0,0,1-8.21-.69c-2.81-.54-1.15,9.54-9.69,6.69-6.23-2.08-1.64-11.08-3.64-12.84a27.35,27.35,0,0,1-3.46-3.82c3.33,1.44,18.27-1.85,25.33,3.23S1812.79,381.61,1814.25,381Z" transform="translate(-1688.33 -345.12)" style="fill:#c4979c"/><path d="M1821.73,349.33c2,3.1.66,7.37,0.66,7.37s-1.12,3-1.63,4.73C1822.44,353.3,1820.56,349.59,1821.73,349.33Z" transform="translate(-1688.33 -345.12)" style="fill:#c4979c"/><path d="M1767,346.18c0.46-.2,3.87.05,7.63,5.19,1.83,2.34-5,3.3-3.89,2S1770.66,347.35,1767,346.18Z" transform="translate(-1688.33 -345.12)" style="fill:#c4979c"/><path d="M1763.69,371.87c0.81,0.81,1.42,1.36,1.42,1.36s-0.41,2.44.34,3.39c0.61,0.47,1.36,1.15,1.36,1.15s-1.56-2.58-1.15-4.34a2,2,0,0,0,1.56-.61A5,5,0,0,1,1763.69,371.87Z" transform="translate(-1688.33 -345.12)"/><ellipse cx="1767.51" cy="359.4" rx="1.19" ry="0.51" transform="translate(-702.75 1639.66) rotate(-75.8)"/><path d="M1804.21,352.42c-4.59-3.34-12.53-4-17.72-1.78" transform="translate(-1688.33 -345.12)" style="fill:none;stroke:#110e11;stroke-miterlimit:10;stroke-width:0.5px"/></svg>