<svg xmlns="http://www.w3.org/2000/svg" viewBox="0 0 147.08 183.06"><title>img-40-person-shirt</title><g style="isolation:isolate"><polygon points="90.47 18.67 69.93 37.83 48.08 18.87 35.44 18.27 70.75 65.92 103.5 13.04 90.47 18.67" style="fill:#c9c9c9"/><path d="M2742.54,326.82c-1.33-18.13-7.41-72.38-14.79-81.05-2.76-3.24-13.28-9.12-21.25-14.11-4.39-2.75-8.39-5.23-10.68-6.84a36.9,36.9,0,0,1-3.17-4.94c-2.72,15.28-10.48,34.81-26.7,34.81s-26.91-23.57-25.86-31.17l-4.88,4.5c-1.75,1.24-4,2.75-6.53,4.4-6.61,4.38-15.85,9.69-19,13.35-7.38,8.67-12.9,64.13-14.23,82.27-0.81,4.92,14.22,57.31,17.42,62.65,0.42,0.71,4.87,1,5.19.6a104.44,104.44,0,0,0,10.13-15.51c1.65-2.46,1.85-4.7,1-8.12,6.89,3.61,45.41,14.28,79.06.06-0.86,3.38-.65,5.61,1,8.05a96.79,96.79,0,0,0,10,15.7c0.32,0.39,5.76-.06,6.18-0.77C2729.86,383.84,2742.59,333,2742.54,326.82Zm-122.2,10.32c-0.91-4.5.47-6.37,0.33-7.27-0.08-.56-1.54-1.45-1.63-1.86s1.3-1.37,1.24-2.26c0-.43-1.6-1.32-1.73-1.85a8,8,0,0,1-.16-2.08c1-5.41,2.63-17.48,4.16-26,0.37,9.56,2.35,25.16,2.35,31,0,9.13-.25,21.45.16,28.79-1.57-4.61-3-11.57-4.16-15.67C2620.71,339,2620.52,338,2620.34,337.14Zm98.58-13.24c-0.13.53-1.7,1.42-1.73,1.85-0.06.89,1.36,1.7,1.24,2.26s-1.55,1.31-1.63,1.86c-0.14.89,1.25,2.77,0.33,7.27l-0.56,2.76c-1.09,3.73-2.34,10.26-3.74,14.43-0.39-10.15-1.91-26.09-2-29.59-0.12-8.95,1.72-26.6,2.48-37.52,1.79,9.59,4.42,27.21,5.73,34.59A8,8,0,0,1,2718.92,323.9Z" transform="translate(-2595.46 -213.88)" style="fill:#264426"/><path d="M2699,226.91h0c-1.23-.79-2.3-1.5-3.14-2.1a36.9,36.9,0,0,1-3.17-4.94c-2.72,15.28-10.48,34.81-26.7,34.81s-26.91-23.57-25.86-31.17l-4.88,4.5-0.73.51c0.2,1.75,8.23,31.34,31.48,31.34S2698.4,228,2699,226.91Z" transform="translate(-2595.46 -213.88)" style="fill:#665422;opacity:0.7000000000000001;mix-blend-mode:screen"/><path d="M2642.73,216.92c1.27-1.36,5.51-2,5.51-2a62.44,62.44,0,0,1-1.65,9c-0.94,7.27,10.12,21,18.8,27.8-0.83-.41-7.79-5.69-8.59-5.95-3.66,3.87-6.63,11.14-7.82,15.63-3.59-6.65-11.08-18.62-15.78-33.11C2636.56,224.19,2640,219.88,2642.73,216.92Z" transform="translate(-2595.46 -213.88)" style="fill:#fef6e2"/><path d="M2657.74,244.54h0c-6.36-6.92-11.84-15.42-11.17-20.63a69.6,69.6,0,0,0,1.47-7.33l-3.72,2.82S2642.43,230.74,2657.74,244.54Z" transform="translate(-2595.46 -213.88)" style="fill:#d6cfab;mix-blend-mode:multiply"/><path d="M2691.25,215.91c-0.92-.5-4.45-2-4.45-2a50.6,50.6,0,0,0,1.87,8.9c0.4,6.31-14.28,20.24-23.28,28.93l9.06-6.51a41.37,41.37,0,0,1,8.37,15.24c7.11-10.12,14.23-20.19,19.52-32.38C2698.61,224.08,2691.93,216.28,2691.25,215.91Z" transform="translate(-2595.46 -213.88)" style="fill:#fef6e2"/><path d="M2690.64,217.71l-3.76-3.19v0h0a49.68,49.68,0,0,0,1.79,8.24c0.26,4.13-5.94,11.53-12.79,18.59h0C2694.2,225.45,2690.64,217.71,2690.64,217.71Z" transform="translate(-2595.46 -213.88)" style="fill:#d6cfab;opacity:0.7000000000000001;mix-blend-mode:multiply"/><path d="M2627.9,375.62c-1.16,8.14-3.59,13.67-9,21.32-0.51-.7-3.5-5.39-3.5-5.56C2622.75,384.9,2627.9,375.62,2627.9,375.62Z" transform="translate(-2595.46 -213.88)" style="fill:#f6b284"/><path d="M2709.25,375.78c0,6.56,3.13,13.86,8.88,20.58l3.93-5.45A53,53,0,0,1,2709.25,375.78Z" transform="translate(-2595.46 -213.88)" style="fill:#f6b284"/></g></svg>