<svg xmlns="http://www.w3.org/2000/svg" viewBox="0 0 298.42 223.56"><title>img-20-table</title><rect x="251.53" y="94.82" width="9.12" height="104.42" style="fill:#ab9455"/><rect x="38.04" y="94.82" width="9.12" height="104.42" style="fill:#ab9455"/><polygon points="274.15 89.81 24.94 89.81 45.71 196.58 296.12 196.58 274.15 89.81" style="opacity:0.05"/><polygon points="286.04 223.11 10.78 223.56 39.12 197.04 298.42 196.58 286.04 223.11" style="opacity:0.05"/><rect x="16.32" y="114.76" width="9.12" height="104.42" style="fill:#bda45c"/><rect x="245.89" y="114.76" width="9.12" height="104.42" style="fill:#bda45c"/><rect x="16.32" y="110.11" width="9.12" height="14.04" style="fill:#ab9455"/><rect x="245.89" y="110.11" width="9.12" height="14.04" style="fill:#ab9455"/><rect y="104.83" width="264.76" height="12" style="fill:#d6b868"/><polygon points="264.76 104.83 0 104.83 24.94 89.81 273.75 89.81 264.76 104.83" style="fill:#bda45c"/><polygon points="273.75 101.82 264.76 116.83 264.76 104.83 273.75 89.81 273.75 101.82" style="fill:#ab9455"/><polygon points="99.9 103.65 81.8 103.65 90.65 92.09 108.75 92.09 99.9 103.65" style="fill:#fff"/><polygon points="166.75 102.08 112.51 102.08 124.58 87.6 178.82 87.6 166.75 102.08" style="fill:#c0c0bf"/><rect x="112.51" y="102.08" width="54.24" height="2.08" style="fill:#cccccb"/><polygon points="166.75 102.08 178.82 87.6 178.82 89.68 166.75 104.16 166.75 102.08" style="fill:#b5b5b4"/><rect x="124.58" y="52.4" width="54.24" height="35.2" style="fill:#cccccb"/><rect x="126.26" y="55.59" width="50.89" height="30.19" style="fill:#77cdd1"/><rect x="150.66" y="53.64" width="2.08" height="0.71" style="fill:#282828"/><polygon points="227.48 70.69 227.48 57.72 223.74 49.58 220.19 44.85 213 44.85 219.21 46.72 220.95 50.21 223.72 58.7 222.56 70.69 227.48 70.69" style="fill:#63ad63"/><polygon points="235.17 70.69 235.88 58.7 233.02 48.15 231.52 43.59 226.85 41 232.84 42.43 235.88 47.88 239.28 58.7 240.62 70.69 235.17 70.69" style="fill:#63ad63"/><polygon points="221.94 70.69 220.59 60.22 215.59 52.4 210.58 48.69 201.28 51.46 210.85 46.72 218 50.74 223.72 59.69 226.85 70.69 221.94 70.69" style="fill:#77c477"/><polygon points="232.84 70.69 228.64 55.59 220.68 45.83 212.46 41.45 223.46 44.22 232.84 55.59 238.21 70.69 232.84 70.69" style="fill:#87c985"/><polygon points="228.64 70.69 232.84 57.81 238.21 51.1 245.89 48.96 236.33 48.96 229.21 57.63 223.19 70.69 228.64 70.69" style="fill:#77c477"/><polygon points="233.74 70.69 239.28 58.7 246.61 52.4 255.64 50.21 263.24 54.95 255.01 52.89 248.49 55.13 243.48 60.45 239.55 70.69 233.74 70.69" style="fill:#77c477"/><polygon points="225.06 70.69 220.19 64.51 213.35 65.41 219.21 66.3 221.94 70.69 225.06 70.69" style="fill:#87c985"/><polygon points="236.33 70.69 240.26 65.05 245.89 62.81 251.97 66.03 245.89 65.32 242.85 66.75 240.62 70.69 236.33 70.69" style="fill:#87c985"/><polygon points="240.71 92.09 222.34 92.09 220.19 73.72 242.85 73.72 240.71 92.09" style="fill:#cc8b5b"/><rect x="217.41" y="69.3" width="28.23" height="4.43" rx="1" ry="1" style="fill:#e4a576"/><polygon points="240.71 94.84 222.34 94.84 220.19 92.09 242.85 92.09 240.71 94.84" style="fill:#e4a576"/><path d="M188.55,392.53c0,5.7-20.65,5.7-20.65,0A10.33,10.33,0,0,1,188.55,392.53Z" transform="translate(-128 -298.7)" style="fill:#414242"/><circle cx="39.29" cy="35.91" r="5.3" style="fill:#414242"/><path d="M209.47,299.05a5.06,5.06,0,0,0-2.84,6.57l3,7.6-1.52,11.31L229,316.26l-10-6.77-3-7.6A5.06,5.06,0,0,0,209.47,299.05Z" transform="translate(-128 -298.7)" style="fill:#414242"/><line x1="39.29" y1="33.76" x2="82.4" y2="10.09" style="fill:none;stroke:#414242;stroke-miterlimit:10;stroke-width:2.14559435844421px"/><line x1="41.19" y1="36.98" x2="84.3" y2="13.31" style="fill:none;stroke:#414242;stroke-miterlimit:10;stroke-width:2.14559435844421px"/><line x1="47.46" y1="87.68" x2="38.07" y2="39.4" style="fill:none;stroke:#414242;stroke-miterlimit:10;stroke-width:2.14559435844421px"/><line x1="51.1" y1="86.85" x2="41.72" y2="38.57" style="fill:none;stroke:#414242;stroke-miterlimit:10;stroke-width:2.14559435844421px"/></svg>