<svg xmlns="http://www.w3.org/2000/svg" viewBox="0 0 112.69 122.35"><title>img-40-bear</title><path d="M2841.32,535.42c4-.68,7.23.77,10.32,5.44s17.42,9.85,19.37,4.36,6.34-12.75,14.69-8.12,4.88-13.61,4.88-13.61l-24.06-8.91-23.06,12.91Z" transform="translate(-2834.87 -468.55)" style="opacity:0.05"/><ellipse cx="28.81" cy="44.34" rx="17.2" ry="19.75" style="fill:#8a572c"/><circle cx="13.23" cy="10.03" r="7.89" style="fill:#7f4e2c"/><ellipse cx="43.9" cy="11.35" rx="5.78" ry="6.57" style="fill:#7f4e2c"/><path d="M2850.34,527.91a7.73,7.73,0,1,1-15.47,0c0-4.27,5.22-23,8.51-26.41,3.08-3.16,10.06-5.32,10.9-2.63C2856.47,505.94,2849.9,511.27,2850.34,527.91Z" transform="translate(-2834.87 -468.55)" style="fill:#7f4e2c"/><ellipse cx="27.89" cy="16.17" rx="17.56" ry="16.17" style="fill:#8a572c"/><ellipse cx="26.14" cy="15.64" rx="1.18" ry="1.59" style="fill:#101010"/><ellipse cx="34.47" cy="15.64" rx="1.18" ry="1.59" style="fill:#101010"/><ellipse cx="30.3" cy="23.86" rx="9.21" ry="8.47" style="fill:#9b633a"/><ellipse cx="31.97" cy="21.68" rx="3.16" ry="2.91" style="fill:#101010"/><ellipse cx="2860.14" cy="532.37" rx="10.62" ry="13.7" transform="translate(-2834.54 597.99) rotate(-21.12)" style="fill:#7f4e2c"/><ellipse cx="2861.01" cy="534.8" rx="11.18" ry="14.42" transform="matrix(0.82, -0.57, 0.57, 0.82, -2623.63, 1270.45)" style="fill:#8a572c"/><path d="M2880,514c2.84,2.62,6.51,4.55,9.72,6.4a32.94,32.94,0,0,0,11.33,4l-1.33,18.19s-3.67,2.06-19.83-9.8a49.43,49.43,0,0,0-6-3.93C2878.32,524.59,2879.46,522.75,2880,514Z" transform="translate(-2834.87 -468.55)" style="fill:#7f4e2c"/><ellipse cx="2901.3" cy="530.02" rx="13.19" ry="9.67" transform="translate(-1580.53 2508.09) rotate(-66.41)" style="fill:#8a572c"/><path d="M2895.79,518.09a7.73,7.73,0,1,1-15.47,0c0-2.68-8.25-14.4-8-19.8,0.14-3.19,7.78-1.67,10.07,0S2895.79,513.82,2895.79,518.09Z" transform="translate(-2834.87 -468.55)" style="fill:#7f4e2c"/><polygon points="62.1 115.8 43.77 108.8 62.1 101.8 80.44 108.8 62.1 115.8" style="opacity:0.05"/><polygon points="33.42 122.35 11.44 113.96 33.42 105.57 55.4 113.96 33.42 122.35" style="opacity:0.05"/><polygon points="62.1 91.78 43.77 84.78 43.77 106.82 62.1 113.82 62.1 91.78" style="fill:#b84747"/><polygon points="80.44 84.78 62.1 91.78 62.1 113.82 80.44 106.82 80.44 84.78" style="fill:#b84747"/><polygon points="62.1 91.78 43.77 84.78 62.1 77.78 80.44 84.78 62.1 91.78" style="fill:#ce4a4a"/><polygon points="62.1 90.13 48.1 84.78 62.1 79.44 76.1 84.78 62.1 90.13" style="fill:#b84a4a"/><polygon points="60.1 93.42 45.77 87.95 45.77 105.18 60.1 110.66 60.1 93.42" style="fill:#ab4444"/><polygon points="78.44 87.95 64.1 93.42 64.1 110.66 78.44 105.18 78.44 87.95" style="fill:#ab4444"/><polygon points="108.94 98.64 85.6 98.64 77.6 87.3 100.94 87.3 108.94 98.64" style="fill:#d6cd31"/><polygon points="112.69 122.35 84.85 122.35 75.31 108.83 103.15 108.83 112.69 122.35" style="opacity:0.05"/><polygon points="85.6 120.68 85.6 98.64 77.6 87.3 77.6 109.34 85.6 120.68" style="fill:#c4bc2f"/><rect x="85.6" y="98.64" width="23.33" height="22.04" style="fill:#e5e136"/><polygon points="33.44 98.64 15.1 91.64 15.1 113.68 33.44 120.68 33.44 98.64" style="fill:#4789c8"/><polygon points="51.77 91.64 33.44 98.64 33.44 120.68 51.77 113.68 51.77 91.64" style="fill:#3d78a0"/><rect x="87.9" y="100.8" width="18.75" height="17.71" style="fill:#cec632"/><polygon points="105.3 97.32 87.38 97.32 81.24 88.62 99.16 88.62 105.3 97.32" style="fill:#cabe30"/><polygon points="84.6 116.5 84.6 99.97 78.6 91.47 78.6 108 84.6 116.5" style="fill:#b5ab33"/><polygon points="33.44 98.64 15.1 91.64 33.44 84.64 51.77 91.64 33.44 98.64" style="fill:#417fb2"/><polygon points="33.44 96.98 19.44 91.64 33.44 86.29 47.44 91.64 33.44 96.98" style="fill:#3c77a0"/><polygon points="31.44 100.28 17.1 94.8 17.1 112.04 31.44 117.51 31.44 100.28" style="fill:#4483b8"/><polygon points="49.77 94.8 35.44 100.28 35.44 117.51 49.77 112.04 49.77 94.8" style="fill:#386f8e"/><polygon points="81.84 72.93 59.51 67.93 59.51 89.97 81.84 94.97 81.84 72.93" style="fill:#4789c8"/><polygon points="79.84 75.01 61.51 70.78 61.51 88.33 79.84 92.62 79.84 75.01" style="fill:#4483b8"/><polygon points="81.84 72.93 97.31 66.25 97.31 88.29 81.84 94.97 81.84 72.93" style="fill:#3d78a0"/><polygon points="81.84 72.93 97.31 66.25 74.98 61.25 59.51 67.93 81.84 72.93" style="fill:#417fb2"/><polygon points="83.46 74.92 95.69 69.64 95.69 87.05 83.46 92.33 83.46 74.92" style="fill:#386f8e"/><polygon points="81.11 71.69 93.29 66.43 75.71 62.49 63.52 67.75 81.11 71.69" style="fill:#3c77a0"/></svg>