<svg xmlns="http://www.w3.org/2000/svg" viewBox="0 0 274.89 209.26"><title>img-40-safe</title><polygon points="207.92 186.17 263.37 186.17 274.89 204.76 218.44 204.76 207.92 186.17" style="opacity:0.05"/><polygon points="220.95 202.05 212.06 187.19 212.06 141.06 220.95 149.73 220.95 202.05" style="fill:#3a3a3a"/><rect x="220.95" y="149.73" width="49.44" height="52.32" style="fill:#515251"/><polygon points="212.06 141.06 261.5 141.06 270.39 149.73 220.95 149.73 212.06 141.06" style="fill:#454545"/><rect x="225.18" y="154.21" width="40.98" height="43.37" style="fill:#5b5c5c"/><circle cx="245.67" cy="182.01" r="3.51" style="fill:#282828"/><rect x="3038.99" y="479.11" width="1.99" height="8.16" rx="0.73" ry="0.73" transform="translate(-1555.07 -2316.42) rotate(45)" style="fill:#282828"/><line x1="251.51" y1="176.18" x2="246.54" y2="181.14" style="fill:none;stroke:#282828;stroke-miterlimit:10;stroke-width:0.619305312633514px"/><rect x="3024.63" y="493.47" width="1.99" height="8.16" rx="0.73" ry="0.73" transform="translate(-1549.12 -2302.06) rotate(45)" style="fill:#282828"/><line x1="239.46" y1="188.22" x2="244.43" y2="183.26" style="fill:none;stroke:#282828;stroke-miterlimit:10;stroke-width:0.619305312633514px"/><rect x="3039.34" y="493.78" width="1.99" height="8.16" rx="0.73" ry="0.73" transform="translate(2755.09 -1608.3) rotate(135)" style="fill:#282828"/><line x1="251.87" y1="188.17" x2="246.91" y2="183.21" style="fill:none;stroke:#282828;stroke-miterlimit:10;stroke-width:0.619305312633514px"/><rect x="3024.98" y="479.42" width="1.99" height="8.16" rx="0.73" ry="0.73" transform="translate(2720.42 -1622.66) rotate(135)" style="fill:#282828"/><line x1="239.83" y1="176.13" x2="244.79" y2="181.09" style="fill:none;stroke:#282828;stroke-miterlimit:10;stroke-width:0.619305312633514px"/><circle cx="245.67" cy="182.01" r="2.04" style="fill:#3f403f"/><rect x="239.48" y="158.4" width="13.62" height="11" style="fill:#282828"/><rect x="240.85" y="159.52" width="2.74" height="1.56" style="fill:#999"/><rect x="249.02" y="159.52" width="2.74" height="1.56" style="fill:#999"/><rect x="244.98" y="159.52" width="2.74" height="1.56" style="fill:#999"/><rect x="240.85" y="161.96" width="2.74" height="1.56" style="fill:#999"/><rect x="249.02" y="161.96" width="2.74" height="1.56" style="fill:#999"/><rect x="244.98" y="161.96" width="2.74" height="1.56" style="fill:#999"/><rect x="240.85" y="164.4" width="2.74" height="1.56" style="fill:#999"/><rect x="249.02" y="164.4" width="2.74" height="1.56" style="fill:#999"/><rect x="244.98" y="164.4" width="2.74" height="1.56" style="fill:#999"/><rect x="240.85" y="166.87" width="2.74" height="1.56" style="fill:#999"/><rect x="249.02" y="166.87" width="2.74" height="1.56" style="fill:#999"/><rect x="244.98" y="166.87" width="2.74" height="1.56" style="fill:#999"/><polygon points="197.07 186.86 0 186.86 12.33 209.26 220.28 209.26 197.07 186.86" style="opacity:0.05"/><polygon points="181.59 186.86 2.03 186.86 6.1 18.72 181.59 16.69 181.59 186.86" style="opacity:0.1"/><rect x="7.11" y="19.93" width="179.56" height="156.77" style="fill:#332116"/><polygon points="186.67 176.69 7.12 176.69 19.44 192.17 209.88 192.17 186.67 176.69" style="fill:#3f2a1c"/><polygon points="189.75 14.26 10.19 14.26 22.51 29.74 212.96 29.74 189.75 14.26" style="fill:#3f2a1c"/><polygon points="209.88 192.17 186.67 176.69 186.67 19.93 209.88 35.41 209.88 192.17" style="fill:#3c2615"/><polygon points="16.37 117.2 212.96 117.2 187.25 101.72 7.12 101.72 16.37 117.2" style="fill:#3f2a1c"/><path d="M2803.5,343.76h196.58s-7.84-10.58-23.44-18.72c-18.13-9.46-46.76-16.69-85.78-16.69-72.59,0-96.62,18.18-96.62,18.18Z" transform="translate(-2787.13 -308.35)" style="fill:#3f2a1c"/><polygon points="16.37 202.56 7.12 187.08 7.12 14.26 16.37 29.74 16.37 202.56" style="fill:#3c2615"/><rect x="209.88" y="35.41" width="3.07" height="167.2" style="fill:#4c2f16"/><path d="M2803.5,343.78s29.78-30.18,98.29-30.18,98.29,30.18,98.29,30.18H2803.5Z" transform="translate(-2787.13 -308.35)" style="fill:#4c2f16"/><rect x="2900.31" y="331.13" width="3.07" height="191.9" transform="translate(541.8 -2783.11) rotate(90)" style="fill:#4c2f16"/><path d="M2805.89,510.91V496.85h191.9v14.06s-26.16,1.36-49.55,0c-22.07-1.28-41.29-5.45-46.4,0-5.43-5.23-25-1.57-45.46-.55C2831.65,511.6,2805.89,510.91,2805.89,510.91Z" transform="translate(-2787.13 -308.35)" style="fill:#4c2f16"/><path d="M2803.5,352.49v-14.4h196.58v14.4s-26.8,1.39-50.76,0c-22.61-1.31-42.29-5.58-47.53,0-5.57-5.36-25.6-1.61-46.57-.56C2829.89,353.2,2803.5,352.49,2803.5,352.49Z" transform="translate(-2787.13 -308.35)" style="fill:#4c2f16"/><polygon points="23.45 29.74 14.19 14.26 7.12 14.26 16.37 29.74 23.45 29.74" style="fill:#3f2a1c"/><rect x="66.55" y="68.82" width="7.08" height="42.57" style="fill:#732728"/><polygon points="61.5 99 66.55 111.38 66.55 68.82 61.5 61.44 61.5 99" style="fill:#662427"/><polygon points="67.58 61.44 61.5 61.44 66.55 68.82 73.63 68.82 67.58 61.44" style="fill:#85353a"/><polygon points="66.81 61.44 62.31 61.44 66.98 68.16 72.14 68.16 66.81 61.44" style="fill:#d8d8d8"/><rect x="2886.57" y="394.89" width="7.08" height="42.57" transform="translate(519.15 -2782.29) rotate(90)" style="fill:#732728"/><polygon points="111.89 99.23 124.26 104.28 81.7 104.28 74.32 99.23 111.89 99.23" style="fill:#662427"/><polygon points="74.32 105.31 74.32 99.23 81.7 104.28 81.7 111.36 74.32 105.31" style="fill:#85353a"/><polygon points="74.32 104.54 74.32 100.04 81.04 104.72 81.04 109.87 74.32 104.54" style="fill:#d8d8d8"/><rect x="56.97" y="68.82" width="7.08" height="42.57" style="fill:#732728"/><polygon points="51.92 99 56.97 111.38 56.97 68.82 51.92 61.44 51.92 99" style="fill:#662427"/><polygon points="58 61.44 51.92 61.44 56.97 68.82 64.05 68.82 58 61.44" style="fill:#85353a"/><polygon points="57.23 61.44 52.73 61.44 57.41 68.16 62.56 68.16 57.23 61.44" style="fill:#d8d8d8"/><rect x="48.38" y="68.82" width="7.08" height="42.57" style="fill:#732728"/><polygon points="43.33 99 48.38 111.38 48.38 68.82 43.33 61.44 43.33 99" style="fill:#662427"/><polygon points="49.41 61.44 43.33 61.44 48.38 68.82 55.46 68.82 49.41 61.44" style="fill:#85353a"/><polygon points="48.65 61.44 44.15 61.44 48.82 68.16 53.98 68.16 48.65 61.44" style="fill:#d8d8d8"/><rect x="39.79" y="68.82" width="7.08" height="42.57" style="fill:#732728"/><polygon points="34.75 99 39.79 111.38 39.79 68.82 34.75 61.44 34.75 99" style="fill:#662427"/><polygon points="40.83 61.44 34.75 61.44 39.79 68.82 46.88 68.82 40.83 61.44" style="fill:#85353a"/><polygon points="40.06 61.44 35.56 61.44 40.23 68.16 45.39 68.16 40.06 61.44" style="fill:#d8d8d8"/><rect x="31.21" y="68.82" width="7.08" height="42.57" style="fill:#732728"/><polygon points="26.16 99 31.21 111.38 31.21 68.82 26.16 61.44 26.16 99" style="fill:#662427"/><polygon points="32.24 61.44 26.16 61.44 31.21 68.82 38.29 68.82 32.24 61.44" style="fill:#85353a"/><polygon points="31.47 61.44 26.97 61.44 31.64 68.16 36.8 68.16 31.47 61.44" style="fill:#d8d8d8"/><rect x="22.87" y="68.82" width="7.08" height="42.57" style="fill:#732728"/><polygon points="17.82 99 22.87 111.38 22.87 68.82 17.82 61.44 17.82 99" style="fill:#662427"/><polygon points="23.91 61.44 17.82 61.44 22.87 68.82 29.95 68.82 23.91 61.44" style="fill:#85353a"/><polygon points="23.14 61.44 18.64 61.44 23.31 68.16 28.46 68.16 23.14 61.44" style="fill:#d8d8d8"/><rect x="16.37" y="35.41" width="3.07" height="167.2" style="fill:#4c2f16"/></svg>