<svg xmlns="http://www.w3.org/2000/svg" xmlns:xlink="http://www.w3.org/1999/xlink" viewBox="0 0 75.4 64"><defs><clipPath id="a" transform="translate(655.98 5256)"><path d="M-623.66-5256.67c-18.52,0-33.53,14.78-33.53,33s15,33,33.53,33,33.53-14.78,33.53-33S-605.14-5256.67-623.66-5256.67Zm26.27,45.44a11,11,0,0,1-11-11,11,11,0,0,1,11-11,11,11,0,0,1,11,11A11,11,0,0,1-597.38-5211.23Z" style="fill:none"/></clipPath></defs><title>img-mobile-icon-emergency</title><g style="clip-path:url(#a)"><path d="M-624-5256a32,32,0,0,0-32,32,32,32,0,0,0,32,32,32,32,0,0,0,32-32A32,32,0,0,0-624-5256Zm0,60a28,28,0,0,1-28-28,28,28,0,0,1,28-28,28,28,0,0,1,28,28A28,28,0,0,1-624-5196Zm0.66-30v-9a10.88,10.88,0,0,1,6.49,3.19l2.19-2.53a13.59,13.59,0,0,0-8.68-3.82V-5242H-626v3.78c-5.26.37-9.08,3.4-9.08,7.67,0,5.1,4.61,6.51,9.08,7.68v10.08a12.19,12.19,0,0,1-7.81-3.9l-2.19,2.65a14.44,14.44,0,0,0,10,4.36v3.69h2.68v-3.69c6.8-.46,9.34-4.36,9.34-8.09C-614-5223.23-618.81-5224.81-623.32-5226Zm-2.68-.67c-3-.83-5.31-1.83-5.31-4.11s2.19-4.15,5.31-4.36v8.46Zm2.68,13.9v-9.46c3.07,0.87,5.57,2,5.57,4.69C-617.75-5215.56-619.16-5213.19-623.32-5212.78Z" transform="translate(655.98 5256)" style="fill:#3c4042;fill-rule:evenodd"/></g><polygon points="72.41 18.77 75.4 21.77 60.43 38.74 57.44 35.75 72.41 18.77" style="fill:#3c4042;fill-rule:evenodd"/><rect x="-600.68" y="-5229.58" width="4.24" height="12.69" transform="translate(4175.64 3300.9) rotate(-45.03)" style="fill:#3c4042"/></svg>