<svg xmlns="http://www.w3.org/2000/svg" viewBox="0 0 249.78 177.63"><title>img-30-paper</title><path d="M1956.44,570.16L2061,542l-140.48-15.34s-107.6,21.34-109.3,22.62c0.74-.21,1.27.83,1.27,0.83Z" transform="translate(-1811.18 -392.53)" style="opacity:0.05"/><polygon points="175.47 135.46 215.74 147.19 224.5 147.89 183.38 136.31 175.47 135.46" style="fill:#c1c1c0"/><polygon points="172.6 136.31 180.33 137.21 180.29 129.81 172.37 128.96 172.6 136.31" style="fill:#b2b3b3"/><path d="M1952,505.26l65.49-17-126.28-11.37s-68.32,13.64-69.83,14.81a1.24,1.24,0,0,1,1.16.72Z" transform="translate(-1811.18 -392.53)" style="fill:#3d3d3d"/><path d="M2037.64,392.68s4.61,0.29,6.39,1.49l12.06,8.17a4.32,4.32,0,0,1,1.77,4.61l-20,81.25s-2,9.94-7.66,17a29.92,29.92,0,0,1-12.69,9.43s-64.7,18.71-65.15,18.83a12.94,12.94,0,0,1-2.34-.12l2-2.19v-26l65.49-17s22.77-88.9,23.28-91.6S2037.64,392.68,2037.64,392.68Z" transform="translate(-1811.18 -392.53)" style="fill:#313131"/><polygon points="180.33 137.21 180.29 129.81 183.13 128.96 183.2 136.36 180.33 137.21" style="fill:#969696"/><polygon points="172.6 136.31 144.22 171.91 151.88 172.54 180.33 137.21 172.6 136.31" style="fill:#c1c1c0"/><polygon points="144.22 171.91 136.09 173.55 145.64 174.77 151.88 172.54 144.22 171.91" style="fill:#b2b3b3"/><polygon points="48.32 123.54 20.65 154.49 28.31 155.12 56.76 123.54 48.32 123.54" style="fill:#c1c1c0"/><path d="M1952,505.26V531.6a1.81,1.81,0,0,1-2,1.8l-126.3-13.49a5.08,5.08,0,0,1-4.54-5.05v-20a3.37,3.37,0,0,1,3.73-3.35Z" transform="translate(-1811.18 -392.53)" style="fill:#4a494a"/><polygon points="20.65 154.49 12.52 156.13 22.07 157.34 28.31 155.12 20.65 154.49" style="fill:#b2b3b3"/><path d="M2040.68,397l-23.17,91.17-126.28-11.37,25.08-80.13a5.76,5.76,0,0,1,5.5-4h115.46A3.51,3.51,0,0,1,2040.68,397Z" transform="translate(-1811.18 -392.53)" style="fill:#4a494a"/><circle cx="123.99" cy="26.44" r="2" style="fill:#313131"/><circle cx="195.98" cy="26.44" r="2" style="fill:#313131"/><circle cx="159.99" cy="26.44" r="2" style="fill:#313131"/><path d="M1884.9,486.82a5.71,5.71,0,0,1-3.57.66c-1.29-.16-1.79-0.71-1.11-1.24a5.71,5.71,0,0,1,3.57-.66C1885.08,485.74,1885.58,486.29,1884.9,486.82Z" transform="translate(-1811.18 -392.53)" style="fill:#313131"/><path d="M1963.85,493.08a5.71,5.71,0,0,1-3.57.66c-1.29-.16-1.79-0.71-1.11-1.24a5.71,5.71,0,0,1,3.57-.66C1964,492,1964.53,492.55,1963.85,493.08Z" transform="translate(-1811.18 -392.53)" style="fill:#313131"/><path d="M1924.22,489.89a5.71,5.71,0,0,1-3.57.66c-1.29-.16-1.79-0.71-1.11-1.24a5.71,5.71,0,0,1,3.57-.66C1924.41,488.81,1924.9,489.37,1924.22,489.89Z" transform="translate(-1811.18 -392.53)" style="fill:#313131"/><circle cx="113.41" cy="59.69" r="2" style="fill:#313131"/><circle cx="183.4" cy="65.57" r="2" style="fill:#313131"/><circle cx="148.41" cy="62.19" r="2" style="fill:#313131"/><path d="M1945.08,392.68c-5.5,8.29-9.83,19.54-9.92,26.29-4.08,5.25-11.33,24.5-10.58,33.25-4.25,5-8.93,20.25-8.22,26.87" transform="translate(-1811.18 -392.53)" style="fill:none;stroke:#313131;stroke-miterlimit:10;stroke-width:0.5px"/><path d="M1981.63,392.68c-5.7,8.59-10.19,20.25-10.28,27.25-4.23,5.44-11.74,25.39-11,34.46-4.41,5.18-9.26,21-8.52,27.85" transform="translate(-1811.18 -392.53)" style="fill:none;stroke:#313131;stroke-miterlimit:10;stroke-width:0.518206520958202px"/><path d="M2017.51,392.68c-5.9,8.9-10.55,21-10.64,28.22-4.38,5.63-12.16,26.29-11.36,35.69-4.56,5.37-9.59,21.73-8.82,28.84" transform="translate(-1811.18 -392.53)" style="fill:none;stroke:#313131;stroke-miterlimit:10;stroke-width:0.53661721944809px"/><path d="M1910,417a101.08,101.08,0,0,0,25.2,2c6.92,3.25,30.08.91,36,.21,8.67,3.29,30.18,2,35.8,0,6.12,1.79,24.3,2,28.09,0" transform="translate(-1811.18 -392.53)" style="fill:none;stroke:#313131;stroke-miterlimit:10;stroke-width:0.518206520958202px"/><path d="M1899.23,451.26c5.87,1.25,14.32,1.87,24.48,1.37,6.92,3.25,29.95,2.31,35.87,1.6,8.67,3.29,29.38,5.83,35,3.88,6.12,1.79,26.33,4,30.12,2" transform="translate(-1811.18 -392.53)" style="fill:none;stroke:#313131;stroke-miterlimit:10;stroke-width:0.518206520958202px"/><path d="M1862.52,483c10.57-.67,17.76.6,20,3.55,9-1.55,30.37-1.31,39.32,3.07,13.7-.62,32.31.25,39.63,3.19,10.82,0.19,26,3.22,26,3.22" transform="translate(-1811.18 -392.53)" style="fill:none;stroke:#313131;stroke-miterlimit:10;stroke-width:0.518206520958202px"/><path d="M1916.37,479.1s-19.18-2.32-33.81,7.43c-20.89,3.45-32.68,7.82-32.68,7.82s-5.26,9.88-1.73,28.17" transform="translate(-1811.18 -392.53)" style="fill:none;stroke:#313131;stroke-miterlimit:10;stroke-width:0.518206520958202px"/><path d="M1951.87,482.25a46.29,46.29,0,0,0-30.4,7.16c-24.8,3.38-32.65,9.1-32.65,9.1s-5.48,6.41-2.32,28.11" transform="translate(-1811.18 -392.53)" style="fill:none;stroke:#313131;stroke-miterlimit:10;stroke-width:0.518206520958202px"/><path d="M1987.53,485.54s-11.16-2.57-25.79,7.18c-24.8,3.38-31,10.26-31,10.26-3.19,5.83-4.62,18.2-2.4,28.1" transform="translate(-1811.18 -392.53)" style="fill:none;stroke:#313131;stroke-miterlimit:10;stroke-width:0.518206520958202px"/><path d="M1943.45,445.2c-1.64,8.51-12.05,30.78-15.47,32.93s-28.74,5.16-28.74,5.16l52.29,5.23s17.87-2.9,21.53-6.2,13.38-34.94,13.38-34.94Z" transform="translate(-1811.18 -392.53)" style="fill:#fff"/><path d="M1930.17,478.13c-3.41,2.15-28.74,5.16-28.74,5.16l50.1,5.23s17.87-2.9,21.53-6.2C1946.59,476,1938,480.26,1930.17,478.13Z" transform="translate(-1811.18 -392.53)" style="fill:#eaeaea"/><path d="M1953.11,455.27l0.06-2.82H1953l-1.1,1.82a1,1,0,0,0-.21.55q0,0.22.59,0.21l-0.12.19-3.39-.19,0.12-.19a1,1,0,0,0,1.13-.54l2.66-4.41a0.67,0.67,0,0,0,.16-0.51,0.71,0.71,0,0,0-.6-0.16l0.12-.19,3.68,0.2q2.17,0.12,1.18,1.75a3.16,3.16,0,0,1-2.06,1.45l-0.07,2.31a0.39,0.39,0,0,0,.4.46l-0.12.19Zm0.07-3.19,0.37,0a2.07,2.07,0,0,0,1.85-1.24,1.59,1.59,0,0,0,.3-0.9,0.48,0.48,0,0,0-.54-0.41l-0.44,0Z" transform="translate(-1811.18 -392.53)" style="fill:#231f20"/><path d="M1960.88,455.7l-5.3-.29,0.12-.19a1.21,1.21,0,0,0,.77-0.11,1.71,1.71,0,0,0,.47-0.56l2.51-4.17a0.84,0.84,0,0,0,.21-0.6,0.75,0.75,0,0,0-.63-0.17l0.12-.19,5.29,0.29-1,1.68h-0.21q0.65-1.33-.55-1.4l-1.06-.06-1.46,2.43h0.19a2.2,2.2,0,0,0,1.76-1.25h0.2l-1.78,3h-0.2q0.69-1.3-.13-1.34h-0.25l-1.17,1.93a2.26,2.26,0,0,0-.18.34,0.15,0.15,0,0,0,.1.23l0.22,0,0.62,0a3.19,3.19,0,0,0,2.6-1.4h0.19Z" transform="translate(-1811.18 -392.53)" style="fill:#231f20"/><path d="M1967.48,456.06l-3-.17,0.12-.19a3.38,3.38,0,0,0,.48,0,0.58,0.58,0,0,0,.46-0.26,1,1,0,0,0,.13-0.39l0.17-1-1.74-.1-0.87.89a2.23,2.23,0,0,0-.31.35c-0.1.16-.11,0.28,0,0.35a1,1,0,0,0,.52.12l-0.12.19-1.85-.1,0.12-.19a1.05,1.05,0,0,0,.59-0.17,5.49,5.49,0,0,0,.8-0.7l4.79-4.8,0.53,0-0.88,5.48a0.82,0.82,0,0,0,0,.39,0.29,0.29,0,0,0,.24.1Zm-1.59-2.41,0.31-1.83-1.76,1.75Z" transform="translate(-1811.18 -392.53)" style="fill:#231f20"/><path d="M1972.73,456.35l-5.06-.28,0.12-.19H1968a1.17,1.17,0,0,0,.69-0.13,1.71,1.71,0,0,0,.46-0.55l2.52-4.18a0.75,0.75,0,0,0,.19-0.61,0.9,0.9,0,0,0-.67-0.16l0.12-.19,3.57,0.2-0.12.19h-0.18a1.07,1.07,0,0,0-.65.13,1.78,1.78,0,0,0-.46.56l-2.55,4.23a0.47,0.47,0,0,0-.13.45,0.57,0.57,0,0,0,.34.09h0.17q1.26,0.07,2.81-1.81h0.22Z" transform="translate(-1811.18 -392.53)" style="fill:#231f20"/><path d="M1945.64,462.7l-5.3-.29,0.12-.19a1.21,1.21,0,0,0,.77-0.11,1.71,1.71,0,0,0,.47-0.56l2.52-4.17a0.86,0.86,0,0,0,.21-0.61,0.76,0.76,0,0,0-.63-0.17l0.12-.19,5.29,0.29-1,1.69H1948q0.65-1.33-.55-1.4l-1.06-.06-1.46,2.43h0.19a2.2,2.2,0,0,0,1.76-1.26h0.2l-1.78,3h-0.2q0.68-1.29-.13-1.34h-0.25l-1.17,1.93a2.36,2.36,0,0,0-.18.34,0.15,0.15,0,0,0,.1.23l0.22,0,0.62,0a3.19,3.19,0,0,0,2.6-1.4h0.2Z" transform="translate(-1811.18 -392.53)" style="fill:#231f20"/><path d="M1952.43,461.23a3.52,3.52,0,0,1-1.43,1.33,3.73,3.73,0,0,1-2,.41,2.78,2.78,0,0,1-1.16-.3,3,3,0,0,0-.57-0.27,0.92,0.92,0,0,0-.63.35h-0.19l1.28-2.13H1948a1.48,1.48,0,0,0,0,1.47,1.28,1.28,0,0,0,1,.46,2.07,2.07,0,0,0,1-.16,1.35,1.35,0,0,0,.65-0.54,0.65,0.65,0,0,0,.1-0.59,2.33,2.33,0,0,0-.83-0.69,2.18,2.18,0,0,1-.94-1,1.36,1.36,0,0,1,.23-1.19,3.35,3.35,0,0,1,1.2-1.15,3.59,3.59,0,0,1,2.06-.49,2.49,2.49,0,0,1,1.1.28,2.62,2.62,0,0,0,.49.25,0.63,0.63,0,0,0,.52-0.34h0.2l-1.12,1.86h-0.2a1.25,1.25,0,0,0,.06-1.17,1.14,1.14,0,0,0-1-.51,1.89,1.89,0,0,0-.88.16,1.31,1.31,0,0,0-.61.51,0.51,0.51,0,0,0-.07.46,2.59,2.59,0,0,0,.87.67,2.22,2.22,0,0,1,.94.84A1.63,1.63,0,0,1,1952.43,461.23Z" transform="translate(-1811.18 -392.53)" style="fill:#231f20"/><path d="M1956.33,463.29l-3.41-.19,0.12-.19a1.28,1.28,0,0,0,.73-0.09,1.6,1.6,0,0,0,.51-0.58l2.88-4.78-0.5,0a2.16,2.16,0,0,0-1.93,1.19h-0.21l0.95-1.57,5.58,0.31-0.95,1.57h-0.21a1.24,1.24,0,0,0,.23-1,0.62,0.62,0,0,0-.62-0.34l-0.52,0-2.88,4.78a0.83,0.83,0,0,0-.2.59,0.71,0.71,0,0,0,.57.17Z" transform="translate(-1811.18 -392.53)" style="fill:#231f20"/><path d="M1963.16,463.67l-3-.17,0.12-.19a3.37,3.37,0,0,0,.48,0,0.58,0.58,0,0,0,.46-0.26,1.08,1.08,0,0,0,.13-0.39l0.16-1-1.74-.1-0.87.89a2.23,2.23,0,0,0-.31.35q-0.15.24,0,.35a1,1,0,0,0,.52.12l-0.12.19-1.85-.1,0.12-.19a1,1,0,0,0,.59-0.17,5.42,5.42,0,0,0,.8-0.7l4.79-4.8,0.54,0-0.89,5.48a0.84,0.84,0,0,0,0,.39,0.3,0.3,0,0,0,.24.1Zm-1.59-2.41,0.32-1.83-1.76,1.75Z" transform="translate(-1811.18 -392.53)" style="fill:#231f20"/><path d="M1967.49,463.91l-3.41-.19,0.12-.19a1.28,1.28,0,0,0,.73-0.09,1.6,1.6,0,0,0,.51-0.58l2.88-4.78-0.5,0a2.16,2.16,0,0,0-1.93,1.19h-0.21l0.95-1.57,5.58,0.31-0.95,1.57H1971a1.25,1.25,0,0,0,.23-1,0.62,0.62,0,0,0-.62-0.34l-0.52,0-2.88,4.78a0.83,0.83,0,0,0-.2.59,0.71,0.71,0,0,0,.57.17Z" transform="translate(-1811.18 -392.53)" style="fill:#231f20"/><path d="M1974.16,464.27l-5.3-.29,0.12-.19a1.2,1.2,0,0,0,.77-0.11,1.7,1.7,0,0,0,.47-0.56l2.52-4.17a0.85,0.85,0,0,0,.21-0.61,0.76,0.76,0,0,0-.63-0.17l0.12-.19,5.29,0.29-1,1.69h-0.2q0.65-1.33-.55-1.4l-1.06-.06-1.46,2.43h0.19a2.2,2.2,0,0,0,1.76-1.26h0.2l-1.78,3h-0.2q0.68-1.29-.13-1.34h-0.25L1972,463.2a2.17,2.17,0,0,0-.18.34,0.15,0.15,0,0,0,.1.23l0.22,0,0.62,0a3.2,3.2,0,0,0,2.6-1.4h0.2Z" transform="translate(-1811.18 -392.53)" style="fill:#231f20"/><line x1="134.12" y1="59.55" x2="138.01" y2="59.74" style="fill:none;stroke:#000;stroke-miterlimit:10;stroke-width:1.09502148628235px"/><line x1="165.02" y1="61.49" x2="168.92" y2="61.68" style="fill:none;stroke:#000;stroke-miterlimit:10;stroke-width:1.09502148628235px"/><path d="M1950.63,464.52l13.76,1s-3.46,11.45-5,13.59a120.77,120.77,0,0,0-14.34-1.13Z" transform="translate(-1811.18 -392.53)" style="fill:#b2b1b1"/><line x1="154.85" y1="73.36" x2="166.21" y2="74.33" style="fill:none;stroke:#4d4847;stroke-miterlimit:10;stroke-width:0.381182372570038px"/><line x1="154.02" y1="75.45" x2="165.38" y2="76.41" style="fill:none;stroke:#4d4847;stroke-miterlimit:10;stroke-width:0.381182372570038px"/><line x1="153.4" y1="77.54" x2="164.76" y2="78.5" style="fill:none;stroke:#4d4847;stroke-miterlimit:10;stroke-width:0.381182372570038px"/><line x1="152.41" y1="79.63" x2="163.77" y2="80.59" style="fill:none;stroke:#4d4847;stroke-miterlimit:10;stroke-width:0.381182372570038px"/><line x1="151.35" y1="81.71" x2="162.71" y2="82.68" style="fill:none;stroke:#4d4847;stroke-miterlimit:10;stroke-width:0.381182372570038px"/><line x1="150.76" y1="83.8" x2="162.12" y2="84.77" style="fill:none;stroke:#4d4847;stroke-miterlimit:10;stroke-width:0.381182372570038px"/><line x1="149.85" y1="85.89" x2="161.21" y2="86.86" style="fill:none;stroke:#4d4847;stroke-miterlimit:10;stroke-width:0.381182372570038px"/><line x1="127.11" y1="71.87" x2="137.56" y2="73.06" style="fill:none;stroke:#4d4847;stroke-miterlimit:10;stroke-width:0.381182372570038px"/><line x1="126.29" y1="73.87" x2="136.74" y2="75.06" style="fill:none;stroke:#4d4847;stroke-miterlimit:10;stroke-width:0.381182372570038px"/><line x1="125.68" y1="75.87" x2="136.13" y2="77.06" style="fill:none;stroke:#4d4847;stroke-miterlimit:10;stroke-width:0.381182372570038px"/><line x1="124.71" y1="77.87" x2="135.16" y2="79.06" style="fill:none;stroke:#4d4847;stroke-miterlimit:10;stroke-width:0.381182372570038px"/><line x1="123.68" y1="79.86" x2="134.13" y2="81.05" style="fill:none;stroke:#4d4847;stroke-miterlimit:10;stroke-width:0.381182372570038px"/><line x1="123.09" y1="81.87" x2="133.54" y2="83.06" style="fill:none;stroke:#4d4847;stroke-miterlimit:10;stroke-width:0.381182372570038px"/><line x1="122.2" y1="83.86" x2="132.65" y2="85.06" style="fill:none;stroke:#4d4847;stroke-miterlimit:10;stroke-width:0.381182372570038px"/><line x1="117.42" y1="87.15" x2="127.87" y2="88.35" style="fill:none;stroke:#4d4847;stroke-miterlimit:10;stroke-width:0.381182372570038px"/><line x1="112.58" y1="88.11" x2="123.02" y2="89.3" style="fill:none;stroke:#4d4847;stroke-miterlimit:10;stroke-width:0.381182372570038px"/><line x1="108.36" y1="89.15" x2="118.81" y2="90.34" style="fill:none;stroke:#4d4847;stroke-miterlimit:10;stroke-width:0.381182372570038px"/><line x1="101.34" y1="90.2" x2="111.78" y2="91.39" style="fill:none;stroke:#4d4847;stroke-miterlimit:10;stroke-width:0.381182372570038px"/><path d="M1996,487.15c0,2.69-1.57,3.46-6.81,4.87s-27.85,6.59-41,7.28c-6.22-.43-6.81-3.69-6.81-4.5,0-1,0-3.65,4.73-5,13.23-3.8,40.75-7.51,43.13-7.51C1992.92,482.28,1996,484.46,1996,487.15Z" transform="translate(-1811.18 -392.53)" style="fill:#fff"/><path d="M1989.15,482.28s-26.41-.44-32.8-1.26c-5.38.27-43.49,8.58-43.49,8.58l35.05,0.5Z" transform="translate(-1811.18 -392.53)" style="fill:#fff"/><polygon points="135.23 106.6 98.66 99.41 101.68 97.06 137.78 97.06 135.23 106.6" style="fill:#efefef"/><path d="M1996,487.15c0,2.69-1.57,3.46-6.81,4.87s-27.85,6.59-41,7.28c-6.22-.43-6.81-3.69-6.81-4.5,0-1,4.89,4.21,9.62,2.86C1964.14,493.85,1992,490.7,1996,487.15Z" transform="translate(-1811.18 -392.53)" style="fill:#e8e6e8"/><ellipse cx="136.93" cy="101.89" rx="6.81" ry="4.87" style="fill:#efefef"/><path d="M1950.91,494.42c0,1.49-1.69,2.7-3.78,2.7s-25.8-5-25.8-5,23.71-.37,25.8-0.37S1950.91,492.93,1950.91,494.42Z" transform="translate(-1811.18 -392.53)" style="fill:#d8d6d6"/><path d="M1949.71,495.39c-0.07.91-2.13,1.51-4.62,1.33s-30.49-5.3-30.49-5.3,28.24,1.82,30.72,2S1949.77,494.48,1949.71,495.39Z" transform="translate(-1811.18 -392.53)" style="fill:#c4c2c2"/><line x1="111.32" y1="96.45" x2="124.94" y2="93.57" style="fill:none;stroke:#4d4847;stroke-miterlimit:10;stroke-width:0.381182372570038px"/><line x1="130.41" y1="92.42" x2="144.03" y2="89.55" style="fill:none;stroke:#4d4847;stroke-miterlimit:10;stroke-width:0.381182372570038px"/><path d="M1941.29,486.43" transform="translate(-1811.18 -392.53)" style="fill:none;stroke:#4d4847;stroke-miterlimit:10;stroke-width:0.381182372570038px"/><path d="M1927.67,489.3" transform="translate(-1811.18 -392.53)" style="fill:none;stroke:#4d4847;stroke-miterlimit:10;stroke-width:0.381182372570038px"/><line x1="115.26" y1="96.53" x2="128.88" y2="93.66" style="fill:none;stroke:#4d4847;stroke-miterlimit:10;stroke-width:0.381182372570038px"/><line x1="135.1" y1="92.49" x2="148.72" y2="89.62" style="fill:none;stroke:#4d4847;stroke-miterlimit:10;stroke-width:0.381182372570038px"/><line x1="123.13" y1="96.77" x2="136.75" y2="93.9" style="fill:none;stroke:#4d4847;stroke-miterlimit:10;stroke-width:0.381182372570038px"/><line x1="119.34" y1="96.46" x2="132.96" y2="93.59" style="fill:none;stroke:#4d4847;stroke-miterlimit:10;stroke-width:0.381182372570038px"/><line x1="142.21" y1="92.74" x2="155.84" y2="89.87" style="fill:none;stroke:#4d4847;stroke-miterlimit:10;stroke-width:0.381182372570038px"/><line x1="139.01" y1="92.5" x2="152.63" y2="89.63" style="fill:none;stroke:#4d4847;stroke-miterlimit:10;stroke-width:0.381182372570038px"/><line x1="130.71" y1="96.77" x2="144.33" y2="93.9" style="fill:none;stroke:#4d4847;stroke-miterlimit:10;stroke-width:0.381182372570038px"/><line x1="128.77" y1="96.45" x2="142.39" y2="93.57" style="fill:none;stroke:#4d4847;stroke-miterlimit:10;stroke-width:0.381182372570038px"/><line x1="149.79" y1="92.74" x2="163.41" y2="89.87" style="fill:none;stroke:#4d4847;stroke-miterlimit:10;stroke-width:0.381182372570038px"/><line x1="146.17" y1="92.64" x2="159.79" y2="89.77" style="fill:none;stroke:#4d4847;stroke-miterlimit:10;stroke-width:0.381182372570038px"/><line x1="139.3" y1="96.77" x2="152.92" y2="93.9" style="fill:none;stroke:#4d4847;stroke-miterlimit:10;stroke-width:0.381182372570038px"/><line x1="136.72" y1="96.45" x2="150.34" y2="93.57" style="fill:none;stroke:#4d4847;stroke-miterlimit:10;stroke-width:0.381182372570038px"/><line x1="158.38" y1="92.74" x2="172" y2="89.87" style="fill:none;stroke:#4d4847;stroke-miterlimit:10;stroke-width:0.381182372570038px"/><line x1="154.78" y1="92.64" x2="168.4" y2="89.77" style="fill:none;stroke:#4d4847;stroke-miterlimit:10;stroke-width:0.381182372570038px"/><line x1="143.74" y1="98.07" x2="157.36" y2="95.19" style="fill:none;stroke:#4d4847;stroke-miterlimit:10;stroke-width:0.381182372570038px"/><line x1="142.21" y1="97.42" x2="155.84" y2="94.55" style="fill:none;stroke:#4d4847;stroke-miterlimit:10;stroke-width:0.381182372570038px"/><line x1="163.36" y1="94.45" x2="178.74" y2="91.21" style="fill:none;stroke:#4d4847;stroke-miterlimit:10;stroke-width:0.381182372570038px"/><line x1="161.3" y1="93.51" x2="176.68" y2="90.27" style="fill:none;stroke:#4d4847;stroke-miterlimit:10;stroke-width:0.381182372570038px"/><line x1="145.52" y1="101.17" x2="159.14" y2="98.3" style="fill:none;stroke:#4d4847;stroke-miterlimit:10;stroke-width:0.381182372570038px"/><line x1="145.2" y1="99.68" x2="158.82" y2="96.81" style="fill:none;stroke:#4d4847;stroke-miterlimit:10;stroke-width:0.381182372570038px"/><line x1="164.6" y1="97.15" x2="181.67" y2="93.55" style="fill:none;stroke:#4d4847;stroke-miterlimit:10;stroke-width:0.381182372570038px"/><line x1="164.29" y1="95.66" x2="181.36" y2="92.06" style="fill:none;stroke:#4d4847;stroke-miterlimit:10;stroke-width:0.381182372570038px"/><path d="M1949.14,495.43c0,0.44-1.82.67-4,.51s-27.9-4.36-27.9-4.36,25.85,2.59,28,2.75S1949.17,495,1949.14,495.43Z" transform="translate(-1811.18 -392.53)" style="fill:#727373"/></svg>