<svg xmlns="http://www.w3.org/2000/svg" viewBox="0 0 68.46 310.8"><title>img-30-crutches</title><path d="M1212.28,440.9c-0.56.54-2.76,0.56-3.68-.1,0.09,3.56,1.45,63.7,1.45,63.7l3.69,0.77Z" transform="translate(-1161.78 -207.73)" style="fill:#bababa"/><polygon points="49.04 231.94 50.49 297.36 49.74 297.07 48.52 231.98 49.04 231.94" style="fill:#d3d3d3"/><path d="M1212.59,398.05c-0.89.6-4.32,0.84-5.75,0.28,0.1,3.57,1.36,63.88,1.36,63.88l5.76,0.4Z" transform="translate(-1161.78 -207.73)" style="fill:#bababa"/><polygon points="61.75 11.52 59.87 13.88 30.67 16.32 27.89 13.75 61.75 11.52" style="fill:#4c4c4d"/><path d="M1222.46,216.08l2.33,133.25s0.6,8.43-3,20.38-5.18,17.16-4.74,29.69,1.13,56.17,1.13,56.17l-4.26,3.32s-0.9-46.42-1.33-59,1.16-17.75,4.74-29.69,3-20.38,3-20.38L1218,216.62Z" transform="translate(-1161.78 -207.73)" style="fill:#bababa"/><path d="M1220.76,214.88l2.33,133.25s0.6,8.43-3,20.38-5.18,17.16-4.74,29.69,1,59.21,1,59.21l-0.95-.58s-0.59-46.67-1-59.21,1.16-17.75,4.74-29.69,3-20.38,3-20.38l-2.33-133.25Z" transform="translate(-1161.78 -207.73)" style="fill:#d3d3d3"/><path d="M1190.09,219.38l2.75,133.24s-0.28,8.45,3.76,20.25,5.83,16.95,5.87,29.49,0.84,54,.84,54l4.65,1.48s-1-42.57-1-55.11-1.83-17.69-5.87-29.49-3.76-20.25-3.76-20.25l-2.75-133.24Z" transform="translate(-1161.78 -207.73)" style="fill:#bababa"/><path d="M1191.74,218.11l2.75,133.24s-0.28,8.45,3.76,20.25,5.83,16.95,5.87,29.49,1.15,56.8,1.15,56.8l0.92-.62s-1.11-44.25-1.15-56.8-1.83-17.69-5.87-29.49-3.76-20.25-3.76-20.25l-2.75-133.24Z" transform="translate(-1161.78 -207.73)" style="fill:#d3d3d3"/><polygon points="68.46 7.76 63.09 11.86 27.76 14.68 20.34 11.44 68.46 7.76" style="fill:#686868"/><path d="M1230.24,215.49l-0.35-5.45s-0.42-2.48-3.48-2.3-3.35,1.39-4,1.52-17.82,4.18-33.27,2.52c-1.86-1.63-6.13-1.73-7.3,1.86-0.06,1.55.23,5.53,0.23,5.53A237.77,237.77,0,0,0,1230.24,215.49Z" transform="translate(-1161.78 -207.73)" style="fill:#7d7d7d"/><path d="M1219.62,309.57c-0.71-.91-2.67-0.85-3,0.36-1-1.24-11.54-1.35-18.07.07a1.55,1.55,0,0,0-2.39.13c-0.18.55-.36,7.79,0.07,8.54s2,1.14,2.61.21c0.93,1,15.87,1,18-.71,0.62,1.59,3,.83,3,0.2Z" transform="translate(-1161.78 -207.73)" style="fill:#686868"/><path d="M1219.62,309.57c-0.71-.91-2.67-0.85-3,0.36-1-1.24-11.54-1.35-18.07.07a1.55,1.55,0,0,0-2.39.13,25.31,25.31,0,0,0-.19,4.35c0.06,0.87,23.76,0,23.75-.6Z" transform="translate(-1161.78 -207.73)" style="fill:#7d7d7d"/><path d="M1207.35,398.47a4.65,4.65,0,0,1-.5-0.14l1.21,64,0.55,0Z" transform="translate(-1161.78 -207.73)" style="fill:#8c8c8c"/><polygon points="48.55 189.23 49.89 254.85 48.72 254.64 47.73 189.33 48.55 189.23" style="fill:#d3d3d3"/><path d="M1212.56,397.85l-0.45.27,1.32,64.22,0.58,0Z" transform="translate(-1161.78 -207.73)" style="fill:#8c8c8c"/><path d="M1212.56,396.75a9.47,9.47,0,0,0-5.79.14c0,0.82,0,1.45,0,1.45a6.64,6.64,0,0,0,2.72.31c2.25,0,3-.58,3-0.58S1212.57,397.29,1212.56,396.75Z" transform="translate(-1161.78 -207.73)" style="fill:#686868"/><circle cx="1210.08" cy="406.96" r="0.95" transform="translate(-1171.37 -178.01) rotate(-1.4)" style="fill:#3e4547"/><circle cx="1210.22" cy="412.49" r="0.95" transform="translate(-1171.51 -178) rotate(-1.4)" style="fill:#3e4547"/><circle cx="1210.35" cy="418.03" r="0.95" transform="translate(-1171.65 -178) rotate(-1.4)" style="fill:#3e4547"/><circle cx="1210.49" cy="423.57" r="0.95" transform="translate(-1171.78 -177.99) rotate(-1.4)" style="fill:#3e4547"/><circle cx="1210.63" cy="429.11" r="0.95" transform="translate(-1171.92 -177.99) rotate(-1.4)" style="fill:#3e4547"/><circle cx="1210.76" cy="434.65" r="0.95" transform="translate(-1172.05 -177.98) rotate(-1.4)" style="fill:#3e4547"/><circle cx="1210.9" cy="440.19" r="0.95" transform="translate(-1172.19 -177.98) rotate(-1.4)" style="fill:#3e4547"/><circle cx="1211.03" cy="445.72" r="0.95" transform="translate(-1172.32 -177.97) rotate(-1.4)" style="fill:#3e4547"/><path d="M1218.19,455.58l-4,4.47,0.11,3.22s-0.7,1.3-3.06,1.39-3.08-.93-3.08-0.93l-0.12-3.46-4.71-3.9s2.72,0.83,4.61-.13c0.05,1.46.07,3.25,0.07,3.25s2.24,1.81,6-.16c0-1.19-.15-3.29-0.15-3.29A6.16,6.16,0,0,0,1218.19,455.58Z" transform="translate(-1161.78 -207.73)" style="fill:#686868"/><path d="M1213.69,503l0.3,2.48,0.73,1.15,0.35,2.88-1.58.6-1.9.23-1.86-.39-1.29-.93,0.76-2.84,0.76-1.06,0.05-2.4A4.54,4.54,0,0,0,1213.69,503Z" transform="translate(-1161.78 -207.73)" style="fill:#686868"/><path d="M1173.72,449.7c-0.62.47-2.81,0.22-3.64-.54-0.33,3.54-6.16,63.42-6.16,63.41l3.57,1.21Z" transform="translate(-1161.78 -207.73)" style="fill:#bababa"/><polygon points="10.64 240.57 4.28 305.7 3.57 305.32 10.11 240.55 10.64 240.57" style="fill:#d3d3d3"/><path d="M1179.14,407.19c-1,.49-4.39.32-5.74-0.41-0.33,3.55-6.27,63.59-6.27,63.59l5.67,1.08Z" transform="translate(-1161.78 -207.73)" style="fill:#bababa"/><polygon points="49.55 23.25 47.41 25.36 18.12 24.3 15.67 21.42 49.55 23.25" style="fill:#4c4c4d"/><path d="M1210.64,227.7l-13.59,132.57s-0.41,8.45-5.39,19.88-7.19,16.42-8.25,28.92-5.57,55.9-5.57,55.9l-4.63,2.79s4.65-46.19,5.71-58.69,3.27-17.48,8.25-28.92,5.39-19.88,5.39-19.88l13.59-132.57h4.5Z" transform="translate(-1161.78 -207.73)" style="fill:#bababa"/><path d="M1209.1,226.31l-13.59,132.57s-0.41,8.45-5.39,19.88-7.19,16.42-8.25,28.92-6,58.91-6,58.91l-0.87-.69s5-46.41,6-58.91,3.27-17.48,8.25-28.92,5.39-19.88,5.39-19.88l13.59-132.57Z" transform="translate(-1161.78 -207.73)" style="fill:#d3d3d3"/><path d="M1178.11,227.11L1165,359.73s-1.29,8.36,1.31,20.56,3.76,17.52,2.31,30S1163,464,1163,464l4.44,2s4.12-42.38,5.57-54.84,0.29-17.78-2.31-30-1.31-20.56-1.31-20.56L1182.52,228Z" transform="translate(-1161.78 -207.73)" style="fill:#bababa"/><path d="M1179.9,226.05l-13.16,132.62s-1.29,8.36,1.31,20.56,3.76,17.52,2.31,30-5.64,56.53-5.64,56.53l1-.5s4.18-44.07,5.64-56.53,0.29-17.78-2.31-30-1.31-20.56-1.31-20.56l13.16-132.62Z" transform="translate(-1161.78 -207.73)" style="fill:#d3d3d3"/><polygon points="56.66 20.3 50.84 23.73 15.43 22.33 8.44 18.22 56.66 20.3" style="fill:#686868"/><path d="M1218.44,228l0.31-5.45s-0.12-2.51-3.19-2.7-3.49,1-4.1,1-18.2,2-33.33-1.47c-1.65-1.84-5.88-2.45-7.47,1-0.25,1.53-.43,5.51-0.43,5.51A237.77,237.77,0,0,0,1218.44,228Z" transform="translate(-1161.78 -207.73)" style="fill:#7d7d7d"/><path d="M1196.67,320.18c-0.59-1-2.55-1.16-3,0-0.86-1.35-11.3-2.72-18-2.09a1.55,1.55,0,0,0-2.39-.16c-0.25.53-1.28,7.69-.95,8.49s1.89,1.38,2.57.52c0.81,1.1,15.64,2.91,17.92,1.44,0.43,1.65,2.88,1.19,2.94.55Z" transform="translate(-1161.78 -207.73)" style="fill:#686868"/><path d="M1196.67,320.18c-0.59-1-2.55-1.16-3,0-0.86-1.35-11.3-2.72-18-2.09a1.55,1.55,0,0,0-2.39-.16,25.31,25.31,0,0,0-.71,4.29c0,0.87,23.59,2.87,23.66,2.24Z" transform="translate(-1161.78 -207.73)" style="fill:#7d7d7d"/><path d="M1173.89,407a4.65,4.65,0,0,1-.48-0.2L1167,470.43l0.55,0Z" transform="translate(-1161.78 -207.73)" style="fill:#8c8c8c"/><polygon points="15.24 198.11 8.75 263.42 7.62 263.07 14.42 198.11 15.24 198.11" style="fill:#d3d3d3"/><path d="M1179.14,407l-0.48.21-6.35,63.91,0.58,0Z" transform="translate(-1161.78 -207.73)" style="fill:#8c8c8c"/><path d="M1179.26,405.89a9.47,9.47,0,0,0-5.76-.56c-0.08.81-.13,1.45-0.13,1.45a6.64,6.64,0,0,0,2.66.63c2.23,0.29,3.05-.22,3.05-0.22S1179.21,406.44,1179.26,405.89Z" transform="translate(-1161.78 -207.73)" style="fill:#686868"/><circle cx="1175.59" cy="415.73" r="0.95" transform="translate(-511.68 1338.8) rotate(-84.55)" style="fill:#3e4547"/><circle cx="1175.06" cy="421.25" r="0.95" transform="translate(-517.65 1343.27) rotate(-84.55)" style="fill:#3e4547"/><circle cx="1174.54" cy="426.76" r="0.95" transform="translate(-523.62 1347.73) rotate(-84.55)" style="fill:#3e4547"/><circle cx="1174.01" cy="432.28" r="0.95" transform="translate(-529.58 1352.2) rotate(-84.55)" style="fill:#3e4547"/><circle cx="1173.48" cy="437.79" r="0.95" transform="translate(-535.55 1356.67) rotate(-84.55)" style="fill:#3e4547"/><circle cx="1172.96" cy="443.31" r="0.95" transform="translate(-541.51 1361.14) rotate(-84.55)" style="fill:#3e4547"/><circle cx="1172.43" cy="448.82" r="0.95" transform="translate(-547.48 1365.6) rotate(-84.55)" style="fill:#3e4547"/><circle cx="1171.91" cy="454.34" r="0.95" transform="translate(-553.45 1370.07) rotate(-84.55)" style="fill:#3e4547"/><path d="M1177.84,465l-4.53,4-0.27,3.21s-0.85,1.21-3.21,1-2.95-1.29-2.95-1.29l0.29-3.45L1163,464s2.6,1.15,4.6.42c-0.12,1.46-.32,3.24-0.32,3.24s2,2.07,5.93.55c0.1-1.18.24-3.29,0.24-3.29A6.16,6.16,0,0,0,1177.84,465Z" transform="translate(-1161.78 -207.73)" style="fill:#686868"/><path d="M1167.72,511.5V514l0.59,1.23v2.9l-1.64.41h-1.91l-1.8-.61-1.17-1.07,1.09-2.73,0.89-1,0.34-2.38A4.54,4.54,0,0,0,1167.72,511.5Z" transform="translate(-1161.78 -207.73)" style="fill:#686868"/></svg>