<svg xmlns="http://www.w3.org/2000/svg" viewBox="0 0 306.96 232.85"><title>img-20-paper</title><g style="isolation:isolate"><path d="M720,427.52c23.92-1.25,73.88-3.74,128.63,9.15s85.11,120,38.07,143.69c-105,52.81-362.07,21.31-252-100.87C662,442.5,691.79,432.1,720,427.52Z" transform="translate(-606.58 -372.13)" style="opacity:0.05"/><path d="M714.56,373.51c24.51-1.63,75.7-4.9,131.8,12s89.32,131.35,50.11,178.68-216.13,30.3-247.8,12.66c-22.38-12.47-69.07-41.67-21.46-135.3C655.16,393.12,685.7,379.5,714.56,373.51Z" transform="translate(-606.58 -372.13)" style="fill:#374144"/><path d="M680.37,445.28c21.31-20.48,57.88-27.46,86.74-26.82S839,424.84,860,451.9s5,41.85-11.66,55.61-115,18.11-162.34,0S680.37,445.28,680.37,445.28Z" transform="translate(-606.58 -372.13)" style="opacity:0.05;mix-blend-mode:multiply"/><path d="M848.33,507.51c2.4-2,4.78-4,7-6-22.2-5.59-61.37-6.83-88.26-7-28.86-.16-65.43,1.57-86.74,6.64,0,0-1.91.5-4.45,1.33a52,52,0,0,0,10.06,5C733.3,525.62,831.65,521.28,848.33,507.51Z" transform="translate(-606.58 -372.13)" style="opacity:0.05;mix-blend-mode:multiply"/><path d="M720.38,373.13c0,24.8-14.79,48.36-20.46,70.93s-15.35,50.21-31.36,50.45c-8.38,18.77-11.35,33.64-3.18,88.67" transform="translate(-606.58 -372.13)" style="fill:none;stroke:#000;stroke-miterlimit:10;stroke-width:0.544620026329274px;opacity:0.1;mix-blend-mode:multiply"/><path d="M827.29,380.55c1,136.7,22.58,124.06,22.58,124.06s17,8.53,3.19,81.95" transform="translate(-606.58 -372.13)" style="fill:none;stroke:#000;stroke-miterlimit:10;stroke-width:0.544620026329274px;opacity:0.1;mix-blend-mode:multiply"/><path d="M767.91,525.12s1.78,2,10.43-2.34c8.45-3,29.86-11.1,29.86-11.1s18.57-8.58,26.61-8.86a2.78,2.78,0,0,0-1.41-.74l1.19-.43-2.25-.12,1.17-.58-1.72-.31,1.54-.63-0.91.16,2.55-1.73-2.34,1-1.59.3,0.46-1,1.07-1-2,0,1.41-1.81-2.23,1s2.44-2.7,2.54-2.75a4.65,4.65,0,0,0,.5-0.74L767,509l-8.77,11.74Z" transform="translate(-606.58 -372.13)" style="opacity:0.05"/><path d="M768,523.58s1.89,1.93,10.28-2.91c8.27-3.44,29.2-12.73,29.2-12.73s18.07-9.59,26.08-10.32a2.78,2.78,0,0,0-1.45-.66l1.17-.5H831l1.14-.64-1.74-.21,1.5-.71-0.9.21,2.45-1.87-2.29,1.08-1.57.39,0.41-1,1-1.08-2,.13,1.31-1.88L828.15,492s2.29-2.84,2.38-2.88a4.65,4.65,0,0,0,.46-0.77l-64.81,19.25-6.8,12.71Z" transform="translate(-606.58 -372.13)" style="fill:#cacaca"/><path d="M831,488.35L765.17,468.6s-5.4,4.59-24.76,10.74-36.64,11-39.68,17.46,3.3,7.37,3.3,7.37l63.91,19.44s-5.26-1.46-3.79-6.48c2.25-7.62,36.09-16.47,47.7-19.48A53.09,53.09,0,0,0,831,488.35Z" transform="translate(-606.58 -372.13)" style="fill:#efefef"/><path d="M766.07,520.1s0-6.76,9.94-8.55c10.12-3.31,44.45-14.65,44.45-14.65a15.84,15.84,0,0,0,10.19-5.29c-4.3,5.36-3.91,6.49-10.19,9.13s-36.07,16-36.07,16S770.61,525.55,766.07,520.1Z" transform="translate(-606.58 -372.13)" style="fill:#b2b3b3"/><path d="M766.94,520s-0.78-3.94,8.82-6c9.6-3,42-14.28,42-14.28s10.91-3.78,14.47-7.39c-3.56,3.88-9.71,6.19-15.59,8.47s-32.51,15.11-32.51,15.11S772.15,523.15,766.94,520Z" transform="translate(-606.58 -372.13)" style="fill:#8e8e8e"/><path d="M767.48,519.6S767,519,778.4,515s32.19-11.94,32.19-11.94L779.3,516.55A53.74,53.74,0,0,1,767.48,519.6Z" transform="translate(-606.58 -372.13)" style="fill:#5b5746"/><polygon points="192.79 127.44 165.47 118.42 144.06 126.23 171.45 135.19 192.79 127.44" style="fill:#4d4847"/><polygon points="165.13 109.19 157.95 106.56 150.89 109.54 157.46 111.82 165.13 109.19" style="fill:#4d4847"/><polygon points="156.99 106.43 149.03 103.86 142.06 106.68 150.14 109.26 156.99 106.43" style="fill:#4d4847"/><path d="M763.92,513.36c-2,1.33-3.56,3.24-2.41,6.29-9.82-3-41.83-13.15-41.83-13.15a4.69,4.69,0,0,1,3.53-6C727.29,501.73,763.92,513.36,763.92,513.36Z" transform="translate(-606.58 -372.13)" style="fill:#4d4847"/><path d="M720.43,499.63l-13.82-4.38s-4.93.86-3.94,5.62c3.66,1.43,14.14,4.57,14.14,4.57S715.48,501.25,720.43,499.63Z" transform="translate(-606.58 -372.13)" style="fill:#4d4847"/><polygon points="203.59 123.98 162.27 111.4 154.76 114.13 194.67 126.81 203.59 123.98" style="fill:#b7b3aa"/><polygon points="155.77 112.24 139.47 107.38 135.38 108.72 152.12 113.65 155.77 112.24" style="fill:#b7b3aa"/><line x1="208.12" y1="122.53" x2="151.21" y2="103.11" style="fill:none;stroke:#4d4847;stroke-miterlimit:10;stroke-width:0.190591186285019px"/><line x1="205.96" y1="123.36" x2="188.05" y2="117.65" style="fill:none;stroke:#4d4847;stroke-miterlimit:10;stroke-width:0.381182372570038px"/><line x1="149.33" y1="111.54" x2="142.25" y2="109.5" style="fill:none;stroke:#231f20;stroke-miterlimit:10;stroke-width:0.762364745140076px"/><line x1="201.05" y1="124.17" x2="192.49" y2="121.5" style="fill:none;stroke:#4d4847;stroke-miterlimit:10;stroke-width:0.381182372570038px"/><line x1="198.91" y1="124.79" x2="187.33" y2="120.93" style="fill:none;stroke:#4d4847;stroke-miterlimit:10;stroke-width:0.381182372570038px"/><line x1="196.95" y1="125.27" x2="185.99" y2="121.69" style="fill:none;stroke:#4d4847;stroke-miterlimit:10;stroke-width:0.381182372570038px"/><line x1="195.33" y1="125.84" x2="187.95" y2="123.48" style="fill:none;stroke:#4d4847;stroke-miterlimit:10;stroke-width:0.381182372570038px"/><line x1="186.42" y1="119.64" x2="174.89" y2="116.02" style="fill:none;stroke:#4d4847;stroke-miterlimit:10;stroke-width:0.381182372570038px"/><line x1="184.76" y1="120.31" x2="176.99" y2="117.83" style="fill:none;stroke:#4d4847;stroke-miterlimit:10;stroke-width:0.381182372570038px"/><line x1="183.23" y1="120.83" x2="171.65" y2="117.12" style="fill:none;stroke:#4d4847;stroke-miterlimit:10;stroke-width:0.381182372570038px"/><line x1="181.61" y1="121.45" x2="173.08" y2="118.69" style="fill:none;stroke:#4d4847;stroke-miterlimit:10;stroke-width:0.381182372570038px"/><line x1="172.32" y1="115.36" x2="165.51" y2="113.31" style="fill:none;stroke:#4d4847;stroke-miterlimit:10;stroke-width:0.381182372570038px"/><line x1="170.75" y1="115.88" x2="160.55" y2="112.97" style="fill:none;stroke:#4d4847;stroke-miterlimit:10;stroke-width:0.381182372570038px"/><line x1="168.91" y1="116.31" x2="159.37" y2="113.59" style="fill:none;stroke:#4d4847;stroke-miterlimit:10;stroke-width:0.381182372570038px"/><line x1="167.22" y1="116.83" x2="164.14" y2="116.02" style="fill:none;stroke:#4d4847;stroke-miterlimit:10;stroke-width:0.381182372570038px"/><line x1="162.3" y1="118.24" x2="156.65" y2="116.78" style="fill:none;stroke:#4d4847;stroke-miterlimit:10;stroke-width:0.381182372570038px"/><line x1="155.51" y1="116.34" x2="151.44" y2="115.07" style="fill:none;stroke:#4d4847;stroke-miterlimit:10;stroke-width:0.381182372570038px"/><line x1="160.33" y1="118.94" x2="149.28" y2="115.7" style="fill:none;stroke:#4d4847;stroke-miterlimit:10;stroke-width:0.381182372570038px"/><line x1="158.3" y1="119.7" x2="155.7" y2="118.81" style="fill:none;stroke:#4d4847;stroke-miterlimit:10;stroke-width:0.381182372570038px"/><line x1="154.36" y1="118.5" x2="147.63" y2="116.46" style="fill:none;stroke:#4d4847;stroke-miterlimit:10;stroke-width:0.381182372570038px"/><line x1="156.39" y1="120.59" x2="144.9" y2="117.32" style="fill:none;stroke:#4d4847;stroke-miterlimit:10;stroke-width:0.381182372570038px"/><line x1="154.04" y1="121.48" x2="142.55" y2="117.99" style="fill:none;stroke:#4d4847;stroke-miterlimit:10;stroke-width:0.381182372570038px"/><line x1="151.57" y1="122.18" x2="140.58" y2="118.81" style="fill:none;stroke:#4d4847;stroke-miterlimit:10;stroke-width:0.381182372570038px"/><line x1="148.77" y1="123.13" x2="146.61" y2="122.43" style="fill:none;stroke:#4d4847;stroke-miterlimit:10;stroke-width:0.381182372570038px"/><line x1="145.09" y1="121.8" x2="142.74" y2="121.16" style="fill:none;stroke:#4d4847;stroke-miterlimit:10;stroke-width:0.381182372570038px"/><line x1="141.59" y1="120.5" x2="137.97" y2="119.26" style="fill:none;stroke:#4d4847;stroke-miterlimit:10;stroke-width:0.381182372570038px"/><line x1="146.48" y1="124.02" x2="134.98" y2="120.5" style="fill:none;stroke:#4d4847;stroke-miterlimit:10;stroke-width:0.381182372570038px"/><line x1="143.91" y1="125.1" x2="140.73" y2="124.21" style="fill:none;stroke:#4d4847;stroke-miterlimit:10;stroke-width:0.381182372570038px"/><line x1="139.18" y1="123.58" x2="132.32" y2="121.48" style="fill:none;stroke:#4d4847;stroke-miterlimit:10;stroke-width:0.381182372570038px"/><line x1="141.66" y1="126.12" x2="129.78" y2="122.53" style="fill:none;stroke:#4d4847;stroke-miterlimit:10;stroke-width:0.381182372570038px"/><line x1="168.34" y1="136.28" x2="127.04" y2="123.64" style="fill:none;stroke:#4d4847;stroke-miterlimit:10;stroke-width:0.381182372570038px"/><line x1="124.76" y1="124.32" x2="166.18" y2="137.11" style="fill:none;stroke:#4d4847;stroke-miterlimit:10;stroke-width:0.381182372570038px"/><line x1="164.08" y1="137.81" x2="157.98" y2="135.9" style="fill:none;stroke:#4d4847;stroke-miterlimit:10;stroke-width:0.381182372570038px"/><line x1="156.46" y1="135.59" x2="147.69" y2="132.92" style="fill:none;stroke:#4d4847;stroke-miterlimit:10;stroke-width:0.381182372570038px"/><line x1="146.42" y1="132.35" x2="133.02" y2="128.66" style="fill:none;stroke:#4d4847;stroke-miterlimit:10;stroke-width:0.381182372570038px"/><line x1="131.87" y1="128.03" x2="123.04" y2="125.36" style="fill:none;stroke:#4d4847;stroke-miterlimit:10;stroke-width:0.381182372570038px"/><line x1="120.5" y1="125.93" x2="145.47" y2="133.55" style="fill:none;stroke:#4d4847;stroke-miterlimit:10;stroke-width:0.381182372570038px"/><line x1="147.06" y1="134.25" x2="162.18" y2="138.64" style="fill:none;stroke:#4d4847;stroke-miterlimit:10;stroke-width:0.381182372570038px"/><line x1="160.14" y1="139.52" x2="118.53" y2="126.95" style="fill:none;stroke:#4d4847;stroke-miterlimit:10;stroke-width:0.381182372570038px"/><line x1="148.29" y1="114.45" x2="142.32" y2="112.84" style="fill:none;stroke:#4d4847;stroke-miterlimit:10;stroke-width:0.381182372570038px"/><line x1="141.15" y1="112.4" x2="132.44" y2="109.79" style="fill:none;stroke:#4d4847;stroke-miterlimit:10;stroke-width:0.381182372570038px"/><line x1="130.54" y1="110.43" x2="134.67" y2="111.7" style="fill:none;stroke:#4d4847;stroke-miterlimit:10;stroke-width:0.381182372570038px"/><line x1="135.72" y1="111.89" x2="140.07" y2="113.16" style="fill:none;stroke:#4d4847;stroke-miterlimit:10;stroke-width:0.381182372570038px"/><line x1="141.15" y1="113.65" x2="146.07" y2="115.13" style="fill:none;stroke:#4d4847;stroke-miterlimit:10;stroke-width:0.381182372570038px"/><line x1="143.91" y1="115.7" x2="134.1" y2="112.78" style="fill:none;stroke:#4d4847;stroke-miterlimit:10;stroke-width:0.381182372570038px"/><line x1="132.98" y1="112.52" x2="128.31" y2="111.09" style="fill:none;stroke:#4d4847;stroke-miterlimit:10;stroke-width:0.381182372570038px"/><line x1="141.66" y1="116.46" x2="126.22" y2="111.81" style="fill:none;stroke:#4d4847;stroke-miterlimit:10;stroke-width:0.381182372570038px"/><line x1="139.34" y1="117.32" x2="123.99" y2="112.78" style="fill:none;stroke:#4d4847;stroke-miterlimit:10;stroke-width:0.381182372570038px"/><line x1="136.8" y1="118.24" x2="131.11" y2="116.53" style="fill:none;stroke:#4d4847;stroke-miterlimit:10;stroke-width:0.381182372570038px"/><line x1="130.09" y1="116.08" x2="121.33" y2="113.35" style="fill:none;stroke:#4d4847;stroke-miterlimit:10;stroke-width:0.381182372570038px"/><line x1="118.98" y1="114.14" x2="134.29" y2="118.96" style="fill:none;stroke:#4d4847;stroke-miterlimit:10;stroke-width:0.381182372570038px"/><line x1="132.19" y1="119.88" x2="116.62" y2="115.05" style="fill:none;stroke:#4d4847;stroke-miterlimit:10;stroke-width:0.381182372570038px"/><line x1="114.15" y1="116.08" x2="129.33" y2="120.97" style="fill:none;stroke:#4d4847;stroke-miterlimit:10;stroke-width:0.381182372570038px"/><line x1="126.63" y1="121.8" x2="120.12" y2="119.51" style="fill:none;stroke:#4d4847;stroke-miterlimit:10;stroke-width:0.381182372570038px"/><line x1="118.53" y1="118.96" x2="111.73" y2="116.91" style="fill:none;stroke:#4d4847;stroke-miterlimit:10;stroke-width:0.381182372570038px"/><line x1="109.7" y1="117.93" x2="124.41" y2="122.78" style="fill:none;stroke:#4d4847;stroke-miterlimit:10;stroke-width:0.381182372570038px"/><line x1="121.74" y1="123.9" x2="115.77" y2="121.64" style="fill:none;stroke:#4d4847;stroke-miterlimit:10;stroke-width:0.381182372570038px"/><line x1="114.91" y1="121.48" x2="107.54" y2="118.96" style="fill:none;stroke:#4d4847;stroke-miterlimit:10;stroke-width:0.381182372570038px"/><line x1="104.81" y1="119.73" x2="108.81" y2="121.07" style="fill:none;stroke:#4d4847;stroke-miterlimit:10;stroke-width:0.381182372570038px"/><line x1="110.11" y1="121.48" x2="113.67" y2="122.77" style="fill:none;stroke:#4d4847;stroke-miterlimit:10;stroke-width:0.381182372570038px"/><line x1="114.69" y1="123.04" x2="119.36" y2="124.66" style="fill:none;stroke:#4d4847;stroke-miterlimit:10;stroke-width:0.381182372570038px"/><line x1="117.64" y1="125.45" x2="102.87" y2="120.66" style="fill:none;stroke:#4d4847;stroke-miterlimit:10;stroke-width:0.381182372570038px"/><line x1="101.66" y1="121.77" x2="116.31" y2="126.25" style="fill:none;stroke:#4d4847;stroke-miterlimit:10;stroke-width:0.381182372570038px"/><path d="M777,473.37l-0.1.17a5.69,5.69,0,0,0-.87,0,2.56,2.56,0,0,0-.6.13,3.47,3.47,0,0,0-.64.33l-0.32.2-3.24,2.14a1.57,1.57,0,0,0-.58.5,0.11,0.11,0,0,0,.09.15,2.35,2.35,0,0,0,.73,0v0.16l-1.68.12-0.55,0a0.41,0.41,0,0,1-.15-0.47,1.91,1.91,0,0,1,.67-0.62l-3.33.15a3.12,3.12,0,0,0-1.35-1.37,0.84,0.84,0,0,0-.34,0,0.53,0.53,0,0,0-.24.08,0.35,0.35,0,0,0-.16.2,0.39,0.39,0,0,1-.11.2,0.5,0.5,0,0,1-.22.07,0.59,0.59,0,0,1-.24,0,0.13,0.13,0,0,1-.12-0.13,0.34,0.34,0,0,1,.2-0.24,2.5,2.5,0,0,1,.62-0.26,9.14,9.14,0,0,1,1-.22l0.23,0,1.62-.3a1.22,1.22,0,0,1-.13-0.94,1.6,1.6,0,0,1,.69-0.73,5.12,5.12,0,0,1,1.58-.62,7.91,7.91,0,0,1,3.93.17,2.68,2.68,0,0,1,1.67,1.27c0.36,0,.68-0.07,1-0.08S776.61,473.35,777,473.37Zm-9.66,1.09-1,.19,1.68,1.5,2-.08,0.73-.48Zm6.05-1.29a2.52,2.52,0,0,0-1-.61,5.74,5.74,0,0,0-1.57-.27,6,6,0,0,0-1.59.12,3.65,3.65,0,0,0-1.15.43,1,1,0,0,0-.46,1.41l3.79-.71a1.15,1.15,0,0,0-.52-0.35,2.07,2.07,0,0,0-1.06,0,0.35,0.35,0,0,1-.17,0,0,0,0,0,1,0,0,0.06,0.06,0,0,1,0-.05,2.13,2.13,0,0,1,.55-0.19,3.46,3.46,0,0,1,.88-0.09,2.88,2.88,0,0,1,.83.13,2.19,2.19,0,0,1,.68.37Zm0.21,0.52a1.19,1.19,0,0,0,0-.18,1.23,1.23,0,0,0-.1-0.19l-4.94.92,2.81,0.93Z" transform="translate(-606.58 -372.13)" style="fill:#231f20"/><path d="M774.94,475.29l1.79-.07a0.55,0.55,0,0,1,.1.48,1.12,1.12,0,0,1-.45.42l2.41-.21a1.14,1.14,0,0,1,.19.76,1,1,0,0,1-.44.42l-2.5,1.58a16.28,16.28,0,0,0-2.49.08,3.62,3.62,0,0,0-.49-0.54l-0.32.2a2.16,2.16,0,0,0-.67.55,0.38,0.38,0,0,0,0,.42l-0.19.05a2.26,2.26,0,0,1-.53-0.5,0.42,0.42,0,0,1,0-.32,6.12,6.12,0,0,1-1.1,0v-0.08a3.47,3.47,0,0,0,.69-0.13,2.88,2.88,0,0,0,.63-0.31l0.65-.41a3.63,3.63,0,0,0-.56-0.23l-0.09,0,0.38-.24c0.3,0.05.57,0.11,0.79,0.17L775,476a0.81,0.81,0,0,0,.38-0.36,0.14,0.14,0,0,0-.1-0.17,1.12,1.12,0,0,0-.37,0Zm1.21,1-2.31,1.46c0.34,0.18.56,0.31,0.67,0.38a2.45,2.45,0,0,1,.35.28l2.5-1.58a1.3,1.3,0,0,0,.23-0.16,0.2,0.2,0,0,0,0-.14,2,2,0,0,0-.15-0.36Z" transform="translate(-606.58 -372.13)" style="fill:#231f20"/><path d="M784.23,477.9l0.13,0.1a8.28,8.28,0,0,0-.93.24,3.34,3.34,0,0,0-.61.31l-1.9,1.2a1.73,1.73,0,0,0-.51.4,0.09,0.09,0,0,0,.07.14l0.14,0,0.38,0v0.13l-1.93.15a0.62,0.62,0,0,1-.06-0.48,1.2,1.2,0,0,1,.44-0.42l-2.66.15a0.8,0.8,0,0,1,.34-1.08,3.79,3.79,0,0,1,1-.42,15.78,15.78,0,0,1,2-.4l0.52-.93,0.19,0,0.29,0.11a3.49,3.49,0,0,0,1.5.1,2.17,2.17,0,0,0,.53.47,2.52,2.52,0,0,0,.58.3,0.6,0.6,0,0,0,.2,0Zm-3.49.94L780,478.1a5.16,5.16,0,0,0-1.25.51,0.73,0.73,0,0,0-.42,1l1.33-.08Zm1.33-.84-1.32-.89-0.51.94,0.69,0.68Z" transform="translate(-606.58 -372.13)" style="fill:#231f20"/><path d="M788.41,479.1l0,0.78L787,480l0.05-.67-0.92.08-2.6,1.64,0.23,0.43,0.9,0,0,0.13-2.26.13a1.59,1.59,0,0,0-.25-0.54,1.62,1.62,0,0,0-.41-0.35l0.1-.06a2.24,2.24,0,0,0,.58-0.08,2.83,2.83,0,0,0,.61-0.32l1.82-1.15a0.88,0.88,0,0,0,.37-0.32,0.11,0.11,0,0,0-.08-0.14,1.48,1.48,0,0,0-.5,0v-0.12l1.9-.15a0.81,0.81,0,0,1,.1.52,0.55,0.55,0,0,1-.27.27Z" transform="translate(-606.58 -372.13)" style="fill:#231f20"/><path d="M789.1,479.8l3-.49,0.15,0.05-1.28.76,1.05,0.35-0.5.32-1.05-.35-3,1.9,0.21,0.43,0.56,0v0.13l-1.94.11a1.27,1.27,0,0,0-.64-0.88l0.09-.06a2.08,2.08,0,0,0,.53-0.07,2.34,2.34,0,0,0,.57-0.27l2.56-1.62-0.49-.16Z" transform="translate(-606.58 -372.13)" style="fill:#231f20"/><path d="M799.39,483l0,0.13a6.66,6.66,0,0,0-.76.09,2.06,2.06,0,0,0-.4.12,5.41,5.41,0,0,0-.58.34l-1.85,1.17a1.06,1.06,0,0,0-.4.33c0,0.07,0,.11,0,0.13a2.07,2.07,0,0,0,.55,0v0.13l-1.92.12a0.62,0.62,0,0,1-.08-0.44,0.83,0.83,0,0,1,.36-0.39l2.69-1.7-0.14-.42-1.49.14L793,484.3l0,0.36-1.51.08-0.33-.69,0.74-.1,2.22-1.4a1.45,1.45,0,0,0,.43-0.34,0.44,0.44,0,0,0-.09-0.38l-1.42.1-2.49,1.57,0,0.36-1.52.07-0.34-.69,0.77-.09,2.39-1.51a1.12,1.12,0,0,0,.43-0.37c0-.07,0-0.12,0-0.13a2.23,2.23,0,0,0-.52,0V481l1.87-.13a0.81,0.81,0,0,1,.14.38,0.41,0.41,0,0,1-.12.25,3.34,3.34,0,0,1-.43.3l2.67-.18a0.88,0.88,0,0,1,.09.59,1,1,0,0,1-.4.43l2.62-.25,0.17,0.72Z" transform="translate(-606.58 -372.13)" style="fill:#231f20"/><path d="M802.82,483.9v1.42l-3.74.11-0.81.51,0.8,0.66,1.3,0,0,0.12-2.7.07a3.56,3.56,0,0,0-.52-0.5,6.07,6.07,0,0,0-.74-0.45l0.11-.07a1.45,1.45,0,0,0,.46-0.06,3.45,3.45,0,0,0,.63-0.34l2.55-1.61,1.09,0.1Zm-1.31.06h-0.1l-2,1.28,2.2-.06Z" transform="translate(-606.58 -372.13)" style="fill:#231f20"/><path d="M808.07,485.64l0,0.66,0.93-.1,0,0.13a5.44,5.44,0,0,0-.88.13,2.61,2.61,0,0,0-.65.31l-2.13,1.34a0.71,0.71,0,0,0-.33.31,0.08,0.08,0,0,0,.06.11,2.53,2.53,0,0,0,.52,0v0.13l-1.91.12a0.57,0.57,0,0,1-.06-0.5,1.73,1.73,0,0,1,.57-0.48l2.44-1.54,0-.42-1.5.09-2.47,1.56,0.07,0.33-1.56.1-0.29-.71,0.71-.07,2.28-1.44a1.47,1.47,0,0,0,.54-0.45,0.09,0.09,0,0,0-.06-0.13,1.51,1.51,0,0,0-.49,0V485l1.9-.13a0.7,0.7,0,0,1,.12.49,0.87,0.87,0,0,1-.36.34l-0.16.1Z" transform="translate(-606.58 -372.13)" style="fill:#231f20"/><path d="M809.62,486.63l3-.49,0.15,0.05-1.28.76,1.05,0.35-0.5.32-1.05-.35-3,1.9,0.21,0.43,0.56,0v0.13l-1.94.11a1.27,1.27,0,0,0-.64-0.88l0.09-.06a2.11,2.11,0,0,0,.53-0.07,2.29,2.29,0,0,0,.57-0.27l2.56-1.62-0.49-.16Z" transform="translate(-606.58 -372.13)" style="fill:#231f20"/><path d="M814.33,489.32l0.67,0.75-1.88,1.19a4.8,4.8,0,0,0-1-.15,9.67,9.67,0,0,0-1.31,0,1.71,1.71,0,0,0-.4-0.39,2.11,2.11,0,0,0-.53-0.25,3,3,0,0,0-1.13-.13,1.1,1.1,0,0,1-.3,0,0.09,0.09,0,0,1-.07-0.07,0.08,0.08,0,0,1,0-.08,0.69,0.69,0,0,1,.25-0.05l0.42-.06,1-.16,1.44-.26-0.62-.71,1.66-1.05a8,8,0,0,0,1.17.08,7.44,7.44,0,0,0,1.07-.11,6.4,6.4,0,0,0,.74.57,2.35,2.35,0,0,0,.49.23,1.52,1.52,0,0,0,.57.08,0.85,0.85,0,0,0,.39-0.09,0.11,0.11,0,0,0,.05-0.14,0.21,0.21,0,0,1,.1-0.26,0.76,0.76,0,0,1,.31-0.11,0.63,0.63,0,0,1,.28,0,0.18,0.18,0,0,1,.15.16,0.3,0.3,0,0,1-.18.23,2,2,0,0,1-.47.21,7.2,7.2,0,0,1-.83.18Zm-1.35.24-2.7.49,0.53,0.08,0.39,0.1a1.77,1.77,0,0,1,.91.63l1.29-.82Zm-0.49-.56,0.4,0.44,2.43-.44a4.21,4.21,0,0,1-.69-0.15,1.49,1.49,0,0,1-.88-0.65Z" transform="translate(-606.58 -372.13)" style="fill:#231f20"/></g></svg>