<svg xmlns="http://www.w3.org/2000/svg" xmlns:xlink="http://www.w3.org/1999/xlink" viewBox="0 0 151.08 503.94"><defs><linearGradient id="a" x1="90.34" y1="484.35" x2="151.08" y2="484.35" gradientUnits="userSpaceOnUse"><stop offset="0" stop-color="#231f20"/><stop offset="0.5" stop-color="#231f20"/><stop offset="1" stop-color="#231f20"/></linearGradient><linearGradient id="b" x1="12.68" y1="484.35" x2="73.42" y2="484.35" xlink:href="#a"/></defs><title>img-20-person</title><g style="isolation:isolate"><path d="M91.16,59.79C85.21,60,54.3,60.71,54.3,60.71c2,20.76-3.08,33.82-3.08,33.82a62.12,62.12,0,0,0,7.44,14.95c4.89,7,12.28,13.32,11.94,13.25l26-29.27C92.87,87.12,91.39,65.81,91.16,59.79Z" style="fill:#f6b284"/><path d="M100.36,33.73c-3-1.61-6.31,1.64-6.31,1.64L94.91,52.7C100.45,51.89,106.74,40.37,100.36,33.73Z" style="fill:#f6b284"/><path d="M45.19,33.48c3-1.54,6.28,1.79,6.28,1.79L50.27,51.64C44.84,51.74,39.29,37.86,45.19,33.48Z" style="fill:#f6b284"/><g style="opacity:0.45;mix-blend-mode:multiply"><path d="M91.16,59.79C85.21,60,54.3,60.71,54.3,60.71c2,20.76-3.08,33.82-3.08,33.82a62.12,62.12,0,0,0,7.44,14.95c4.89,7,34.85-25.77,34-32.47C91.72,70,91.28,62.88,91.16,59.79Z" style="fill:#f6b284"/></g><path d="M94.24,19.83c-20.07-16.49-42.3-2.28-42.3-2.28-0.32,6.74-1.7,19.61-2.67,31.11a112.18,112.18,0,0,0,1.92,21.91C52.25,75,58.15,84.51,72,84.51S91.8,75.09,94.86,71.24C97.74,67.63,94.8,25.51,94.24,19.83Z" style="fill:#f6b284"/><g style="opacity:0.8"><path d="M73.36,68.32c-8.73,1.75-14-1.34-14-1.34,4.91,5.1,22.2,4.7,26-3.46C84.77,63.75,82.09,66.57,73.36,68.32Z" style="fill:#eb9255;mix-blend-mode:multiply"/></g><path d="M77.58,57.77c-0.69,1.27-3.36,1.66-5.65,1.44a12,12,0,0,1-3-1S70.41,39.83,70,36.78l-1,1.68L67.36,59a27.53,27.53,0,0,0,4.44,1.5C73.8,60.56,77.43,59.48,77.58,57.77Z" style="fill:#eb9255;opacity:0.8;mix-blend-mode:multiply"/><path d="M89.95,33.23c-0.88-.74-5.09-1.11-6.73-1.07,0,0-5.66.73-6.63,1.39a1.09,1.09,0,0,0,.4,2.07c1.35,0.13,4.4-.55,6.55-0.95a59.86,59.86,0,0,1,6.67.4C91.11,34.8,90.43,33.64,89.95,33.23Z" style="fill:#281711"/><path d="M52.48,34.69c0.19-.95,4.73-2,6.37-2.14,0,0,5.75.32,6.83,0.91s1.11,1.89,0,2.09c-1.32.22-4.47-.24-6.68-0.47a50.08,50.08,0,0,0-6.4,1C52.18,36,52.41,35,52.48,34.69Z" style="fill:#281711"/><path d="M51.2,13.1c0.12,1.2,2.22.92-3,5.74a36,36,0,0,0-1.61,14.25c2.75,0.65,3.22,10.56,3.22,10.56,0.34-3.43,1.87-17,2.78-22.08,2.37-.34,4-1.67,6.38-1.32,0.09,0.19-.17.72-0.39,0.52,10.73,6.8,22.56-3.67,33-.35,3.3,6.08,4.5,25.52,5,27.13,0.49-4.82-.17-13.44,3.07-14.25,0.06-1.84.16-12.76-2.47-19S63.59-7.81,51.2,13.1Z" style="fill:#281711"/><path d="M119.26,470.78L91.1,478.52l-0.76,11c5.07,4.51,36,13.6,37.29,14.14,2.06,0.83,18.79-.13,21.77-2.15,1.3-.89,2.59-7.3.79-8C142.81,489.53,125.56,488.66,119.26,470.78Z" style="fill:#fff"/><path d="M44.5,470.78l28.16,7.74,0.76,11c-5.07,4.51-36,13.6-37.29,14.14-2.06.83-18.79-.13-21.77-2.15-1.3-.89-3.35-6.53-1.54-7.23C20.2,490.3,38.2,488.66,44.5,470.78Z" style="fill:#fff"/><path d="M119.26,467.78L91.1,475.52l-0.76,11c5.07,4.51,36,13.6,37.29,14.14,2.06,0.83,18.79-.13,21.77-2.15,1.3-.89,2.59-4.29.79-5C142.81,489.53,125.56,485.65,119.26,467.78Z" style="fill:url(#a)"/><path d="M44.5,467.78l28.16,7.74,0.76,11c-5.07,4.51-36,13.6-37.29,14.14-2.06.83-18.79-.13-21.77-2.15-1.3-.89-2.59-4.29-0.79-5C20.95,489.53,38.2,485.65,44.5,467.78Z" style="fill:url(#b)"/><path d="M121.63,399.65c-0.14-1.56,1.31-25.4.68-33.61,0-15-.73-88.1.87-91.08,0,0,2.38-6.79,2.38-8.7,0-11.41-8.42-27.17-8.46-38.27-25.38.38-84.81,0-84.81,0s-8.12,23.8-8.2,38.2c0,1.07,3.36,7.88,3.36,7.88,2.41,10.93,5.18,74.69,6.07,87,1.74,23.95,10.76,96.82,10.76,102.27l-1.07,7.24-5,7.93,15.53,4.09L73,477.49s-2.94-69.31-3.28-76.9c-0.82-18-1.1-27-1.1-40.42,0-16.71,4.27-60.85,5.29-72.7,0,0,4.37-2,5.23-.57,1,1.66,8.78,61.47,8.55,69.63-0.06,2.22.57,29.42,0.83,35.18,0.78,17,1.77,57.43,1.71,67.36L91,477.17l19.81,6.59s10.2-4.71,13-7.37c-0.05-.51-4-9.4-4-9.4C119.16,449.92,123.16,416.58,121.63,399.65Z" style="fill:#4e596d"/><path d="M149.52,194.66c-1.35-18.35-7.5-73.23-15-82-2.79-3.28-13.44-9.23-21.51-14.28a86.84,86.84,0,0,0-9.46-5s-6.94-3.9-9-5.37c-2.61,12.49-6.09,20.39-22.5,20.39S52,95.69,53,88L41,96.24c-2.3,1.12-4.23,1.23-6.74,2.9-6.69,4.43-16,9.81-19.18,13.51C7.65,121.42,2.07,177.54.73,195.89c-0.82,5,14.39,58,17.62,63.39,0.43,0.72,4.93,1,5.25.61A90.19,90.19,0,0,0,33.52,244c-0.33,3.25-2.88,11.87-4.54,14.29,10.09,14.58,61.2,30.19,90.36-1.28-2.4-3.65-3.51-11.68-3.51-12.85A98,98,0,0,0,126,260.08c0.33,0.4,5.83-.06,6.25-0.78C136.69,252.35,149.57,200.86,149.52,194.66ZM25.87,205.1c-0.92-4.55.47-6.45,0.34-7.35-0.08-.56-1.56-1.47-1.65-1.89s1.32-1.39,1.26-2.29c0-.44-1.61-1.33-1.75-1.87a8.07,8.07,0,0,1-.16-2.1c1-5.48,2.66-17.69,4.21-26.3,0.37,9.68,2.38,25.46,2.38,31.32,0,9.24-.25,21.7.16,29.13-1.59-4.67-3-11.71-4.21-15.86C26.24,206.94,26,206,25.87,205.1Zm99.75-13.4c-0.13.54-1.72,1.43-1.75,1.87-0.06.9,1.38,1.72,1.26,2.29s-1.57,1.32-1.65,1.89c-0.14.9,1.26,2.8,0.34,7.35l-0.57,2.79c-1.1,3.78-2.37,10.38-3.78,14.6-0.4-10.27-1.93-26.4-2-29.94-0.12-9.06,1.74-26.91,2.51-38,1.81,9.71,4.48,27.53,5.79,35A8.07,8.07,0,0,1,125.62,191.7Z" style="fill:#dcdbdb"/><path d="M30.64,223.73c-1.59-4.67-3-11.71-4.21-15.86-0.19-1-.39-1.89-0.57-2.79-0.92-4.55.47-6.45,0.34-7.35-0.08-.56-1.56-1.47-1.65-1.89s1.32-1.39,1.26-2.29c0-.44-1.61-1.33-1.75-1.87a8.07,8.07,0,0,1-.16-2.1c1-5.48,2.66-17.69,4.21-26.3l-1.26-44.49,25.94-24.7V87.58s-16,9.87-18.49,11.54c-6.69,4.43-16,9.81-19.18,13.51C7.66,121.41,2.07,177.52.73,195.87c-0.82,5,14.39,58,17.62,63.39,0.43,0.72,4.93,1,5.25.61A90.32,90.32,0,0,0,33.52,244ZM126,260.06c0.31,1.18,5.79,1.41,6.25-.78,4.48-7,17.35-58.43,17.31-64.64-1.35-18.35-7.5-73.23-15-82-2.79-3.28-13.44-9.23-21.51-14.28-4.45-2.78-15.84-9.48-18-10.89l-1.48,4.32,25.8,25.08L120,154.58c1.81,9.71,4.48,27.53,5.79,35a8.07,8.07,0,0,1-.16,2.1c-0.13.54-1.72,1.43-1.75,1.87-0.06.9,1.38,1.72,1.26,2.29s-1.57,1.32-1.65,1.89c-0.14.9,1.26,2.8,0.34,7.35l-0.57,2.79c-1.1,3.78-2.37,10.38-3.78,14.6l-3.63,21.72Zm-6.62-3" style="fill:#882e2e"/><path d="M33.52,244c-1.18,8.24-3.63,13.83-9.13,21.57-0.52-.71-3.54-5.46-3.54-5.62C28.31,253.42,33.52,244,33.52,244Z" style="fill:#f6b284"/><path d="M115.83,244.19c0,6.63,3.17,14,9,20.82l4-5.52A53.63,53.63,0,0,1,115.83,244.19Z" style="fill:#f6b284"/><path d="M49.05,90c0.3,12.59,10.73,21.76,24,21.76,13.48,0,22.25-9.37,24.4-22.32a1.93,1.93,0,0,0,0-.34l-3.08-2c0.08,0.67-.18,1.35-2.32,7.21s-7.87,13.42-19,13.42S53.13,100,53.13,89.42c0-.66-0.06-1.42,0-2.07C53.14,87.36,49.4,89.74,49.05,90Z" style="fill:#853030"/><polygon points="40.83 472.25 38.25 478.54 53.79 482.63 73.03 477.49 73.42 472.25 54.16 476.74 40.83 472.25" style="fill:#586e93"/><polygon points="90.34 472.47 90.98 477.17 110.79 483.76 123.78 476.39 122.9 472.25 110.22 479.15 90.34 472.47" style="fill:#586e93"/><ellipse cx="60.16" cy="41.89" rx="2.49" ry="3.85" style="fill:#281711"/><ellipse cx="84.09" cy="41.89" rx="2.49" ry="3.85" style="fill:#281711"/><ellipse cx="60.16" cy="39.32" rx="0.56" ry="0.86" style="fill:#fff"/><ellipse cx="84.28" cy="39.32" rx="0.56" ry="0.86" style="fill:#fff"/><path d="M45.64,154.77c-1.65.52-2.73,0.07-3.25-1.42l-2-5.86a2.72,2.72,0,0,1,0-2.15A3,3,0,0,1,42.29,144q2.67-.83,5.38-1.53L48.55,146q-1.39.36-2.78,0.75l-0.34-1.19-1.91.56,1.91,6.25,1.79-.53-0.49-1.73q1.4-.4,2.8-0.76l1,4Q48.08,154,45.64,154.77Z" style="fill:#882e2e"/><path d="M54.48,152.46c-1.69.36-2.74-.32-3.17-2.11L50,144.77c-0.43-1.78.3-2.91,2.19-3.31q1.49-.31,3-0.58a3,3,0,0,1,2.29.29,2.84,2.84,0,0,1,1,2l0.87,5.68c0.27,1.82-.45,2.84-2.14,3.14Q55.82,152.18,54.48,152.46Zm0-2.41,1.75-.34L55,143.29l-1.86.36Z" style="fill:#882e2e"/><path d="M69.08,150.55q-4.07.22-8.13,0.78L60.62,149l0.81-.11-0.85-6.48-0.86.12L59.4,140.2q2.59-.36,5.19-0.59L64.8,142l-0.86.08,0.64,6.5L66,148.4l-0.16-2q1.51-.13,3-0.21Z" style="fill:#882e2e"/><path d="M77.91,150.49q-4.08-.16-8.16,0l-0.11-2.35,0.81,0-0.25-6.53-0.86,0-0.11-2.35q2.61-.12,5.22-0.11,0,1.18,0,2.36H73.59q0,3.27,0,6.53H75l0-2q1.52,0,3,.07Z" style="fill:#882e2e"/><path d="M86.89,151.27q-4.14-.56-8.3-0.75l0.11-2.35,0.81,0,0.36-6.52-0.86,0,0.11-2.35q4.59,0.21,9.16.82l-0.47,3.56q-1.4-.19-2.81-0.34l0.13-1.23-1.88-.18-0.19,2.13q1.27,0.11,2.53.25l-0.23,2q-1.24-.14-2.48-0.25l-0.21,2.35,1.76,0.17,0.15-1.43q1.41,0.15,2.82.34Z" style="fill:#882e2e"/><path d="M90.74,151.87c-1.69-.3-2.44-1.19-2.21-2.74L89.44,143a2.73,2.73,0,0,1,1-1.92,3,3,0,0,1,2.29-.29q2.84,0.5,5.65,1.15l-0.74,3.18q-1.5-.35-3-0.65l0.18-.89-1.94-.37-1.17,6.43L93.48,150l0.42-2.1-1-.19,0.42-2.21q2,0.39,4.08.87l-1.53,6.57Q93.33,152.32,90.74,151.87Z" style="fill:#882e2e"/><path d="M105.15,155.58q-4-1.37-8.07-2.37l0.56-2.29,0.79,0.2,1.62-6.33-0.85-.21,0.56-2.29q4.49,1.11,8.9,2.61l-1.16,3.4q-1.36-.46-2.72-0.89l0.37-1.18-1.82-.55-0.6,2.06q1.23,0.36,2.46.75l-0.61,1.93q-1.2-.38-2.41-0.73L101.51,152l1.71,0.51,0.43-1.37q1.37,0.42,2.73.89Z" style="fill:#882e2e"/><path d="M102,160.27c-15.61-4.38-37.74-5.58-54,.06" style="fill:none;stroke:#882e2e;stroke-miterlimit:10;stroke-width:1.7893747477215018px"/><path d="M115.83,141.18c-23.75-9-57.41-10.75-82.12-.05" style="fill:none;stroke:#882e2e;stroke-miterlimit:10;stroke-width:1.7893747477215018px"/></g></svg>