<svg xmlns="http://www.w3.org/2000/svg" viewBox="0 0 58.32 115.98"><title>img-20-person-head</title><g style="isolation:isolate"><path d="M526.55,196.14C520.81,196.32,491,197,491,197c1.92,20-3,32.67-3,32.67a60,60,0,0,0,7.19,14.43c4.72,6.72,11.86,12.86,11.53,12.79l25.16-28.27C528.2,222.53,526.77,202,526.55,196.14Z" transform="translate(-479.71 -140.93)" style="fill:#f6b284"/><path d="M535.44,171c-2.87-1.56-6.1,1.59-6.1,1.59l0.83,16.74C535.52,188.5,541.6,177.38,535.44,171Z" transform="translate(-479.71 -140.93)" style="fill:#f6b284"/><path d="M482.16,170.72c2.91-1.49,6.06,1.73,6.06,1.73l-1.15,15.8C481.82,188.36,476.45,175,482.16,170.72Z" transform="translate(-479.71 -140.93)" style="fill:#f6b284"/><g style="opacity:0.45;mix-blend-mode:multiply"><path d="M526.55,196.14C520.81,196.32,491,197,491,197c1.92,20-3,32.67-3,32.67a60,60,0,0,0,7.19,14.43c4.72,6.72,33.65-24.89,32.81-31.36C527.09,206,526.66,199.12,526.55,196.14Z" transform="translate(-479.71 -140.93)" style="fill:#f6b284"/></g><path d="M529.53,157.55c-19.38-15.92-40.86-2.2-40.86-2.2-0.31,6.5-1.64,18.94-2.58,30a108.35,108.35,0,0,0,1.85,21.16c1,4.27,6.73,13.46,20.11,13.46s19.11-9.1,22.07-12.82C532.91,203.7,530.07,163,529.53,157.55Z" transform="translate(-479.71 -140.93)" style="fill:#f6b284"/><g style="opacity:0.8"><path d="M509.36,204.38c-8.43,1.69-13.51-1.29-13.51-1.29,4.74,4.93,21.44,4.54,25.13-3.34C520.38,200,517.8,202.68,509.36,204.38Z" transform="translate(-479.71 -140.93)" style="fill:#eb9255;mix-blend-mode:multiply"/></g><path d="M513.44,194.18c-0.66,1.23-3.25,1.6-5.45,1.39a11.61,11.61,0,0,1-2.87-.93s1.39-17.79,1-20.73l-0.95,1.62-1.64,19.83a26.59,26.59,0,0,0,4.29,1.45C509.78,196.88,513.29,195.84,513.44,194.18Z" transform="translate(-479.71 -140.93)" style="fill:#eb9255;opacity:0.8;mix-blend-mode:multiply"/><path d="M525.38,170.48c-0.85-.72-4.91-1.07-6.5-1,0,0-5.47.71-6.4,1.35a1,1,0,0,0,.39,2c1.3,0.12,4.25-.53,6.33-0.92a57.82,57.82,0,0,1,6.44.39C526.5,172,525.85,170.88,525.38,170.48Z" transform="translate(-479.71 -140.93)" style="fill:#281711"/><path d="M489.19,171.9c0.18-.92,4.57-2,6.15-2.06,0,0,5.56.31,6.59,0.88s1.07,1.83,0,2c-1.27.21-4.32-.23-6.45-0.46a48.37,48.37,0,0,0-6.18,1C488.9,173.11,489.12,172.23,489.19,171.9Z" transform="translate(-479.71 -140.93)" style="fill:#281711"/><path d="M488,151c0.11,1.16,2.14.89-2.9,5.54a34.73,34.73,0,0,0-1.56,13.76c2.66,0.62,3.11,10.2,3.11,10.2,0.33-3.31,1.81-16.45,2.68-21.33,2.28-.33,3.89-1.61,6.16-1.28,0.08,0.19-.17.7-0.38,0.5,10.36,6.57,21.79-3.54,31.92-.34,3.18,5.87,4.35,24.64,4.82,26.2,0.48-4.66-.16-13,3-13.76,0.05-1.77.15-12.32-2.38-18.37S499.93,130.85,488,151Z" transform="translate(-479.71 -140.93)" style="fill:#281711"/><ellipse cx="16.91" cy="37.92" rx="2.4" ry="3.72" style="fill:#281711"/><ellipse cx="40.02" cy="37.92" rx="2.4" ry="3.72" style="fill:#281711"/><ellipse cx="16.91" cy="35.44" rx="0.54" ry="0.83" style="fill:#fff"/><ellipse cx="40.2" cy="35.44" rx="0.54" ry="0.83" style="fill:#fff"/></g></svg>