<svg xmlns="http://www.w3.org/2000/svg" viewBox="0 0 380.35 288.68"><title>img-40-desk</title><rect x="2384.77" y="206.2" width="57.41" height="316.59" transform="translate(556.98 -2281.49) rotate(90)" style="fill:#332116"/><polygon points="355.33 163.43 39.35 162.5 39.35 262.02 375.81 262.03 355.33 163.43" style="opacity:0.05"/><polygon points="366.35 288.46 0 288.68 28.73 261.79 380.35 262.02 366.35 288.46" style="opacity:0.05"/><polygon points="110.66 264.02 87.05 284.23 87.05 178.37 110.66 158.16 110.66 264.02" style="fill:#3c2615"/><rect x="77.81" y="178.37" width="9.24" height="105.86" style="fill:#4a494a"/><rect x="77.81" y="168.31" width="268.42" height="12.17" style="fill:#4c2f16"/><rect x="268.08" y="168.31" width="78.14" height="115.92" style="fill:#4c2f16"/><polygon points="346.23 168.31 8.91 168.31 34.19 153.09 355.33 153.09 346.23 168.31" style="fill:#3f2a1c"/><polygon points="355.33 269.01 346.23 284.23 346.23 168.31 355.33 153.09 355.33 269.01" style="fill:#3c2615"/><polygon points="355.33 153.09 350.78 160.7 350.78 103.29 355.33 95.67 355.33 153.09" style="fill:#3c2615"/><line x1="268.08" y1="181" x2="346.22" y2="181" style="fill:none;stroke:#332116;stroke-miterlimit:10"/><line x1="268.08" y1="284.23" x2="346.22" y2="284.23" style="fill:none;stroke:#313131;stroke-miterlimit:10;stroke-width:1.08760499954224px"/><line x1="268.08" y1="249.65" x2="346.22" y2="249.65" style="fill:none;stroke:#332116;stroke-miterlimit:10"/><line x1="268.08" y1="215.06" x2="346.22" y2="215.06" style="fill:none;stroke:#332116;stroke-miterlimit:10"/><line x1="295.91" y1="221.79" x2="318.4" y2="221.79" style="fill:none;stroke:#a5a4a4;stroke-miterlimit:10;stroke-width:0.291735183455643px"/><line x1="295.91" y1="255.53" x2="318.4" y2="255.53" style="fill:none;stroke:#a5a4a4;stroke-miterlimit:10;stroke-width:0.291735183455643px"/><line x1="295.91" y1="187.21" x2="318.4" y2="187.21" style="fill:none;stroke:#a5a4a4;stroke-miterlimit:10;stroke-width:0.291735183455643px"/><rect x="8.91" y="168.31" width="78.14" height="115.92" style="fill:#4c2f16"/><line x1="8.91" y1="181.25" x2="87.05" y2="181.25" style="fill:none;stroke:#332116;stroke-miterlimit:10"/><line x1="8.91" y1="284.23" x2="87.05" y2="284.23" style="fill:none;stroke:#313131;stroke-miterlimit:10;stroke-width:1.08760499954224px"/><line x1="8.91" y1="249.65" x2="87.05" y2="249.65" style="fill:none;stroke:#332116;stroke-miterlimit:10"/><line x1="8.91" y1="215.06" x2="87.05" y2="215.06" style="fill:none;stroke:#332116;stroke-miterlimit:10"/><line x1="36.73" y1="221.79" x2="59.23" y2="221.79" style="fill:none;stroke:#a5a4a4;stroke-miterlimit:10;stroke-width:0.291735183455643px"/><line x1="36.73" y1="255.53" x2="59.23" y2="255.53" style="fill:none;stroke:#a5a4a4;stroke-miterlimit:10;stroke-width:0.291735183455643px"/><line x1="36.73" y1="187.21" x2="59.23" y2="187.21" style="fill:none;stroke:#a5a4a4;stroke-miterlimit:10;stroke-width:0.291735183455643px"/><rect x="2540.44" y="361.87" width="57.41" height="5.25" transform="translate(712.64 -2437.15) rotate(90)" style="fill:#4c2f16"/><polygon points="290.84 153.09 286.29 160.7 286.29 103.29 290.84 95.67 290.84 153.09" style="fill:#3c2615"/><rect x="2475.94" y="361.87" width="57.41" height="5.25" transform="translate(648.15 -2372.66) rotate(90)" style="fill:#4c2f16"/><rect x="2216.46" y="361.87" width="57.41" height="5.25" transform="translate(388.67 -2113.18) rotate(90)" style="fill:#4c2f16"/><polygon points="39.45 153.09 26.8 160.7 26.8 101.76 39.45 96.88 39.45 153.09" style="fill:#3c2615"/><rect x="2277.35" y="361.87" width="57.41" height="5.25" transform="translate(449.55 -2174.06) rotate(90)" style="fill:#4c2f16"/><polygon points="100.33 153.09 87.68 160.7 87.68 101.76 100.33 96.88 100.33 153.09" style="fill:#3c2615"/><rect x="21.55" y="103.28" width="324.67" height="6.08" style="fill:#4c2f16"/><polygon points="350.78 103.28 21.55 103.28 35.22 95.05 355.33 95.67 350.78 103.28" style="fill:#3f2a1c"/><path d="M2271.24,317.46l117.57-3.85a4.17,4.17,0,0,0,4-4.13V236.63a3.86,3.86,0,0,0-4-3.87l-117.57-.15a4.17,4.17,0,0,0-4,4.13v76.85A3.86,3.86,0,0,0,2271.24,317.46Z" transform="translate(-2220.99 -232.5)" style="fill:#cfcece"/><polygon points="126.09 77.21 134.25 96.1 89.29 97.84 88.97 94.62 94.54 76.86 126.09 77.21" style="fill:#c1c1c0"/><path d="M2274.5,317.35l117.57-3.85a4.17,4.17,0,0,0,4-4.13V236.52a3.86,3.86,0,0,0-4-3.87l-117.57-.15a4.17,4.17,0,0,0-4,4.13v76.85A3.86,3.86,0,0,0,2274.5,317.35Z" transform="translate(-2220.99 -232.5)"/><path d="M2358.84,331.79l-4.86-6.11-44,1.44,0.64,6.47c-0.28.92,1.1,1.8,2.05,1.77l44.89-1.5A1.47,1.47,0,0,0,2358.84,331.79Z" transform="translate(-2220.99 -232.5)" style="fill:#b2b3b3"/><polygon points="53.82 80.31 170.77 76.49 170.77 4.69 53.82 4.52 53.82 80.31" style="fill:#77cdd1"/><polygon points="188.01 158.16 189.82 165.09 189.44 166.36 134.6 166.26 134.46 165.18 135.8 158.16 188.01 158.16" style="fill:#e2e2e2"/><path d="M2424.73,390.26l3.08,3.69a2.23,2.23,0,0,1-1.52,3.89l-5.31,0a2.23,2.23,0,0,1-1.55-.65l-2.68-3.64a2.23,2.23,0,0,1,1.57-3.82h4.91A2.23,2.23,0,0,1,2424.73,390.26Z" transform="translate(-2220.99 -232.5)" style="fill:#e2e2e2"/><polygon points="189.82 165.09 189.44 166.36 134.6 166.26 134.46 165.18 189.82 165.09" style="fill:#c1c1c0"/></svg>