<svg xmlns="http://www.w3.org/2000/svg" viewBox="0 0 148.45 195.28"><title>img-30-person-shirt</title><g style="isolation:isolate"><polygon points="92.19 18.85 72.82 36.91 71.45 40.73 70.3 37.18 49.41 19.05 36.65 18.45 72.28 66.53 104.16 14.65 92.19 18.85" style="fill:#1e1e3a"/><path d="M1663.23,326.68c-1.34-18.3-7.48-73.05-14.93-81.81-2.78-3.27-13.4-9.21-21.45-14.24-4.43-2.77-8.47-5.28-10.78-6.91a37.25,37.25,0,0,1-3.2-5c-2.75,15.42-10.58,35.13-27,35.13s-27.16-23.79-26.1-31.46l-4.93,4.54c-1.77,1.25-4.08,2.78-6.59,4.44-6.67,4.42-16,9.79-19.13,13.48-7.45,8.75-13,64.73-14.36,83-0.81,5,14.35,57.85,17.58,63.23,0.43,0.72,4.91,1,5.24.6a105.41,105.41,0,0,0,10.22-15.65c1.67-2.48-2.26,12.05-6.42,17.53,4.4,6.89,24.24,14,46.78,13.58,0.46,0-.62-11.07-0.16-11.09s2.33,11,2.72,11c15.14-.65,32.12-5.5,45.09-15.81-2-2.15-5.68-11.81-6.23-15.22a97.69,97.69,0,0,0,10.1,15.85c0.33,0.39,5.81-.06,6.24-0.78C1650.43,384.22,1663.27,332.87,1663.23,326.68Zm-123.34,10.41c-0.92-4.54.47-6.43,0.34-7.33-0.08-.56-1.56-1.46-1.65-1.88s1.32-1.38,1.25-2.28c0-.44-1.61-1.33-1.75-1.86a8,8,0,0,1-.16-2.1c1-5.47,2.65-17.64,4.2-26.23,0.37,9.65,2.38,25.39,2.38,31.24,0,9.21-.25,21.65.16,29.06-1.58-4.65-3-11.68-4.2-15.82C1540.26,338.92,1540.06,338,1539.88,337.09Zm99.5-13.36c-0.13.54-1.72,1.43-1.74,1.86-0.06.9,1.38,1.72,1.25,2.28s-1.56,1.32-1.65,1.88c-0.14.9,1.26,2.79,0.34,7.33l-0.57,2.78c-1.1,3.77-2.36,10.35-3.77,14.57-0.4-10.25-1.93-26.34-2-29.86-0.12-9,1.73-26.84,2.5-37.86,1.8,9.68,4.46,27.46,5.78,34.91A8,8,0,0,1,1639.38,323.73Z" transform="translate(-1514.77 -211.93)" style="fill:#1e1e3a"/><path d="M1563.36,215c1.28-1.37,5.56-2,5.56-2a63,63,0,0,1-1.67,9c-0.9,7,9.59,19.75,17.76,27a0.41,0.41,0,0,1,0,.28c-2.26-1.59-6.85-5-7.5-5.22-3.7,3.91-3.32,7.06-4.53,11.59-3.62-6.72-10.8-17.64-15.55-32.27C1560.88,219.3,1560.57,218,1563.36,215Z" transform="translate(-1514.77 -211.93)" style="fill:#2e2e4c"/><path d="M1578.52,242.88h0c-6.42-7-12-15.56-11.27-20.82a70.25,70.25,0,0,0,1.49-7.4L1565,217.5S1563.06,228.95,1578.52,242.88Z" transform="translate(-1514.77 -211.93)" style="fill:#d6cfab;mix-blend-mode:multiply"/><path d="M1612.33,214c-0.93-.51-4.49-2-4.49-2a51.07,51.07,0,0,0,1.89,9c0.38,6-12.79,18.87-21.92,27.67a0.67,0.67,0,0,0-.18.52l7.73-5.56c3.7,3.91,4.29,7.63,5.49,12.16,7.18-10.21,13.65-18.76,19-31.06C1616.07,220.62,1613,214.35,1612.33,214Z" transform="translate(-1514.77 -211.93)" style="fill:#2e2e4c"/><path d="M1611.72,215.8l-3.8-3.22v0h0a50.14,50.14,0,0,0,1.8,8.32c0.26,4.17-6,11.64-12.9,18.76h0C1615.31,223.61,1611.72,215.8,1611.72,215.8Z" transform="translate(-1514.77 -211.93)" style="fill:#d6cfab;opacity:0.7000000000000001;mix-blend-mode:multiply"/><polygon points="71.21 40.59 73.27 184.17 73.69 184.17 71.67 40.59 71.21 40.59" style="fill:#12121b"/><polygon points="71.67 40.59 73.69 185.45 75.99 195.19 80.11 194.97 77.58 34.4 72.82 36.91 71.67 40.59" style="fill:#12121b;opacity:0.30000000000000004"/><polygon points="139.38 171.3 130.19 181.76 125.43 180.13 114.85 164.16 115.72 152.71 132.44 169.16 139.38 171.3" style="fill:#2e2e4c"/><polygon points="9.59 170.98 18.78 181.45 23.54 179.81 34.12 163.84 33.25 152.4 16.53 168.85 9.59 170.98" style="fill:#2e2e4c"/><circle cx="1589.52" cy="258.79" r="1.19" transform="translate(-1518.33 -189.02) rotate(-0.82)" style="fill:#6c6b99"/><circle cx="1589.9" cy="285.29" r="1.19" transform="translate(-1518.72 -189.02) rotate(-0.82)" style="fill:#6c6b99"/><circle cx="1590.29" cy="311.79" r="1.19" transform="translate(-1519.1 -189.01) rotate(-0.82)" style="fill:#6c6b99"/><circle cx="1590.67" cy="338.29" r="1.19" transform="translate(-1519.48 -189) rotate(-0.82)" style="fill:#6c6b99"/><circle cx="1591.05" cy="364.8" r="1.19" transform="translate(-1519.86 -188.99) rotate(-0.82)" style="fill:#6c6b99"/><circle cx="1591.43" cy="391.3" r="1.19" transform="translate(-1520.24 -188.98) rotate(-0.82)" style="fill:#6c6b99"/><polygon points="87.68 59.47 112.57 59.47 111.18 82.71 100.93 86.92 88.96 82.71 87.68 59.47" style="fill:none;stroke:#4a4a73;stroke-miterlimit:10;stroke-width:1.28166848796933px;opacity:0.30000000000000004"/></g></svg>